<mxfile host="app.diagrams.net" modified="2021-09-06T19:39:49.823Z" agent="5.0 (Windows NT 10.0; Win64; x64) AppleWebKit/537.36 (KHTML, like Gecko) Chrome/93.0.4577.63 Safari/537.36" etag="Y0PsbzGXYcPmwRkRVSRJ" version="15.0.6" type="github">
  <diagram id="3vztMz24TurzWw2ImpLo" name="Page-1">
    <mxGraphModel dx="4195" dy="6357" grid="1" gridSize="10" guides="1" tooltips="1" connect="1" arrows="1" fold="1" page="1" pageScale="1" pageWidth="827" pageHeight="1169" math="0" shadow="0">
      <root>
        <mxCell id="0" />
        <mxCell id="1" parent="0" />
        <mxCell id="YoVkF1FacM1gue7G8QHR-23" value="a_Providers" style="shape=table;startSize=30;container=1;collapsible=1;childLayout=tableLayout;fixedRows=1;rowLines=0;fontStyle=1;align=center;resizeLast=1;fillColor=#ffcc99;strokeColor=#36393d;" parent="1" vertex="1">
          <mxGeometry x="-2020" y="-4250" width="180" height="130" as="geometry" />
        </mxCell>
        <mxCell id="YoVkF1FacM1gue7G8QHR-24" value="" style="shape=partialRectangle;collapsible=0;dropTarget=0;pointerEvents=0;fillColor=none;top=0;left=0;bottom=1;right=0;points=[[0,0.5],[1,0.5]];portConstraint=eastwest;" parent="YoVkF1FacM1gue7G8QHR-23" vertex="1">
          <mxGeometry y="30" width="180" height="30" as="geometry" />
        </mxCell>
        <mxCell id="YoVkF1FacM1gue7G8QHR-25" value="PK" style="shape=partialRectangle;connectable=0;fillColor=none;top=0;left=0;bottom=0;right=0;fontStyle=1;overflow=hidden;" parent="YoVkF1FacM1gue7G8QHR-24" vertex="1">
          <mxGeometry width="30" height="30" as="geometry" />
        </mxCell>
        <mxCell id="YoVkF1FacM1gue7G8QHR-26" value="provider_sk" style="shape=partialRectangle;connectable=0;fillColor=none;top=0;left=0;bottom=0;right=0;align=left;spacingLeft=6;fontStyle=5;overflow=hidden;" parent="YoVkF1FacM1gue7G8QHR-24" vertex="1">
          <mxGeometry x="30" width="150" height="30" as="geometry" />
        </mxCell>
        <mxCell id="YoVkF1FacM1gue7G8QHR-30" value="" style="shape=partialRectangle;collapsible=0;dropTarget=0;pointerEvents=0;fillColor=none;top=0;left=0;bottom=0;right=0;points=[[0,0.5],[1,0.5]];portConstraint=eastwest;" parent="YoVkF1FacM1gue7G8QHR-23" vertex="1">
          <mxGeometry y="60" width="180" height="30" as="geometry" />
        </mxCell>
        <mxCell id="YoVkF1FacM1gue7G8QHR-31" value="" style="shape=partialRectangle;connectable=0;fillColor=none;top=0;left=0;bottom=0;right=0;editable=1;overflow=hidden;" parent="YoVkF1FacM1gue7G8QHR-30" vertex="1">
          <mxGeometry width="30" height="30" as="geometry" />
        </mxCell>
        <mxCell id="YoVkF1FacM1gue7G8QHR-32" value="load_dttm" style="shape=partialRectangle;connectable=0;fillColor=none;top=0;left=0;bottom=0;right=0;align=left;spacingLeft=6;overflow=hidden;" parent="YoVkF1FacM1gue7G8QHR-30" vertex="1">
          <mxGeometry x="30" width="150" height="30" as="geometry" />
        </mxCell>
        <mxCell id="YoVkF1FacM1gue7G8QHR-33" value="" style="shape=partialRectangle;collapsible=0;dropTarget=0;pointerEvents=0;fillColor=none;top=0;left=0;bottom=0;right=0;points=[[0,0.5],[1,0.5]];portConstraint=eastwest;" parent="YoVkF1FacM1gue7G8QHR-23" vertex="1">
          <mxGeometry y="90" width="180" height="30" as="geometry" />
        </mxCell>
        <mxCell id="YoVkF1FacM1gue7G8QHR-34" value="" style="shape=partialRectangle;connectable=0;fillColor=none;top=0;left=0;bottom=0;right=0;editable=1;overflow=hidden;" parent="YoVkF1FacM1gue7G8QHR-33" vertex="1">
          <mxGeometry width="30" height="30" as="geometry" />
        </mxCell>
        <mxCell id="YoVkF1FacM1gue7G8QHR-35" value="source_id" style="shape=partialRectangle;connectable=0;fillColor=none;top=0;left=0;bottom=0;right=0;align=left;spacingLeft=6;overflow=hidden;" parent="YoVkF1FacM1gue7G8QHR-33" vertex="1">
          <mxGeometry x="30" width="150" height="30" as="geometry" />
        </mxCell>
        <mxCell id="YoVkF1FacM1gue7G8QHR-36" value="a_Stores" style="shape=table;startSize=30;container=1;collapsible=1;childLayout=tableLayout;fixedRows=1;rowLines=0;fontStyle=1;align=center;resizeLast=1;fillColor=#ffcc99;strokeColor=#36393d;" parent="1" vertex="1">
          <mxGeometry x="-1296.5" y="-4850" width="180" height="160" as="geometry" />
        </mxCell>
        <mxCell id="YoVkF1FacM1gue7G8QHR-37" value="" style="shape=partialRectangle;collapsible=0;dropTarget=0;pointerEvents=0;fillColor=none;top=0;left=0;bottom=1;right=0;points=[[0,0.5],[1,0.5]];portConstraint=eastwest;" parent="YoVkF1FacM1gue7G8QHR-36" vertex="1">
          <mxGeometry y="30" width="180" height="30" as="geometry" />
        </mxCell>
        <mxCell id="YoVkF1FacM1gue7G8QHR-38" value="PK" style="shape=partialRectangle;connectable=0;fillColor=none;top=0;left=0;bottom=0;right=0;fontStyle=1;overflow=hidden;" parent="YoVkF1FacM1gue7G8QHR-37" vertex="1">
          <mxGeometry width="30" height="30" as="geometry" />
        </mxCell>
        <mxCell id="YoVkF1FacM1gue7G8QHR-39" value="store_sk" style="shape=partialRectangle;connectable=0;fillColor=none;top=0;left=0;bottom=0;right=0;align=left;spacingLeft=6;fontStyle=5;overflow=hidden;" parent="YoVkF1FacM1gue7G8QHR-37" vertex="1">
          <mxGeometry x="30" width="150" height="30" as="geometry" />
        </mxCell>
        <mxCell id="YoVkF1FacM1gue7G8QHR-40" value="" style="shape=partialRectangle;collapsible=0;dropTarget=0;pointerEvents=0;fillColor=none;top=0;left=0;bottom=0;right=0;points=[[0,0.5],[1,0.5]];portConstraint=eastwest;" parent="YoVkF1FacM1gue7G8QHR-36" vertex="1">
          <mxGeometry y="60" width="180" height="30" as="geometry" />
        </mxCell>
        <mxCell id="YoVkF1FacM1gue7G8QHR-41" value="" style="shape=partialRectangle;connectable=0;fillColor=none;top=0;left=0;bottom=0;right=0;editable=1;overflow=hidden;" parent="YoVkF1FacM1gue7G8QHR-40" vertex="1">
          <mxGeometry width="30" height="30" as="geometry" />
        </mxCell>
        <mxCell id="YoVkF1FacM1gue7G8QHR-42" value="name" style="shape=partialRectangle;connectable=0;fillColor=none;top=0;left=0;bottom=0;right=0;align=left;spacingLeft=6;overflow=hidden;" parent="YoVkF1FacM1gue7G8QHR-40" vertex="1">
          <mxGeometry x="30" width="150" height="30" as="geometry" />
        </mxCell>
        <mxCell id="YoVkF1FacM1gue7G8QHR-43" value="" style="shape=partialRectangle;collapsible=0;dropTarget=0;pointerEvents=0;fillColor=none;top=0;left=0;bottom=0;right=0;points=[[0,0.5],[1,0.5]];portConstraint=eastwest;" parent="YoVkF1FacM1gue7G8QHR-36" vertex="1">
          <mxGeometry y="90" width="180" height="30" as="geometry" />
        </mxCell>
        <mxCell id="YoVkF1FacM1gue7G8QHR-44" value="" style="shape=partialRectangle;connectable=0;fillColor=none;top=0;left=0;bottom=0;right=0;editable=1;overflow=hidden;" parent="YoVkF1FacM1gue7G8QHR-43" vertex="1">
          <mxGeometry width="30" height="30" as="geometry" />
        </mxCell>
        <mxCell id="YoVkF1FacM1gue7G8QHR-45" value="load_dttm" style="shape=partialRectangle;connectable=0;fillColor=none;top=0;left=0;bottom=0;right=0;align=left;spacingLeft=6;overflow=hidden;" parent="YoVkF1FacM1gue7G8QHR-43" vertex="1">
          <mxGeometry x="30" width="150" height="30" as="geometry" />
        </mxCell>
        <mxCell id="YoVkF1FacM1gue7G8QHR-46" value="" style="shape=partialRectangle;collapsible=0;dropTarget=0;pointerEvents=0;fillColor=none;top=0;left=0;bottom=0;right=0;points=[[0,0.5],[1,0.5]];portConstraint=eastwest;" parent="YoVkF1FacM1gue7G8QHR-36" vertex="1">
          <mxGeometry y="120" width="180" height="30" as="geometry" />
        </mxCell>
        <mxCell id="YoVkF1FacM1gue7G8QHR-47" value="" style="shape=partialRectangle;connectable=0;fillColor=none;top=0;left=0;bottom=0;right=0;editable=1;overflow=hidden;" parent="YoVkF1FacM1gue7G8QHR-46" vertex="1">
          <mxGeometry width="30" height="30" as="geometry" />
        </mxCell>
        <mxCell id="YoVkF1FacM1gue7G8QHR-48" value="source_id" style="shape=partialRectangle;connectable=0;fillColor=none;top=0;left=0;bottom=0;right=0;align=left;spacingLeft=6;overflow=hidden;" parent="YoVkF1FacM1gue7G8QHR-46" vertex="1">
          <mxGeometry x="30" width="150" height="30" as="geometry" />
        </mxCell>
        <mxCell id="YoVkF1FacM1gue7G8QHR-49" value="a_Goods" style="shape=table;startSize=30;container=1;collapsible=1;childLayout=tableLayout;fixedRows=1;rowLines=0;fontStyle=1;align=center;resizeLast=1;fillColor=#ffcc99;strokeColor=#36393d;" parent="1" vertex="1">
          <mxGeometry x="-2430" y="-3507" width="180" height="130" as="geometry" />
        </mxCell>
        <mxCell id="YoVkF1FacM1gue7G8QHR-50" value="" style="shape=partialRectangle;collapsible=0;dropTarget=0;pointerEvents=0;fillColor=none;top=0;left=0;bottom=1;right=0;points=[[0,0.5],[1,0.5]];portConstraint=eastwest;" parent="YoVkF1FacM1gue7G8QHR-49" vertex="1">
          <mxGeometry y="30" width="180" height="30" as="geometry" />
        </mxCell>
        <mxCell id="YoVkF1FacM1gue7G8QHR-51" value="PK" style="shape=partialRectangle;connectable=0;fillColor=none;top=0;left=0;bottom=0;right=0;fontStyle=1;overflow=hidden;" parent="YoVkF1FacM1gue7G8QHR-50" vertex="1">
          <mxGeometry width="30" height="30" as="geometry" />
        </mxCell>
        <mxCell id="YoVkF1FacM1gue7G8QHR-52" value="good_id" style="shape=partialRectangle;connectable=0;fillColor=none;top=0;left=0;bottom=0;right=0;align=left;spacingLeft=6;fontStyle=5;overflow=hidden;" parent="YoVkF1FacM1gue7G8QHR-50" vertex="1">
          <mxGeometry x="30" width="150" height="30" as="geometry" />
        </mxCell>
        <mxCell id="YoVkF1FacM1gue7G8QHR-56" value="" style="shape=partialRectangle;collapsible=0;dropTarget=0;pointerEvents=0;fillColor=none;top=0;left=0;bottom=0;right=0;points=[[0,0.5],[1,0.5]];portConstraint=eastwest;" parent="YoVkF1FacM1gue7G8QHR-49" vertex="1">
          <mxGeometry y="60" width="180" height="30" as="geometry" />
        </mxCell>
        <mxCell id="YoVkF1FacM1gue7G8QHR-57" value="" style="shape=partialRectangle;connectable=0;fillColor=none;top=0;left=0;bottom=0;right=0;editable=1;overflow=hidden;" parent="YoVkF1FacM1gue7G8QHR-56" vertex="1">
          <mxGeometry width="30" height="30" as="geometry" />
        </mxCell>
        <mxCell id="YoVkF1FacM1gue7G8QHR-58" value="load_dttm" style="shape=partialRectangle;connectable=0;fillColor=none;top=0;left=0;bottom=0;right=0;align=left;spacingLeft=6;overflow=hidden;" parent="YoVkF1FacM1gue7G8QHR-56" vertex="1">
          <mxGeometry x="30" width="150" height="30" as="geometry" />
        </mxCell>
        <mxCell id="YoVkF1FacM1gue7G8QHR-59" value="" style="shape=partialRectangle;collapsible=0;dropTarget=0;pointerEvents=0;fillColor=none;top=0;left=0;bottom=0;right=0;points=[[0,0.5],[1,0.5]];portConstraint=eastwest;" parent="YoVkF1FacM1gue7G8QHR-49" vertex="1">
          <mxGeometry y="90" width="180" height="30" as="geometry" />
        </mxCell>
        <mxCell id="YoVkF1FacM1gue7G8QHR-60" value="" style="shape=partialRectangle;connectable=0;fillColor=none;top=0;left=0;bottom=0;right=0;editable=1;overflow=hidden;" parent="YoVkF1FacM1gue7G8QHR-59" vertex="1">
          <mxGeometry width="30" height="30" as="geometry" />
        </mxCell>
        <mxCell id="YoVkF1FacM1gue7G8QHR-61" value="source_id" style="shape=partialRectangle;connectable=0;fillColor=none;top=0;left=0;bottom=0;right=0;align=left;spacingLeft=6;overflow=hidden;" parent="YoVkF1FacM1gue7G8QHR-59" vertex="1">
          <mxGeometry x="30" width="150" height="30" as="geometry" />
        </mxCell>
        <mxCell id="YoVkF1FacM1gue7G8QHR-75" value="a_Loyalty_Programs" style="shape=table;startSize=30;container=1;collapsible=1;childLayout=tableLayout;fixedRows=1;rowLines=0;fontStyle=1;align=center;resizeLast=1;fillColor=#ffcc99;strokeColor=#36393d;" parent="1" vertex="1">
          <mxGeometry x="-643" y="-3890" width="180" height="130" as="geometry" />
        </mxCell>
        <mxCell id="YoVkF1FacM1gue7G8QHR-76" value="" style="shape=partialRectangle;collapsible=0;dropTarget=0;pointerEvents=0;fillColor=none;top=0;left=0;bottom=1;right=0;points=[[0,0.5],[1,0.5]];portConstraint=eastwest;" parent="YoVkF1FacM1gue7G8QHR-75" vertex="1">
          <mxGeometry y="30" width="180" height="30" as="geometry" />
        </mxCell>
        <mxCell id="YoVkF1FacM1gue7G8QHR-77" value="PK" style="shape=partialRectangle;connectable=0;fillColor=none;top=0;left=0;bottom=0;right=0;fontStyle=1;overflow=hidden;" parent="YoVkF1FacM1gue7G8QHR-76" vertex="1">
          <mxGeometry width="30" height="30" as="geometry" />
        </mxCell>
        <mxCell id="YoVkF1FacM1gue7G8QHR-78" value="loyalty_program_sk" style="shape=partialRectangle;connectable=0;fillColor=none;top=0;left=0;bottom=0;right=0;align=left;spacingLeft=6;fontStyle=5;overflow=hidden;" parent="YoVkF1FacM1gue7G8QHR-76" vertex="1">
          <mxGeometry x="30" width="150" height="30" as="geometry" />
        </mxCell>
        <mxCell id="YoVkF1FacM1gue7G8QHR-82" value="" style="shape=partialRectangle;collapsible=0;dropTarget=0;pointerEvents=0;fillColor=none;top=0;left=0;bottom=0;right=0;points=[[0,0.5],[1,0.5]];portConstraint=eastwest;" parent="YoVkF1FacM1gue7G8QHR-75" vertex="1">
          <mxGeometry y="60" width="180" height="30" as="geometry" />
        </mxCell>
        <mxCell id="YoVkF1FacM1gue7G8QHR-83" value="" style="shape=partialRectangle;connectable=0;fillColor=none;top=0;left=0;bottom=0;right=0;editable=1;overflow=hidden;" parent="YoVkF1FacM1gue7G8QHR-82" vertex="1">
          <mxGeometry width="30" height="30" as="geometry" />
        </mxCell>
        <mxCell id="YoVkF1FacM1gue7G8QHR-84" value="load_dttm" style="shape=partialRectangle;connectable=0;fillColor=none;top=0;left=0;bottom=0;right=0;align=left;spacingLeft=6;overflow=hidden;" parent="YoVkF1FacM1gue7G8QHR-82" vertex="1">
          <mxGeometry x="30" width="150" height="30" as="geometry" />
        </mxCell>
        <mxCell id="YoVkF1FacM1gue7G8QHR-85" value="" style="shape=partialRectangle;collapsible=0;dropTarget=0;pointerEvents=0;fillColor=none;top=0;left=0;bottom=0;right=0;points=[[0,0.5],[1,0.5]];portConstraint=eastwest;" parent="YoVkF1FacM1gue7G8QHR-75" vertex="1">
          <mxGeometry y="90" width="180" height="30" as="geometry" />
        </mxCell>
        <mxCell id="YoVkF1FacM1gue7G8QHR-86" value="" style="shape=partialRectangle;connectable=0;fillColor=none;top=0;left=0;bottom=0;right=0;editable=1;overflow=hidden;" parent="YoVkF1FacM1gue7G8QHR-85" vertex="1">
          <mxGeometry width="30" height="30" as="geometry" />
        </mxCell>
        <mxCell id="YoVkF1FacM1gue7G8QHR-87" value="source_id" style="shape=partialRectangle;connectable=0;fillColor=none;top=0;left=0;bottom=0;right=0;align=left;spacingLeft=6;overflow=hidden;" parent="YoVkF1FacM1gue7G8QHR-85" vertex="1">
          <mxGeometry x="30" width="150" height="30" as="geometry" />
        </mxCell>
        <mxCell id="YoVkF1FacM1gue7G8QHR-88" value="a_Delivery_Zones" style="shape=table;startSize=30;container=1;collapsible=1;childLayout=tableLayout;fixedRows=1;rowLines=0;fontStyle=1;align=center;resizeLast=1;fillColor=#ffcc99;strokeColor=#36393d;" parent="1" vertex="1">
          <mxGeometry x="-550" y="-3473" width="180" height="160" as="geometry" />
        </mxCell>
        <mxCell id="YoVkF1FacM1gue7G8QHR-89" value="" style="shape=partialRectangle;collapsible=0;dropTarget=0;pointerEvents=0;fillColor=none;top=0;left=0;bottom=1;right=0;points=[[0,0.5],[1,0.5]];portConstraint=eastwest;" parent="YoVkF1FacM1gue7G8QHR-88" vertex="1">
          <mxGeometry y="30" width="180" height="30" as="geometry" />
        </mxCell>
        <mxCell id="YoVkF1FacM1gue7G8QHR-90" value="PK" style="shape=partialRectangle;connectable=0;fillColor=none;top=0;left=0;bottom=0;right=0;fontStyle=1;overflow=hidden;" parent="YoVkF1FacM1gue7G8QHR-89" vertex="1">
          <mxGeometry width="30" height="30" as="geometry" />
        </mxCell>
        <mxCell id="YoVkF1FacM1gue7G8QHR-91" value="delivery_zone_sk" style="shape=partialRectangle;connectable=0;fillColor=none;top=0;left=0;bottom=0;right=0;align=left;spacingLeft=6;fontStyle=5;overflow=hidden;" parent="YoVkF1FacM1gue7G8QHR-89" vertex="1">
          <mxGeometry x="30" width="150" height="30" as="geometry" />
        </mxCell>
        <mxCell id="YoVkF1FacM1gue7G8QHR-92" value="" style="shape=partialRectangle;collapsible=0;dropTarget=0;pointerEvents=0;fillColor=none;top=0;left=0;bottom=0;right=0;points=[[0,0.5],[1,0.5]];portConstraint=eastwest;" parent="YoVkF1FacM1gue7G8QHR-88" vertex="1">
          <mxGeometry y="60" width="180" height="30" as="geometry" />
        </mxCell>
        <mxCell id="YoVkF1FacM1gue7G8QHR-93" value="" style="shape=partialRectangle;connectable=0;fillColor=none;top=0;left=0;bottom=0;right=0;editable=1;overflow=hidden;" parent="YoVkF1FacM1gue7G8QHR-92" vertex="1">
          <mxGeometry width="30" height="30" as="geometry" />
        </mxCell>
        <mxCell id="YoVkF1FacM1gue7G8QHR-94" value="Row 1" style="shape=partialRectangle;connectable=0;fillColor=none;top=0;left=0;bottom=0;right=0;align=left;spacingLeft=6;overflow=hidden;" parent="YoVkF1FacM1gue7G8QHR-92" vertex="1">
          <mxGeometry x="30" width="150" height="30" as="geometry" />
        </mxCell>
        <mxCell id="YoVkF1FacM1gue7G8QHR-95" value="" style="shape=partialRectangle;collapsible=0;dropTarget=0;pointerEvents=0;fillColor=none;top=0;left=0;bottom=0;right=0;points=[[0,0.5],[1,0.5]];portConstraint=eastwest;" parent="YoVkF1FacM1gue7G8QHR-88" vertex="1">
          <mxGeometry y="90" width="180" height="30" as="geometry" />
        </mxCell>
        <mxCell id="YoVkF1FacM1gue7G8QHR-96" value="" style="shape=partialRectangle;connectable=0;fillColor=none;top=0;left=0;bottom=0;right=0;editable=1;overflow=hidden;" parent="YoVkF1FacM1gue7G8QHR-95" vertex="1">
          <mxGeometry width="30" height="30" as="geometry" />
        </mxCell>
        <mxCell id="YoVkF1FacM1gue7G8QHR-97" value="load_dttm" style="shape=partialRectangle;connectable=0;fillColor=none;top=0;left=0;bottom=0;right=0;align=left;spacingLeft=6;overflow=hidden;" parent="YoVkF1FacM1gue7G8QHR-95" vertex="1">
          <mxGeometry x="30" width="150" height="30" as="geometry" />
        </mxCell>
        <mxCell id="YoVkF1FacM1gue7G8QHR-98" value="" style="shape=partialRectangle;collapsible=0;dropTarget=0;pointerEvents=0;fillColor=none;top=0;left=0;bottom=0;right=0;points=[[0,0.5],[1,0.5]];portConstraint=eastwest;" parent="YoVkF1FacM1gue7G8QHR-88" vertex="1">
          <mxGeometry y="120" width="180" height="30" as="geometry" />
        </mxCell>
        <mxCell id="YoVkF1FacM1gue7G8QHR-99" value="" style="shape=partialRectangle;connectable=0;fillColor=none;top=0;left=0;bottom=0;right=0;editable=1;overflow=hidden;" parent="YoVkF1FacM1gue7G8QHR-98" vertex="1">
          <mxGeometry width="30" height="30" as="geometry" />
        </mxCell>
        <mxCell id="YoVkF1FacM1gue7G8QHR-100" value="source_id" style="shape=partialRectangle;connectable=0;fillColor=none;top=0;left=0;bottom=0;right=0;align=left;spacingLeft=6;overflow=hidden;" parent="YoVkF1FacM1gue7G8QHR-98" vertex="1">
          <mxGeometry x="30" width="150" height="30" as="geometry" />
        </mxCell>
        <mxCell id="YoVkF1FacM1gue7G8QHR-101" value="s_Providers_Legal_Info" style="shape=table;startSize=30;container=1;collapsible=1;childLayout=tableLayout;fixedRows=1;rowLines=0;fontStyle=1;align=center;resizeLast=1;fillColor=#dae8fc;strokeColor=#6c8ebf;" parent="1" vertex="1">
          <mxGeometry x="-2500" y="-4580" width="180" height="280" as="geometry" />
        </mxCell>
        <mxCell id="YoVkF1FacM1gue7G8QHR-102" value="" style="shape=partialRectangle;collapsible=0;dropTarget=0;pointerEvents=0;fillColor=none;top=0;left=0;bottom=1;right=0;points=[[0,0.5],[1,0.5]];portConstraint=eastwest;" parent="YoVkF1FacM1gue7G8QHR-101" vertex="1">
          <mxGeometry y="30" width="180" height="30" as="geometry" />
        </mxCell>
        <mxCell id="YoVkF1FacM1gue7G8QHR-103" value="PK" style="shape=partialRectangle;connectable=0;fillColor=none;top=0;left=0;bottom=0;right=0;fontStyle=1;overflow=hidden;" parent="YoVkF1FacM1gue7G8QHR-102" vertex="1">
          <mxGeometry width="30" height="30" as="geometry" />
        </mxCell>
        <mxCell id="YoVkF1FacM1gue7G8QHR-104" value="provider_sk" style="shape=partialRectangle;connectable=0;fillColor=none;top=0;left=0;bottom=0;right=0;align=left;spacingLeft=6;fontStyle=5;overflow=hidden;" parent="YoVkF1FacM1gue7G8QHR-102" vertex="1">
          <mxGeometry x="30" width="150" height="30" as="geometry" />
        </mxCell>
        <mxCell id="YoVkF1FacM1gue7G8QHR-105" value="" style="shape=partialRectangle;collapsible=0;dropTarget=0;pointerEvents=0;fillColor=none;top=0;left=0;bottom=0;right=0;points=[[0,0.5],[1,0.5]];portConstraint=eastwest;" parent="YoVkF1FacM1gue7G8QHR-101" vertex="1">
          <mxGeometry y="60" width="180" height="30" as="geometry" />
        </mxCell>
        <mxCell id="YoVkF1FacM1gue7G8QHR-106" value="" style="shape=partialRectangle;connectable=0;fillColor=none;top=0;left=0;bottom=0;right=0;editable=1;overflow=hidden;" parent="YoVkF1FacM1gue7G8QHR-105" vertex="1">
          <mxGeometry width="30" height="30" as="geometry" />
        </mxCell>
        <mxCell id="YoVkF1FacM1gue7G8QHR-107" value="name" style="shape=partialRectangle;connectable=0;fillColor=none;top=0;left=0;bottom=0;right=0;align=left;spacingLeft=6;overflow=hidden;" parent="YoVkF1FacM1gue7G8QHR-105" vertex="1">
          <mxGeometry x="30" width="150" height="30" as="geometry" />
        </mxCell>
        <mxCell id="YoVkF1FacM1gue7G8QHR-162" value="" style="shape=partialRectangle;collapsible=0;dropTarget=0;pointerEvents=0;fillColor=none;top=0;left=0;bottom=0;right=0;points=[[0,0.5],[1,0.5]];portConstraint=eastwest;" parent="YoVkF1FacM1gue7G8QHR-101" vertex="1">
          <mxGeometry y="90" width="180" height="30" as="geometry" />
        </mxCell>
        <mxCell id="YoVkF1FacM1gue7G8QHR-163" value="" style="shape=partialRectangle;connectable=0;fillColor=none;top=0;left=0;bottom=0;right=0;editable=1;overflow=hidden;" parent="YoVkF1FacM1gue7G8QHR-162" vertex="1">
          <mxGeometry width="30" height="30" as="geometry" />
        </mxCell>
        <mxCell id="YoVkF1FacM1gue7G8QHR-164" value="type_legal_entity" style="shape=partialRectangle;connectable=0;fillColor=none;top=0;left=0;bottom=0;right=0;align=left;spacingLeft=6;overflow=hidden;" parent="YoVkF1FacM1gue7G8QHR-162" vertex="1">
          <mxGeometry x="30" width="150" height="30" as="geometry" />
        </mxCell>
        <mxCell id="YoVkF1FacM1gue7G8QHR-174" value="" style="shape=partialRectangle;collapsible=0;dropTarget=0;pointerEvents=0;fillColor=none;top=0;left=0;bottom=0;right=0;points=[[0,0.5],[1,0.5]];portConstraint=eastwest;" parent="YoVkF1FacM1gue7G8QHR-101" vertex="1">
          <mxGeometry y="120" width="180" height="30" as="geometry" />
        </mxCell>
        <mxCell id="YoVkF1FacM1gue7G8QHR-175" value="" style="shape=partialRectangle;connectable=0;fillColor=none;top=0;left=0;bottom=0;right=0;editable=1;overflow=hidden;" parent="YoVkF1FacM1gue7G8QHR-174" vertex="1">
          <mxGeometry width="30" height="30" as="geometry" />
        </mxCell>
        <mxCell id="YoVkF1FacM1gue7G8QHR-176" value="INN" style="shape=partialRectangle;connectable=0;fillColor=none;top=0;left=0;bottom=0;right=0;align=left;spacingLeft=6;overflow=hidden;" parent="YoVkF1FacM1gue7G8QHR-174" vertex="1">
          <mxGeometry x="30" width="150" height="30" as="geometry" />
        </mxCell>
        <mxCell id="YoVkF1FacM1gue7G8QHR-108" value="" style="shape=partialRectangle;collapsible=0;dropTarget=0;pointerEvents=0;fillColor=none;top=0;left=0;bottom=0;right=0;points=[[0,0.5],[1,0.5]];portConstraint=eastwest;" parent="YoVkF1FacM1gue7G8QHR-101" vertex="1">
          <mxGeometry y="150" width="180" height="30" as="geometry" />
        </mxCell>
        <mxCell id="YoVkF1FacM1gue7G8QHR-109" value="" style="shape=partialRectangle;connectable=0;fillColor=none;top=0;left=0;bottom=0;right=0;editable=1;overflow=hidden;" parent="YoVkF1FacM1gue7G8QHR-108" vertex="1">
          <mxGeometry width="30" height="30" as="geometry" />
        </mxCell>
        <mxCell id="YoVkF1FacM1gue7G8QHR-110" value="legal_adress" style="shape=partialRectangle;connectable=0;fillColor=none;top=0;left=0;bottom=0;right=0;align=left;spacingLeft=6;overflow=hidden;" parent="YoVkF1FacM1gue7G8QHR-108" vertex="1">
          <mxGeometry x="30" width="150" height="30" as="geometry" />
        </mxCell>
        <mxCell id="YoVkF1FacM1gue7G8QHR-111" value="" style="shape=partialRectangle;collapsible=0;dropTarget=0;pointerEvents=0;fillColor=none;top=0;left=0;bottom=0;right=0;points=[[0,0.5],[1,0.5]];portConstraint=eastwest;" parent="YoVkF1FacM1gue7G8QHR-101" vertex="1">
          <mxGeometry y="180" width="180" height="30" as="geometry" />
        </mxCell>
        <mxCell id="YoVkF1FacM1gue7G8QHR-112" value="" style="shape=partialRectangle;connectable=0;fillColor=none;top=0;left=0;bottom=0;right=0;editable=1;overflow=hidden;" parent="YoVkF1FacM1gue7G8QHR-111" vertex="1">
          <mxGeometry width="30" height="30" as="geometry" />
        </mxCell>
        <mxCell id="YoVkF1FacM1gue7G8QHR-113" value="CEO_name" style="shape=partialRectangle;connectable=0;fillColor=none;top=0;left=0;bottom=0;right=0;align=left;spacingLeft=6;overflow=hidden;" parent="YoVkF1FacM1gue7G8QHR-111" vertex="1">
          <mxGeometry x="30" width="150" height="30" as="geometry" />
        </mxCell>
        <mxCell id="YoVkF1FacM1gue7G8QHR-168" value="" style="shape=partialRectangle;collapsible=0;dropTarget=0;pointerEvents=0;fillColor=none;top=0;left=0;bottom=0;right=0;points=[[0,0.5],[1,0.5]];portConstraint=eastwest;" parent="YoVkF1FacM1gue7G8QHR-101" vertex="1">
          <mxGeometry y="210" width="180" height="30" as="geometry" />
        </mxCell>
        <mxCell id="YoVkF1FacM1gue7G8QHR-169" value="PK" style="shape=partialRectangle;connectable=0;fillColor=none;top=0;left=0;bottom=0;right=0;editable=1;overflow=hidden;" parent="YoVkF1FacM1gue7G8QHR-168" vertex="1">
          <mxGeometry width="30" height="30" as="geometry" />
        </mxCell>
        <mxCell id="YoVkF1FacM1gue7G8QHR-170" value="valid_from_dttm" style="shape=partialRectangle;connectable=0;fillColor=none;top=0;left=0;bottom=0;right=0;align=left;spacingLeft=6;overflow=hidden;" parent="YoVkF1FacM1gue7G8QHR-168" vertex="1">
          <mxGeometry x="30" width="150" height="30" as="geometry" />
        </mxCell>
        <mxCell id="YoVkF1FacM1gue7G8QHR-171" value="" style="shape=partialRectangle;collapsible=0;dropTarget=0;pointerEvents=0;fillColor=none;top=0;left=0;bottom=0;right=0;points=[[0,0.5],[1,0.5]];portConstraint=eastwest;" parent="YoVkF1FacM1gue7G8QHR-101" vertex="1">
          <mxGeometry y="240" width="180" height="30" as="geometry" />
        </mxCell>
        <mxCell id="YoVkF1FacM1gue7G8QHR-172" value="" style="shape=partialRectangle;connectable=0;fillColor=none;top=0;left=0;bottom=0;right=0;editable=1;overflow=hidden;" parent="YoVkF1FacM1gue7G8QHR-171" vertex="1">
          <mxGeometry width="30" height="30" as="geometry" />
        </mxCell>
        <mxCell id="YoVkF1FacM1gue7G8QHR-173" value="valid_to_dtt," style="shape=partialRectangle;connectable=0;fillColor=none;top=0;left=0;bottom=0;right=0;align=left;spacingLeft=6;overflow=hidden;" parent="YoVkF1FacM1gue7G8QHR-171" vertex="1">
          <mxGeometry x="30" width="150" height="30" as="geometry" />
        </mxCell>
        <mxCell id="YoVkF1FacM1gue7G8QHR-114" value="s_Providers_Location_Info" style="shape=table;startSize=30;container=1;collapsible=1;childLayout=tableLayout;fixedRows=1;rowLines=0;fontStyle=1;align=center;resizeLast=1;fillColor=#dae8fc;strokeColor=#6c8ebf;" parent="1" vertex="1">
          <mxGeometry x="-1980" y="-4790" width="180" height="190" as="geometry" />
        </mxCell>
        <mxCell id="YoVkF1FacM1gue7G8QHR-115" value="" style="shape=partialRectangle;collapsible=0;dropTarget=0;pointerEvents=0;fillColor=none;top=0;left=0;bottom=1;right=0;points=[[0,0.5],[1,0.5]];portConstraint=eastwest;" parent="YoVkF1FacM1gue7G8QHR-114" vertex="1">
          <mxGeometry y="30" width="180" height="30" as="geometry" />
        </mxCell>
        <mxCell id="YoVkF1FacM1gue7G8QHR-116" value="PK" style="shape=partialRectangle;connectable=0;fillColor=none;top=0;left=0;bottom=0;right=0;fontStyle=1;overflow=hidden;" parent="YoVkF1FacM1gue7G8QHR-115" vertex="1">
          <mxGeometry width="30" height="30" as="geometry" />
        </mxCell>
        <mxCell id="YoVkF1FacM1gue7G8QHR-117" value="proviser_sk" style="shape=partialRectangle;connectable=0;fillColor=none;top=0;left=0;bottom=0;right=0;align=left;spacingLeft=6;fontStyle=5;overflow=hidden;" parent="YoVkF1FacM1gue7G8QHR-115" vertex="1">
          <mxGeometry x="30" width="150" height="30" as="geometry" />
        </mxCell>
        <mxCell id="YoVkF1FacM1gue7G8QHR-118" value="" style="shape=partialRectangle;collapsible=0;dropTarget=0;pointerEvents=0;fillColor=none;top=0;left=0;bottom=0;right=0;points=[[0,0.5],[1,0.5]];portConstraint=eastwest;" parent="YoVkF1FacM1gue7G8QHR-114" vertex="1">
          <mxGeometry y="60" width="180" height="30" as="geometry" />
        </mxCell>
        <mxCell id="YoVkF1FacM1gue7G8QHR-119" value="" style="shape=partialRectangle;connectable=0;fillColor=none;top=0;left=0;bottom=0;right=0;editable=1;overflow=hidden;" parent="YoVkF1FacM1gue7G8QHR-118" vertex="1">
          <mxGeometry width="30" height="30" as="geometry" />
        </mxCell>
        <mxCell id="YoVkF1FacM1gue7G8QHR-120" value="city" style="shape=partialRectangle;connectable=0;fillColor=none;top=0;left=0;bottom=0;right=0;align=left;spacingLeft=6;overflow=hidden;" parent="YoVkF1FacM1gue7G8QHR-118" vertex="1">
          <mxGeometry x="30" width="150" height="30" as="geometry" />
        </mxCell>
        <mxCell id="YoVkF1FacM1gue7G8QHR-121" value="" style="shape=partialRectangle;collapsible=0;dropTarget=0;pointerEvents=0;fillColor=none;top=0;left=0;bottom=0;right=0;points=[[0,0.5],[1,0.5]];portConstraint=eastwest;" parent="YoVkF1FacM1gue7G8QHR-114" vertex="1">
          <mxGeometry y="90" width="180" height="30" as="geometry" />
        </mxCell>
        <mxCell id="YoVkF1FacM1gue7G8QHR-122" value="" style="shape=partialRectangle;connectable=0;fillColor=none;top=0;left=0;bottom=0;right=0;editable=1;overflow=hidden;" parent="YoVkF1FacM1gue7G8QHR-121" vertex="1">
          <mxGeometry width="30" height="30" as="geometry" />
        </mxCell>
        <mxCell id="YoVkF1FacM1gue7G8QHR-123" value="adress" style="shape=partialRectangle;connectable=0;fillColor=none;top=0;left=0;bottom=0;right=0;align=left;spacingLeft=6;overflow=hidden;" parent="YoVkF1FacM1gue7G8QHR-121" vertex="1">
          <mxGeometry x="30" width="150" height="30" as="geometry" />
        </mxCell>
        <mxCell id="YoVkF1FacM1gue7G8QHR-124" value="" style="shape=partialRectangle;collapsible=0;dropTarget=0;pointerEvents=0;fillColor=none;top=0;left=0;bottom=0;right=0;points=[[0,0.5],[1,0.5]];portConstraint=eastwest;" parent="YoVkF1FacM1gue7G8QHR-114" vertex="1">
          <mxGeometry y="120" width="180" height="30" as="geometry" />
        </mxCell>
        <mxCell id="YoVkF1FacM1gue7G8QHR-125" value="PK" style="shape=partialRectangle;connectable=0;fillColor=none;top=0;left=0;bottom=0;right=0;editable=1;overflow=hidden;" parent="YoVkF1FacM1gue7G8QHR-124" vertex="1">
          <mxGeometry width="30" height="30" as="geometry" />
        </mxCell>
        <mxCell id="YoVkF1FacM1gue7G8QHR-126" value="valid_from_dttm" style="shape=partialRectangle;connectable=0;fillColor=none;top=0;left=0;bottom=0;right=0;align=left;spacingLeft=6;overflow=hidden;" parent="YoVkF1FacM1gue7G8QHR-124" vertex="1">
          <mxGeometry x="30" width="150" height="30" as="geometry" />
        </mxCell>
        <mxCell id="YoVkF1FacM1gue7G8QHR-165" value="" style="shape=partialRectangle;collapsible=0;dropTarget=0;pointerEvents=0;fillColor=none;top=0;left=0;bottom=0;right=0;points=[[0,0.5],[1,0.5]];portConstraint=eastwest;" parent="YoVkF1FacM1gue7G8QHR-114" vertex="1">
          <mxGeometry y="150" width="180" height="30" as="geometry" />
        </mxCell>
        <mxCell id="YoVkF1FacM1gue7G8QHR-166" value="" style="shape=partialRectangle;connectable=0;fillColor=none;top=0;left=0;bottom=0;right=0;editable=1;overflow=hidden;" parent="YoVkF1FacM1gue7G8QHR-165" vertex="1">
          <mxGeometry width="30" height="30" as="geometry" />
        </mxCell>
        <mxCell id="YoVkF1FacM1gue7G8QHR-167" value="valid_to_dttm" style="shape=partialRectangle;connectable=0;fillColor=none;top=0;left=0;bottom=0;right=0;align=left;spacingLeft=6;overflow=hidden;" parent="YoVkF1FacM1gue7G8QHR-165" vertex="1">
          <mxGeometry x="30" width="150" height="30" as="geometry" />
        </mxCell>
        <mxCell id="YoVkF1FacM1gue7G8QHR-149" value="s_Providers_Basic_Info" style="shape=table;startSize=30;container=1;collapsible=1;childLayout=tableLayout;fixedRows=1;rowLines=0;fontStyle=1;align=center;resizeLast=1;fillColor=#dae8fc;strokeColor=#6c8ebf;" parent="1" vertex="1">
          <mxGeometry x="-2260" y="-4620" width="180" height="190" as="geometry" />
        </mxCell>
        <mxCell id="YoVkF1FacM1gue7G8QHR-150" value="" style="shape=partialRectangle;collapsible=0;dropTarget=0;pointerEvents=0;fillColor=none;top=0;left=0;bottom=1;right=0;points=[[0,0.5],[1,0.5]];portConstraint=eastwest;" parent="YoVkF1FacM1gue7G8QHR-149" vertex="1">
          <mxGeometry y="30" width="180" height="30" as="geometry" />
        </mxCell>
        <mxCell id="YoVkF1FacM1gue7G8QHR-151" value="PK" style="shape=partialRectangle;connectable=0;fillColor=none;top=0;left=0;bottom=0;right=0;fontStyle=1;overflow=hidden;" parent="YoVkF1FacM1gue7G8QHR-150" vertex="1">
          <mxGeometry width="30" height="30" as="geometry" />
        </mxCell>
        <mxCell id="YoVkF1FacM1gue7G8QHR-152" value="provider_sk" style="shape=partialRectangle;connectable=0;fillColor=none;top=0;left=0;bottom=0;right=0;align=left;spacingLeft=6;fontStyle=5;overflow=hidden;" parent="YoVkF1FacM1gue7G8QHR-150" vertex="1">
          <mxGeometry x="30" width="150" height="30" as="geometry" />
        </mxCell>
        <mxCell id="YoVkF1FacM1gue7G8QHR-153" value="" style="shape=partialRectangle;collapsible=0;dropTarget=0;pointerEvents=0;fillColor=none;top=0;left=0;bottom=0;right=0;points=[[0,0.5],[1,0.5]];portConstraint=eastwest;" parent="YoVkF1FacM1gue7G8QHR-149" vertex="1">
          <mxGeometry y="60" width="180" height="30" as="geometry" />
        </mxCell>
        <mxCell id="YoVkF1FacM1gue7G8QHR-154" value="" style="shape=partialRectangle;connectable=0;fillColor=none;top=0;left=0;bottom=0;right=0;editable=1;overflow=hidden;" parent="YoVkF1FacM1gue7G8QHR-153" vertex="1">
          <mxGeometry width="30" height="30" as="geometry" />
        </mxCell>
        <mxCell id="YoVkF1FacM1gue7G8QHR-155" value="good_categories" style="shape=partialRectangle;connectable=0;fillColor=none;top=0;left=0;bottom=0;right=0;align=left;spacingLeft=6;overflow=hidden;" parent="YoVkF1FacM1gue7G8QHR-153" vertex="1">
          <mxGeometry x="30" width="150" height="30" as="geometry" />
        </mxCell>
        <mxCell id="YoVkF1FacM1gue7G8QHR-159" value="" style="shape=partialRectangle;collapsible=0;dropTarget=0;pointerEvents=0;fillColor=none;top=0;left=0;bottom=0;right=0;points=[[0,0.5],[1,0.5]];portConstraint=eastwest;" parent="YoVkF1FacM1gue7G8QHR-149" vertex="1">
          <mxGeometry y="90" width="180" height="30" as="geometry" />
        </mxCell>
        <mxCell id="YoVkF1FacM1gue7G8QHR-160" value="" style="shape=partialRectangle;connectable=0;fillColor=none;top=0;left=0;bottom=0;right=0;editable=1;overflow=hidden;" parent="YoVkF1FacM1gue7G8QHR-159" vertex="1">
          <mxGeometry width="30" height="30" as="geometry" />
        </mxCell>
        <mxCell id="YoVkF1FacM1gue7G8QHR-161" value="contact_phone" style="shape=partialRectangle;connectable=0;fillColor=none;top=0;left=0;bottom=0;right=0;align=left;spacingLeft=6;overflow=hidden;" parent="YoVkF1FacM1gue7G8QHR-159" vertex="1">
          <mxGeometry x="30" width="150" height="30" as="geometry" />
        </mxCell>
        <mxCell id="YoVkF1FacM1gue7G8QHR-177" value="" style="shape=partialRectangle;collapsible=0;dropTarget=0;pointerEvents=0;fillColor=none;top=0;left=0;bottom=0;right=0;points=[[0,0.5],[1,0.5]];portConstraint=eastwest;" parent="YoVkF1FacM1gue7G8QHR-149" vertex="1">
          <mxGeometry y="120" width="180" height="30" as="geometry" />
        </mxCell>
        <mxCell id="YoVkF1FacM1gue7G8QHR-178" value="PK" style="shape=partialRectangle;connectable=0;fillColor=none;top=0;left=0;bottom=0;right=0;editable=1;overflow=hidden;" parent="YoVkF1FacM1gue7G8QHR-177" vertex="1">
          <mxGeometry width="30" height="30" as="geometry" />
        </mxCell>
        <mxCell id="YoVkF1FacM1gue7G8QHR-179" value="valid_from_dttm" style="shape=partialRectangle;connectable=0;fillColor=none;top=0;left=0;bottom=0;right=0;align=left;spacingLeft=6;overflow=hidden;" parent="YoVkF1FacM1gue7G8QHR-177" vertex="1">
          <mxGeometry x="30" width="150" height="30" as="geometry" />
        </mxCell>
        <mxCell id="YoVkF1FacM1gue7G8QHR-183" value="" style="shape=partialRectangle;collapsible=0;dropTarget=0;pointerEvents=0;fillColor=none;top=0;left=0;bottom=0;right=0;points=[[0,0.5],[1,0.5]];portConstraint=eastwest;" parent="YoVkF1FacM1gue7G8QHR-149" vertex="1">
          <mxGeometry y="150" width="180" height="30" as="geometry" />
        </mxCell>
        <mxCell id="YoVkF1FacM1gue7G8QHR-184" value="" style="shape=partialRectangle;connectable=0;fillColor=none;top=0;left=0;bottom=0;right=0;editable=1;overflow=hidden;" parent="YoVkF1FacM1gue7G8QHR-183" vertex="1">
          <mxGeometry width="30" height="30" as="geometry" />
        </mxCell>
        <mxCell id="YoVkF1FacM1gue7G8QHR-185" value="valid_to_dttm" style="shape=partialRectangle;connectable=0;fillColor=none;top=0;left=0;bottom=0;right=0;align=left;spacingLeft=6;overflow=hidden;" parent="YoVkF1FacM1gue7G8QHR-183" vertex="1">
          <mxGeometry x="30" width="150" height="30" as="geometry" />
        </mxCell>
        <mxCell id="YoVkF1FacM1gue7G8QHR-186" value="" style="edgeStyle=orthogonalEdgeStyle;fontSize=12;html=1;endArrow=ERone;endFill=1;entryX=0.5;entryY=1;entryDx=0;entryDy=0;exitX=1;exitY=0.121;exitDx=0;exitDy=0;exitPerimeter=0;" parent="1" source="YoVkF1FacM1gue7G8QHR-23" target="YoVkF1FacM1gue7G8QHR-114" edge="1">
          <mxGeometry width="100" height="100" relative="1" as="geometry">
            <mxPoint x="-2030" y="-3897" as="sourcePoint" />
            <mxPoint x="-1930" y="-3910" as="targetPoint" />
          </mxGeometry>
        </mxCell>
        <mxCell id="YoVkF1FacM1gue7G8QHR-189" value="s_Stores_Location_Info" style="shape=table;startSize=30;container=1;collapsible=1;childLayout=tableLayout;fixedRows=1;rowLines=0;fontStyle=1;align=center;resizeLast=1;fillColor=#dae8fc;strokeColor=#6c8ebf;" parent="1" vertex="1">
          <mxGeometry x="-1486.5" y="-5070" width="180" height="190" as="geometry" />
        </mxCell>
        <mxCell id="YoVkF1FacM1gue7G8QHR-190" value="" style="shape=partialRectangle;collapsible=0;dropTarget=0;pointerEvents=0;fillColor=none;top=0;left=0;bottom=1;right=0;points=[[0,0.5],[1,0.5]];portConstraint=eastwest;" parent="YoVkF1FacM1gue7G8QHR-189" vertex="1">
          <mxGeometry y="30" width="180" height="30" as="geometry" />
        </mxCell>
        <mxCell id="YoVkF1FacM1gue7G8QHR-191" value="PK" style="shape=partialRectangle;connectable=0;fillColor=none;top=0;left=0;bottom=0;right=0;fontStyle=1;overflow=hidden;" parent="YoVkF1FacM1gue7G8QHR-190" vertex="1">
          <mxGeometry width="30" height="30" as="geometry" />
        </mxCell>
        <mxCell id="YoVkF1FacM1gue7G8QHR-192" value="store_sk" style="shape=partialRectangle;connectable=0;fillColor=none;top=0;left=0;bottom=0;right=0;align=left;spacingLeft=6;fontStyle=5;overflow=hidden;" parent="YoVkF1FacM1gue7G8QHR-190" vertex="1">
          <mxGeometry x="30" width="150" height="30" as="geometry" />
        </mxCell>
        <mxCell id="YoVkF1FacM1gue7G8QHR-193" value="" style="shape=partialRectangle;collapsible=0;dropTarget=0;pointerEvents=0;fillColor=none;top=0;left=0;bottom=0;right=0;points=[[0,0.5],[1,0.5]];portConstraint=eastwest;" parent="YoVkF1FacM1gue7G8QHR-189" vertex="1">
          <mxGeometry y="60" width="180" height="30" as="geometry" />
        </mxCell>
        <mxCell id="YoVkF1FacM1gue7G8QHR-194" value="" style="shape=partialRectangle;connectable=0;fillColor=none;top=0;left=0;bottom=0;right=0;editable=1;overflow=hidden;" parent="YoVkF1FacM1gue7G8QHR-193" vertex="1">
          <mxGeometry width="30" height="30" as="geometry" />
        </mxCell>
        <mxCell id="YoVkF1FacM1gue7G8QHR-195" value="city" style="shape=partialRectangle;connectable=0;fillColor=none;top=0;left=0;bottom=0;right=0;align=left;spacingLeft=6;overflow=hidden;" parent="YoVkF1FacM1gue7G8QHR-193" vertex="1">
          <mxGeometry x="30" width="150" height="30" as="geometry" />
        </mxCell>
        <mxCell id="YoVkF1FacM1gue7G8QHR-196" value="" style="shape=partialRectangle;collapsible=0;dropTarget=0;pointerEvents=0;fillColor=none;top=0;left=0;bottom=0;right=0;points=[[0,0.5],[1,0.5]];portConstraint=eastwest;" parent="YoVkF1FacM1gue7G8QHR-189" vertex="1">
          <mxGeometry y="90" width="180" height="30" as="geometry" />
        </mxCell>
        <mxCell id="YoVkF1FacM1gue7G8QHR-197" value="" style="shape=partialRectangle;connectable=0;fillColor=none;top=0;left=0;bottom=0;right=0;editable=1;overflow=hidden;" parent="YoVkF1FacM1gue7G8QHR-196" vertex="1">
          <mxGeometry width="30" height="30" as="geometry" />
        </mxCell>
        <mxCell id="YoVkF1FacM1gue7G8QHR-198" value="adress" style="shape=partialRectangle;connectable=0;fillColor=none;top=0;left=0;bottom=0;right=0;align=left;spacingLeft=6;overflow=hidden;" parent="YoVkF1FacM1gue7G8QHR-196" vertex="1">
          <mxGeometry x="30" width="150" height="30" as="geometry" />
        </mxCell>
        <mxCell id="YoVkF1FacM1gue7G8QHR-199" value="" style="shape=partialRectangle;collapsible=0;dropTarget=0;pointerEvents=0;fillColor=none;top=0;left=0;bottom=0;right=0;points=[[0,0.5],[1,0.5]];portConstraint=eastwest;" parent="YoVkF1FacM1gue7G8QHR-189" vertex="1">
          <mxGeometry y="120" width="180" height="30" as="geometry" />
        </mxCell>
        <mxCell id="YoVkF1FacM1gue7G8QHR-200" value="PK" style="shape=partialRectangle;connectable=0;fillColor=none;top=0;left=0;bottom=0;right=0;editable=1;overflow=hidden;" parent="YoVkF1FacM1gue7G8QHR-199" vertex="1">
          <mxGeometry width="30" height="30" as="geometry" />
        </mxCell>
        <mxCell id="YoVkF1FacM1gue7G8QHR-201" value="valid_from_dttm" style="shape=partialRectangle;connectable=0;fillColor=none;top=0;left=0;bottom=0;right=0;align=left;spacingLeft=6;overflow=hidden;" parent="YoVkF1FacM1gue7G8QHR-199" vertex="1">
          <mxGeometry x="30" width="150" height="30" as="geometry" />
        </mxCell>
        <mxCell id="YoVkF1FacM1gue7G8QHR-202" value="" style="shape=partialRectangle;collapsible=0;dropTarget=0;pointerEvents=0;fillColor=none;top=0;left=0;bottom=0;right=0;points=[[0,0.5],[1,0.5]];portConstraint=eastwest;" parent="YoVkF1FacM1gue7G8QHR-189" vertex="1">
          <mxGeometry y="150" width="180" height="30" as="geometry" />
        </mxCell>
        <mxCell id="YoVkF1FacM1gue7G8QHR-203" value="" style="shape=partialRectangle;connectable=0;fillColor=none;top=0;left=0;bottom=0;right=0;editable=1;overflow=hidden;" parent="YoVkF1FacM1gue7G8QHR-202" vertex="1">
          <mxGeometry width="30" height="30" as="geometry" />
        </mxCell>
        <mxCell id="YoVkF1FacM1gue7G8QHR-204" value="valid_to_dttm" style="shape=partialRectangle;connectable=0;fillColor=none;top=0;left=0;bottom=0;right=0;align=left;spacingLeft=6;overflow=hidden;" parent="YoVkF1FacM1gue7G8QHR-202" vertex="1">
          <mxGeometry x="30" width="150" height="30" as="geometry" />
        </mxCell>
        <mxCell id="YoVkF1FacM1gue7G8QHR-205" value="" style="edgeStyle=orthogonalEdgeStyle;fontSize=12;html=1;endArrow=ERone;endFill=1;exitX=0;exitY=0.5;exitDx=0;exitDy=0;entryX=0.5;entryY=1;entryDx=0;entryDy=0;" parent="1" source="YoVkF1FacM1gue7G8QHR-37" target="YoVkF1FacM1gue7G8QHR-189" edge="1">
          <mxGeometry width="100" height="100" relative="1" as="geometry">
            <mxPoint x="-906.5" y="-4497" as="sourcePoint" />
            <mxPoint x="-1106.5" y="-4590" as="targetPoint" />
          </mxGeometry>
        </mxCell>
        <mxCell id="YoVkF1FacM1gue7G8QHR-206" value="s_Stores_Basic_Info" style="shape=table;startSize=30;container=1;collapsible=1;childLayout=tableLayout;fixedRows=1;rowLines=0;fontStyle=1;align=center;resizeLast=1;fillColor=#dae8fc;strokeColor=#6c8ebf;" parent="1" vertex="1">
          <mxGeometry x="-1059.5" y="-4850" width="180" height="230" as="geometry" />
        </mxCell>
        <mxCell id="YoVkF1FacM1gue7G8QHR-207" value="" style="shape=partialRectangle;collapsible=0;dropTarget=0;pointerEvents=0;fillColor=none;top=0;left=0;bottom=1;right=0;points=[[0,0.5],[1,0.5]];portConstraint=eastwest;" parent="YoVkF1FacM1gue7G8QHR-206" vertex="1">
          <mxGeometry y="30" width="180" height="30" as="geometry" />
        </mxCell>
        <mxCell id="YoVkF1FacM1gue7G8QHR-208" value="PK" style="shape=partialRectangle;connectable=0;fillColor=none;top=0;left=0;bottom=0;right=0;fontStyle=1;overflow=hidden;" parent="YoVkF1FacM1gue7G8QHR-207" vertex="1">
          <mxGeometry width="30" height="30" as="geometry" />
        </mxCell>
        <mxCell id="YoVkF1FacM1gue7G8QHR-209" value="store_sk" style="shape=partialRectangle;connectable=0;fillColor=none;top=0;left=0;bottom=0;right=0;align=left;spacingLeft=6;fontStyle=5;overflow=hidden;" parent="YoVkF1FacM1gue7G8QHR-207" vertex="1">
          <mxGeometry x="30" width="150" height="30" as="geometry" />
        </mxCell>
        <mxCell id="YoVkF1FacM1gue7G8QHR-210" value="" style="shape=partialRectangle;collapsible=0;dropTarget=0;pointerEvents=0;fillColor=none;top=0;left=0;bottom=0;right=0;points=[[0,0.5],[1,0.5]];portConstraint=eastwest;" parent="YoVkF1FacM1gue7G8QHR-206" vertex="1">
          <mxGeometry y="60" width="180" height="30" as="geometry" />
        </mxCell>
        <mxCell id="YoVkF1FacM1gue7G8QHR-211" value="" style="shape=partialRectangle;connectable=0;fillColor=none;top=0;left=0;bottom=0;right=0;editable=1;overflow=hidden;" parent="YoVkF1FacM1gue7G8QHR-210" vertex="1">
          <mxGeometry width="30" height="30" as="geometry" />
        </mxCell>
        <mxCell id="YoVkF1FacM1gue7G8QHR-212" value="type" style="shape=partialRectangle;connectable=0;fillColor=none;top=0;left=0;bottom=0;right=0;align=left;spacingLeft=6;overflow=hidden;" parent="YoVkF1FacM1gue7G8QHR-210" vertex="1">
          <mxGeometry x="30" width="150" height="30" as="geometry" />
        </mxCell>
        <mxCell id="YoVkF1FacM1gue7G8QHR-224" value="" style="shape=partialRectangle;collapsible=0;dropTarget=0;pointerEvents=0;fillColor=none;top=0;left=0;bottom=0;right=0;points=[[0,0.5],[1,0.5]];portConstraint=eastwest;" parent="YoVkF1FacM1gue7G8QHR-206" vertex="1">
          <mxGeometry y="90" width="180" height="30" as="geometry" />
        </mxCell>
        <mxCell id="YoVkF1FacM1gue7G8QHR-225" value="" style="shape=partialRectangle;connectable=0;fillColor=none;top=0;left=0;bottom=0;right=0;editable=1;overflow=hidden;" parent="YoVkF1FacM1gue7G8QHR-224" vertex="1">
          <mxGeometry width="30" height="30" as="geometry" />
        </mxCell>
        <mxCell id="YoVkF1FacM1gue7G8QHR-226" value="work_hour_start" style="shape=partialRectangle;connectable=0;fillColor=none;top=0;left=0;bottom=0;right=0;align=left;spacingLeft=6;overflow=hidden;" parent="YoVkF1FacM1gue7G8QHR-224" vertex="1">
          <mxGeometry x="30" width="150" height="30" as="geometry" />
        </mxCell>
        <mxCell id="YoVkF1FacM1gue7G8QHR-231" value="" style="shape=partialRectangle;collapsible=0;dropTarget=0;pointerEvents=0;fillColor=none;top=0;left=0;bottom=0;right=0;points=[[0,0.5],[1,0.5]];portConstraint=eastwest;" parent="YoVkF1FacM1gue7G8QHR-206" vertex="1">
          <mxGeometry y="120" width="180" height="30" as="geometry" />
        </mxCell>
        <mxCell id="YoVkF1FacM1gue7G8QHR-232" value="" style="shape=partialRectangle;connectable=0;fillColor=none;top=0;left=0;bottom=0;right=0;editable=1;overflow=hidden;" parent="YoVkF1FacM1gue7G8QHR-231" vertex="1">
          <mxGeometry width="30" height="30" as="geometry" />
        </mxCell>
        <mxCell id="YoVkF1FacM1gue7G8QHR-233" value="work_hour_end" style="shape=partialRectangle;connectable=0;fillColor=none;top=0;left=0;bottom=0;right=0;align=left;spacingLeft=6;overflow=hidden;" parent="YoVkF1FacM1gue7G8QHR-231" vertex="1">
          <mxGeometry x="30" width="150" height="30" as="geometry" />
        </mxCell>
        <mxCell id="YoVkF1FacM1gue7G8QHR-216" value="" style="shape=partialRectangle;collapsible=0;dropTarget=0;pointerEvents=0;fillColor=none;top=0;left=0;bottom=0;right=0;points=[[0,0.5],[1,0.5]];portConstraint=eastwest;" parent="YoVkF1FacM1gue7G8QHR-206" vertex="1">
          <mxGeometry y="150" width="180" height="30" as="geometry" />
        </mxCell>
        <mxCell id="YoVkF1FacM1gue7G8QHR-217" value="PK" style="shape=partialRectangle;connectable=0;fillColor=none;top=0;left=0;bottom=0;right=0;editable=1;overflow=hidden;" parent="YoVkF1FacM1gue7G8QHR-216" vertex="1">
          <mxGeometry width="30" height="30" as="geometry" />
        </mxCell>
        <mxCell id="YoVkF1FacM1gue7G8QHR-218" value="valid_from_dttm" style="shape=partialRectangle;connectable=0;fillColor=none;top=0;left=0;bottom=0;right=0;align=left;spacingLeft=6;overflow=hidden;" parent="YoVkF1FacM1gue7G8QHR-216" vertex="1">
          <mxGeometry x="30" width="150" height="30" as="geometry" />
        </mxCell>
        <mxCell id="YoVkF1FacM1gue7G8QHR-219" value="" style="shape=partialRectangle;collapsible=0;dropTarget=0;pointerEvents=0;fillColor=none;top=0;left=0;bottom=0;right=0;points=[[0,0.5],[1,0.5]];portConstraint=eastwest;" parent="YoVkF1FacM1gue7G8QHR-206" vertex="1">
          <mxGeometry y="180" width="180" height="30" as="geometry" />
        </mxCell>
        <mxCell id="YoVkF1FacM1gue7G8QHR-220" value="" style="shape=partialRectangle;connectable=0;fillColor=none;top=0;left=0;bottom=0;right=0;editable=1;overflow=hidden;" parent="YoVkF1FacM1gue7G8QHR-219" vertex="1">
          <mxGeometry width="30" height="30" as="geometry" />
        </mxCell>
        <mxCell id="YoVkF1FacM1gue7G8QHR-221" value="valid_to_dttm" style="shape=partialRectangle;connectable=0;fillColor=none;top=0;left=0;bottom=0;right=0;align=left;spacingLeft=6;overflow=hidden;" parent="YoVkF1FacM1gue7G8QHR-219" vertex="1">
          <mxGeometry x="30" width="150" height="30" as="geometry" />
        </mxCell>
        <mxCell id="YoVkF1FacM1gue7G8QHR-230" value="" style="edgeStyle=orthogonalEdgeStyle;fontSize=12;html=1;endArrow=ERone;endFill=1;exitX=1;exitY=0.5;exitDx=0;exitDy=0;entryX=0.5;entryY=1;entryDx=0;entryDy=0;" parent="1" source="YoVkF1FacM1gue7G8QHR-37" target="YoVkF1FacM1gue7G8QHR-206" edge="1">
          <mxGeometry width="100" height="100" relative="1" as="geometry">
            <mxPoint x="-936.5" y="-4422" as="sourcePoint" />
            <mxPoint x="-1076.5" y="-4580" as="targetPoint" />
          </mxGeometry>
        </mxCell>
        <mxCell id="YoVkF1FacM1gue7G8QHR-234" value="l_Providers_Stores" style="shape=table;startSize=30;container=1;collapsible=1;childLayout=tableLayout;fixedRows=1;rowLines=0;fontStyle=1;align=center;resizeLast=1;fillColor=#d5e8d4;strokeColor=#82b366;" parent="1" vertex="1">
          <mxGeometry x="-1830" y="-3730" width="180" height="160" as="geometry" />
        </mxCell>
        <mxCell id="YoVkF1FacM1gue7G8QHR-235" value="" style="shape=partialRectangle;collapsible=0;dropTarget=0;pointerEvents=0;fillColor=none;top=0;left=0;bottom=0;right=0;points=[[0,0.5],[1,0.5]];portConstraint=eastwest;" parent="YoVkF1FacM1gue7G8QHR-234" vertex="1">
          <mxGeometry y="30" width="180" height="30" as="geometry" />
        </mxCell>
        <mxCell id="YoVkF1FacM1gue7G8QHR-236" value="PK" style="shape=partialRectangle;connectable=0;fillColor=none;top=0;left=0;bottom=0;right=0;fontStyle=1;overflow=hidden;" parent="YoVkF1FacM1gue7G8QHR-235" vertex="1">
          <mxGeometry width="30" height="30" as="geometry" />
        </mxCell>
        <mxCell id="YoVkF1FacM1gue7G8QHR-237" value="store_sk" style="shape=partialRectangle;connectable=0;fillColor=none;top=0;left=0;bottom=0;right=0;align=left;spacingLeft=6;fontStyle=5;overflow=hidden;" parent="YoVkF1FacM1gue7G8QHR-235" vertex="1">
          <mxGeometry x="30" width="150" height="30" as="geometry" />
        </mxCell>
        <mxCell id="YoVkF1FacM1gue7G8QHR-238" value="" style="shape=partialRectangle;collapsible=0;dropTarget=0;pointerEvents=0;fillColor=none;top=0;left=0;bottom=1;right=0;points=[[0,0.5],[1,0.5]];portConstraint=eastwest;" parent="YoVkF1FacM1gue7G8QHR-234" vertex="1">
          <mxGeometry y="60" width="180" height="30" as="geometry" />
        </mxCell>
        <mxCell id="YoVkF1FacM1gue7G8QHR-239" value="PK" style="shape=partialRectangle;connectable=0;fillColor=none;top=0;left=0;bottom=0;right=0;fontStyle=1;overflow=hidden;" parent="YoVkF1FacM1gue7G8QHR-238" vertex="1">
          <mxGeometry width="30" height="30" as="geometry" />
        </mxCell>
        <mxCell id="YoVkF1FacM1gue7G8QHR-240" value="provider_sk" style="shape=partialRectangle;connectable=0;fillColor=none;top=0;left=0;bottom=0;right=0;align=left;spacingLeft=6;fontStyle=5;overflow=hidden;" parent="YoVkF1FacM1gue7G8QHR-238" vertex="1">
          <mxGeometry x="30" width="150" height="30" as="geometry" />
        </mxCell>
        <mxCell id="YoVkF1FacM1gue7G8QHR-241" value="" style="shape=partialRectangle;collapsible=0;dropTarget=0;pointerEvents=0;fillColor=none;top=0;left=0;bottom=0;right=0;points=[[0,0.5],[1,0.5]];portConstraint=eastwest;" parent="YoVkF1FacM1gue7G8QHR-234" vertex="1">
          <mxGeometry y="90" width="180" height="30" as="geometry" />
        </mxCell>
        <mxCell id="YoVkF1FacM1gue7G8QHR-242" value="" style="shape=partialRectangle;connectable=0;fillColor=none;top=0;left=0;bottom=0;right=0;editable=1;overflow=hidden;" parent="YoVkF1FacM1gue7G8QHR-241" vertex="1">
          <mxGeometry width="30" height="30" as="geometry" />
        </mxCell>
        <mxCell id="YoVkF1FacM1gue7G8QHR-243" value="load_dtm" style="shape=partialRectangle;connectable=0;fillColor=none;top=0;left=0;bottom=0;right=0;align=left;spacingLeft=6;overflow=hidden;" parent="YoVkF1FacM1gue7G8QHR-241" vertex="1">
          <mxGeometry x="30" width="150" height="30" as="geometry" />
        </mxCell>
        <mxCell id="YoVkF1FacM1gue7G8QHR-244" value="" style="shape=partialRectangle;collapsible=0;dropTarget=0;pointerEvents=0;fillColor=none;top=0;left=0;bottom=0;right=0;points=[[0,0.5],[1,0.5]];portConstraint=eastwest;" parent="YoVkF1FacM1gue7G8QHR-234" vertex="1">
          <mxGeometry y="120" width="180" height="30" as="geometry" />
        </mxCell>
        <mxCell id="YoVkF1FacM1gue7G8QHR-245" value="" style="shape=partialRectangle;connectable=0;fillColor=none;top=0;left=0;bottom=0;right=0;editable=1;overflow=hidden;" parent="YoVkF1FacM1gue7G8QHR-244" vertex="1">
          <mxGeometry width="30" height="30" as="geometry" />
        </mxCell>
        <mxCell id="YoVkF1FacM1gue7G8QHR-246" value="source_id" style="shape=partialRectangle;connectable=0;fillColor=none;top=0;left=0;bottom=0;right=0;align=left;spacingLeft=6;overflow=hidden;" parent="YoVkF1FacM1gue7G8QHR-244" vertex="1">
          <mxGeometry x="30" width="150" height="30" as="geometry" />
        </mxCell>
        <mxCell id="AmXbHeYY8j9bT75IsuGP-2" value="" style="edgeStyle=orthogonalEdgeStyle;fontSize=12;html=1;endArrow=ERzeroToMany;endFill=1;entryX=-0.004;entryY=0.128;entryDx=0;entryDy=0;entryPerimeter=0;exitX=0.5;exitY=1;exitDx=0;exitDy=0;" parent="1" source="YoVkF1FacM1gue7G8QHR-23" target="YoVkF1FacM1gue7G8QHR-234" edge="1">
          <mxGeometry width="100" height="100" relative="1" as="geometry">
            <mxPoint x="-2080" y="-3716" as="sourcePoint" />
            <mxPoint x="-1769.8199999999997" y="-3742.2400000000002" as="targetPoint" />
            <Array as="points">
              <mxPoint x="-1930" y="-3710" />
            </Array>
          </mxGeometry>
        </mxCell>
        <mxCell id="AmXbHeYY8j9bT75IsuGP-3" value="" style="edgeStyle=orthogonalEdgeStyle;fontSize=12;html=1;endArrow=ERzeroToMany;endFill=1;entryX=1;entryY=0.118;entryDx=0;entryDy=0;entryPerimeter=0;exitX=0.25;exitY=1;exitDx=0;exitDy=0;" parent="1" source="YoVkF1FacM1gue7G8QHR-36" target="YoVkF1FacM1gue7G8QHR-234" edge="1">
          <mxGeometry width="100" height="100" relative="1" as="geometry">
            <mxPoint x="-1610" y="-4070" as="sourcePoint" />
            <mxPoint x="-1660" y="-3605" as="targetPoint" />
          </mxGeometry>
        </mxCell>
        <mxCell id="AmXbHeYY8j9bT75IsuGP-57" value="at_good_price" style="shape=table;startSize=30;container=1;collapsible=1;childLayout=tableLayout;fixedRows=1;rowLines=0;fontStyle=1;align=center;resizeLast=1;fillColor=#dae8fc;strokeColor=#6c8ebf;" parent="1" vertex="1">
          <mxGeometry x="-2890" y="-3970" width="180" height="190" as="geometry" />
        </mxCell>
        <mxCell id="AmXbHeYY8j9bT75IsuGP-58" value="" style="shape=partialRectangle;collapsible=0;dropTarget=0;pointerEvents=0;fillColor=none;top=0;left=0;bottom=1;right=0;points=[[0,0.5],[1,0.5]];portConstraint=eastwest;" parent="AmXbHeYY8j9bT75IsuGP-57" vertex="1">
          <mxGeometry y="30" width="180" height="30" as="geometry" />
        </mxCell>
        <mxCell id="AmXbHeYY8j9bT75IsuGP-59" value="PK" style="shape=partialRectangle;connectable=0;fillColor=none;top=0;left=0;bottom=0;right=0;fontStyle=1;overflow=hidden;" parent="AmXbHeYY8j9bT75IsuGP-58" vertex="1">
          <mxGeometry width="30" height="30" as="geometry" />
        </mxCell>
        <mxCell id="AmXbHeYY8j9bT75IsuGP-60" value="good_sk" style="shape=partialRectangle;connectable=0;fillColor=none;top=0;left=0;bottom=0;right=0;align=left;spacingLeft=6;fontStyle=5;overflow=hidden;" parent="AmXbHeYY8j9bT75IsuGP-58" vertex="1">
          <mxGeometry x="30" width="150" height="30" as="geometry" />
        </mxCell>
        <mxCell id="AmXbHeYY8j9bT75IsuGP-64" value="" style="shape=partialRectangle;collapsible=0;dropTarget=0;pointerEvents=0;fillColor=none;top=0;left=0;bottom=0;right=0;points=[[0,0.5],[1,0.5]];portConstraint=eastwest;" parent="AmXbHeYY8j9bT75IsuGP-57" vertex="1">
          <mxGeometry y="60" width="180" height="30" as="geometry" />
        </mxCell>
        <mxCell id="AmXbHeYY8j9bT75IsuGP-65" value="" style="shape=partialRectangle;connectable=0;fillColor=none;top=0;left=0;bottom=0;right=0;editable=1;overflow=hidden;" parent="AmXbHeYY8j9bT75IsuGP-64" vertex="1">
          <mxGeometry width="30" height="30" as="geometry" />
        </mxCell>
        <mxCell id="AmXbHeYY8j9bT75IsuGP-66" value="unit_price" style="shape=partialRectangle;connectable=0;fillColor=none;top=0;left=0;bottom=0;right=0;align=left;spacingLeft=6;overflow=hidden;" parent="AmXbHeYY8j9bT75IsuGP-64" vertex="1">
          <mxGeometry x="30" width="150" height="30" as="geometry" />
        </mxCell>
        <mxCell id="AmXbHeYY8j9bT75IsuGP-76" value="" style="shape=partialRectangle;collapsible=0;dropTarget=0;pointerEvents=0;fillColor=none;top=0;left=0;bottom=0;right=0;points=[[0,0.5],[1,0.5]];portConstraint=eastwest;" parent="AmXbHeYY8j9bT75IsuGP-57" vertex="1">
          <mxGeometry y="90" width="180" height="30" as="geometry" />
        </mxCell>
        <mxCell id="AmXbHeYY8j9bT75IsuGP-77" value="" style="shape=partialRectangle;connectable=0;fillColor=none;top=0;left=0;bottom=0;right=0;editable=1;overflow=hidden;" parent="AmXbHeYY8j9bT75IsuGP-76" vertex="1">
          <mxGeometry width="30" height="30" as="geometry" />
        </mxCell>
        <mxCell id="AmXbHeYY8j9bT75IsuGP-78" value="load_from_dttm" style="shape=partialRectangle;connectable=0;fillColor=none;top=0;left=0;bottom=0;right=0;align=left;spacingLeft=6;overflow=hidden;" parent="AmXbHeYY8j9bT75IsuGP-76" vertex="1">
          <mxGeometry x="30" width="150" height="30" as="geometry" />
        </mxCell>
        <mxCell id="5SLXt3DzRqAPuxhB5ycv-177" value="" style="shape=partialRectangle;collapsible=0;dropTarget=0;pointerEvents=0;fillColor=none;top=0;left=0;bottom=0;right=0;points=[[0,0.5],[1,0.5]];portConstraint=eastwest;" vertex="1" parent="AmXbHeYY8j9bT75IsuGP-57">
          <mxGeometry y="120" width="180" height="30" as="geometry" />
        </mxCell>
        <mxCell id="5SLXt3DzRqAPuxhB5ycv-178" value="" style="shape=partialRectangle;connectable=0;fillColor=none;top=0;left=0;bottom=0;right=0;editable=1;overflow=hidden;" vertex="1" parent="5SLXt3DzRqAPuxhB5ycv-177">
          <mxGeometry width="30" height="30" as="geometry" />
        </mxCell>
        <mxCell id="5SLXt3DzRqAPuxhB5ycv-179" value="source_id" style="shape=partialRectangle;connectable=0;fillColor=none;top=0;left=0;bottom=0;right=0;align=left;spacingLeft=6;overflow=hidden;" vertex="1" parent="5SLXt3DzRqAPuxhB5ycv-177">
          <mxGeometry x="30" width="150" height="30" as="geometry" />
        </mxCell>
        <mxCell id="AmXbHeYY8j9bT75IsuGP-79" value="" style="shape=partialRectangle;collapsible=0;dropTarget=0;pointerEvents=0;fillColor=none;top=0;left=0;bottom=0;right=0;points=[[0,0.5],[1,0.5]];portConstraint=eastwest;" parent="AmXbHeYY8j9bT75IsuGP-57" vertex="1">
          <mxGeometry y="150" width="180" height="30" as="geometry" />
        </mxCell>
        <mxCell id="AmXbHeYY8j9bT75IsuGP-80" value="" style="shape=partialRectangle;connectable=0;fillColor=none;top=0;left=0;bottom=0;right=0;editable=1;overflow=hidden;" parent="AmXbHeYY8j9bT75IsuGP-79" vertex="1">
          <mxGeometry width="30" height="30" as="geometry" />
        </mxCell>
        <mxCell id="AmXbHeYY8j9bT75IsuGP-81" value="valid_to_dttm" style="shape=partialRectangle;connectable=0;fillColor=none;top=0;left=0;bottom=0;right=0;align=left;spacingLeft=6;overflow=hidden;" parent="AmXbHeYY8j9bT75IsuGP-79" vertex="1">
          <mxGeometry x="30" width="150" height="30" as="geometry" />
        </mxCell>
        <mxCell id="AmXbHeYY8j9bT75IsuGP-101" value="s_good_fresh_info" style="shape=table;startSize=30;container=1;collapsible=1;childLayout=tableLayout;fixedRows=1;rowLines=0;fontStyle=1;align=center;resizeLast=1;fillColor=#dae8fc;strokeColor=#6c8ebf;" parent="1" vertex="1">
          <mxGeometry x="-2720" y="-2850" width="180" height="190" as="geometry" />
        </mxCell>
        <mxCell id="AmXbHeYY8j9bT75IsuGP-102" value="" style="shape=partialRectangle;collapsible=0;dropTarget=0;pointerEvents=0;fillColor=none;top=0;left=0;bottom=1;right=0;points=[[0,0.5],[1,0.5]];portConstraint=eastwest;" parent="AmXbHeYY8j9bT75IsuGP-101" vertex="1">
          <mxGeometry y="30" width="180" height="30" as="geometry" />
        </mxCell>
        <mxCell id="AmXbHeYY8j9bT75IsuGP-103" value="PK" style="shape=partialRectangle;connectable=0;fillColor=none;top=0;left=0;bottom=0;right=0;fontStyle=1;overflow=hidden;" parent="AmXbHeYY8j9bT75IsuGP-102" vertex="1">
          <mxGeometry width="30" height="30" as="geometry" />
        </mxCell>
        <mxCell id="AmXbHeYY8j9bT75IsuGP-104" value="good_sk" style="shape=partialRectangle;connectable=0;fillColor=none;top=0;left=0;bottom=0;right=0;align=left;spacingLeft=6;fontStyle=5;overflow=hidden;" parent="AmXbHeYY8j9bT75IsuGP-102" vertex="1">
          <mxGeometry x="30" width="150" height="30" as="geometry" />
        </mxCell>
        <mxCell id="AmXbHeYY8j9bT75IsuGP-105" value="" style="shape=partialRectangle;collapsible=0;dropTarget=0;pointerEvents=0;fillColor=none;top=0;left=0;bottom=0;right=0;points=[[0,0.5],[1,0.5]];portConstraint=eastwest;" parent="AmXbHeYY8j9bT75IsuGP-101" vertex="1">
          <mxGeometry y="60" width="180" height="30" as="geometry" />
        </mxCell>
        <mxCell id="AmXbHeYY8j9bT75IsuGP-106" value="" style="shape=partialRectangle;connectable=0;fillColor=none;top=0;left=0;bottom=0;right=0;editable=1;overflow=hidden;" parent="AmXbHeYY8j9bT75IsuGP-105" vertex="1">
          <mxGeometry width="30" height="30" as="geometry" />
        </mxCell>
        <mxCell id="AmXbHeYY8j9bT75IsuGP-107" value="fresh_to_dttm" style="shape=partialRectangle;connectable=0;fillColor=none;top=0;left=0;bottom=0;right=0;align=left;spacingLeft=6;overflow=hidden;" parent="AmXbHeYY8j9bT75IsuGP-105" vertex="1">
          <mxGeometry x="30" width="150" height="30" as="geometry" />
        </mxCell>
        <mxCell id="5SLXt3DzRqAPuxhB5ycv-168" value="" style="shape=partialRectangle;collapsible=0;dropTarget=0;pointerEvents=0;fillColor=none;top=0;left=0;bottom=0;right=0;points=[[0,0.5],[1,0.5]];portConstraint=eastwest;" vertex="1" parent="AmXbHeYY8j9bT75IsuGP-101">
          <mxGeometry y="90" width="180" height="30" as="geometry" />
        </mxCell>
        <mxCell id="5SLXt3DzRqAPuxhB5ycv-169" value="" style="shape=partialRectangle;connectable=0;fillColor=none;top=0;left=0;bottom=0;right=0;editable=1;overflow=hidden;" vertex="1" parent="5SLXt3DzRqAPuxhB5ycv-168">
          <mxGeometry width="30" height="30" as="geometry" />
        </mxCell>
        <mxCell id="5SLXt3DzRqAPuxhB5ycv-170" value="source_id" style="shape=partialRectangle;connectable=0;fillColor=none;top=0;left=0;bottom=0;right=0;align=left;spacingLeft=6;overflow=hidden;" vertex="1" parent="5SLXt3DzRqAPuxhB5ycv-168">
          <mxGeometry x="30" width="150" height="30" as="geometry" />
        </mxCell>
        <mxCell id="AmXbHeYY8j9bT75IsuGP-108" value="" style="shape=partialRectangle;collapsible=0;dropTarget=0;pointerEvents=0;fillColor=none;top=0;left=0;bottom=0;right=0;points=[[0,0.5],[1,0.5]];portConstraint=eastwest;" parent="AmXbHeYY8j9bT75IsuGP-101" vertex="1">
          <mxGeometry y="120" width="180" height="30" as="geometry" />
        </mxCell>
        <mxCell id="AmXbHeYY8j9bT75IsuGP-109" value="" style="shape=partialRectangle;connectable=0;fillColor=none;top=0;left=0;bottom=0;right=0;editable=1;overflow=hidden;" parent="AmXbHeYY8j9bT75IsuGP-108" vertex="1">
          <mxGeometry width="30" height="30" as="geometry" />
        </mxCell>
        <mxCell id="AmXbHeYY8j9bT75IsuGP-110" value="load_dttm" style="shape=partialRectangle;connectable=0;fillColor=none;top=0;left=0;bottom=0;right=0;align=left;spacingLeft=6;overflow=hidden;" parent="AmXbHeYY8j9bT75IsuGP-108" vertex="1">
          <mxGeometry x="30" width="150" height="30" as="geometry" />
        </mxCell>
        <mxCell id="AmXbHeYY8j9bT75IsuGP-111" value="" style="shape=partialRectangle;collapsible=0;dropTarget=0;pointerEvents=0;fillColor=none;top=0;left=0;bottom=0;right=0;points=[[0,0.5],[1,0.5]];portConstraint=eastwest;" parent="AmXbHeYY8j9bT75IsuGP-101" vertex="1">
          <mxGeometry y="150" width="180" height="30" as="geometry" />
        </mxCell>
        <mxCell id="AmXbHeYY8j9bT75IsuGP-112" value="" style="shape=partialRectangle;connectable=0;fillColor=none;top=0;left=0;bottom=0;right=0;editable=1;overflow=hidden;" parent="AmXbHeYY8j9bT75IsuGP-111" vertex="1">
          <mxGeometry width="30" height="30" as="geometry" />
        </mxCell>
        <mxCell id="AmXbHeYY8j9bT75IsuGP-113" value="valid_to_dttm" style="shape=partialRectangle;connectable=0;fillColor=none;top=0;left=0;bottom=0;right=0;align=left;spacingLeft=6;overflow=hidden;" parent="AmXbHeYY8j9bT75IsuGP-111" vertex="1">
          <mxGeometry x="30" width="150" height="30" as="geometry" />
        </mxCell>
        <mxCell id="AmXbHeYY8j9bT75IsuGP-115" value="" style="edgeStyle=orthogonalEdgeStyle;fontSize=12;html=1;endArrow=ERzeroToMany;endFill=1;exitX=0;exitY=0.5;exitDx=0;exitDy=0;entryX=1.004;entryY=0.13;entryDx=0;entryDy=0;curved=1;entryPerimeter=0;" parent="1" source="YoVkF1FacM1gue7G8QHR-59" edge="1" target="AmXbHeYY8j9bT75IsuGP-101">
          <mxGeometry width="100" height="100" relative="1" as="geometry">
            <mxPoint x="-2280" y="-3130" as="sourcePoint" />
            <mxPoint x="-2390" y="-3125" as="targetPoint" />
          </mxGeometry>
        </mxCell>
        <mxCell id="AmXbHeYY8j9bT75IsuGP-130" value="" style="edgeStyle=orthogonalEdgeStyle;fontSize=12;html=1;endArrow=ERzeroToMany;endFill=1;entryX=0.5;entryY=1;entryDx=0;entryDy=0;exitX=1;exitY=0.5;exitDx=0;exitDy=0;" parent="1" source="YoVkF1FacM1gue7G8QHR-50" target="AmXbHeYY8j9bT75IsuGP-131" edge="1">
          <mxGeometry width="100" height="100" relative="1" as="geometry">
            <mxPoint x="-2020" y="-3260" as="sourcePoint" />
            <mxPoint x="-2070" y="-3410" as="targetPoint" />
          </mxGeometry>
        </mxCell>
        <mxCell id="AmXbHeYY8j9bT75IsuGP-131" value="l_Providers_Goods" style="shape=table;startSize=30;container=1;collapsible=1;childLayout=tableLayout;fixedRows=1;rowLines=0;fontStyle=1;align=center;resizeLast=1;fillColor=#d5e8d4;strokeColor=#82b366;" parent="1" vertex="1">
          <mxGeometry x="-2120" y="-3620" width="180" height="160" as="geometry" />
        </mxCell>
        <mxCell id="AmXbHeYY8j9bT75IsuGP-132" value="" style="shape=partialRectangle;collapsible=0;dropTarget=0;pointerEvents=0;fillColor=none;top=0;left=0;bottom=0;right=0;points=[[0,0.5],[1,0.5]];portConstraint=eastwest;" parent="AmXbHeYY8j9bT75IsuGP-131" vertex="1">
          <mxGeometry y="30" width="180" height="30" as="geometry" />
        </mxCell>
        <mxCell id="AmXbHeYY8j9bT75IsuGP-133" value="PK" style="shape=partialRectangle;connectable=0;fillColor=none;top=0;left=0;bottom=0;right=0;fontStyle=1;overflow=hidden;" parent="AmXbHeYY8j9bT75IsuGP-132" vertex="1">
          <mxGeometry width="30" height="30" as="geometry" />
        </mxCell>
        <mxCell id="AmXbHeYY8j9bT75IsuGP-134" value="good_sk" style="shape=partialRectangle;connectable=0;fillColor=none;top=0;left=0;bottom=0;right=0;align=left;spacingLeft=6;fontStyle=5;overflow=hidden;" parent="AmXbHeYY8j9bT75IsuGP-132" vertex="1">
          <mxGeometry x="30" width="150" height="30" as="geometry" />
        </mxCell>
        <mxCell id="AmXbHeYY8j9bT75IsuGP-135" value="" style="shape=partialRectangle;collapsible=0;dropTarget=0;pointerEvents=0;fillColor=none;top=0;left=0;bottom=1;right=0;points=[[0,0.5],[1,0.5]];portConstraint=eastwest;" parent="AmXbHeYY8j9bT75IsuGP-131" vertex="1">
          <mxGeometry y="60" width="180" height="30" as="geometry" />
        </mxCell>
        <mxCell id="AmXbHeYY8j9bT75IsuGP-136" value="PK" style="shape=partialRectangle;connectable=0;fillColor=none;top=0;left=0;bottom=0;right=0;fontStyle=1;overflow=hidden;" parent="AmXbHeYY8j9bT75IsuGP-135" vertex="1">
          <mxGeometry width="30" height="30" as="geometry" />
        </mxCell>
        <mxCell id="AmXbHeYY8j9bT75IsuGP-137" value="provider_sk" style="shape=partialRectangle;connectable=0;fillColor=none;top=0;left=0;bottom=0;right=0;align=left;spacingLeft=6;fontStyle=5;overflow=hidden;" parent="AmXbHeYY8j9bT75IsuGP-135" vertex="1">
          <mxGeometry x="30" width="150" height="30" as="geometry" />
        </mxCell>
        <mxCell id="AmXbHeYY8j9bT75IsuGP-138" value="" style="shape=partialRectangle;collapsible=0;dropTarget=0;pointerEvents=0;fillColor=none;top=0;left=0;bottom=0;right=0;points=[[0,0.5],[1,0.5]];portConstraint=eastwest;" parent="AmXbHeYY8j9bT75IsuGP-131" vertex="1">
          <mxGeometry y="90" width="180" height="30" as="geometry" />
        </mxCell>
        <mxCell id="AmXbHeYY8j9bT75IsuGP-139" value="" style="shape=partialRectangle;connectable=0;fillColor=none;top=0;left=0;bottom=0;right=0;editable=1;overflow=hidden;" parent="AmXbHeYY8j9bT75IsuGP-138" vertex="1">
          <mxGeometry width="30" height="30" as="geometry" />
        </mxCell>
        <mxCell id="AmXbHeYY8j9bT75IsuGP-140" value="load_dtm" style="shape=partialRectangle;connectable=0;fillColor=none;top=0;left=0;bottom=0;right=0;align=left;spacingLeft=6;overflow=hidden;" parent="AmXbHeYY8j9bT75IsuGP-138" vertex="1">
          <mxGeometry x="30" width="150" height="30" as="geometry" />
        </mxCell>
        <mxCell id="AmXbHeYY8j9bT75IsuGP-141" value="" style="shape=partialRectangle;collapsible=0;dropTarget=0;pointerEvents=0;fillColor=none;top=0;left=0;bottom=0;right=0;points=[[0,0.5],[1,0.5]];portConstraint=eastwest;" parent="AmXbHeYY8j9bT75IsuGP-131" vertex="1">
          <mxGeometry y="120" width="180" height="30" as="geometry" />
        </mxCell>
        <mxCell id="AmXbHeYY8j9bT75IsuGP-142" value="" style="shape=partialRectangle;connectable=0;fillColor=none;top=0;left=0;bottom=0;right=0;editable=1;overflow=hidden;" parent="AmXbHeYY8j9bT75IsuGP-141" vertex="1">
          <mxGeometry width="30" height="30" as="geometry" />
        </mxCell>
        <mxCell id="AmXbHeYY8j9bT75IsuGP-143" value="source_id" style="shape=partialRectangle;connectable=0;fillColor=none;top=0;left=0;bottom=0;right=0;align=left;spacingLeft=6;overflow=hidden;" parent="AmXbHeYY8j9bT75IsuGP-141" vertex="1">
          <mxGeometry x="30" width="150" height="30" as="geometry" />
        </mxCell>
        <mxCell id="AmXbHeYY8j9bT75IsuGP-144" value="" style="edgeStyle=orthogonalEdgeStyle;fontSize=12;html=1;endArrow=ERzeroToMany;endFill=1;entryX=0.5;entryY=0;entryDx=0;entryDy=0;" parent="1" target="AmXbHeYY8j9bT75IsuGP-131" edge="1">
          <mxGeometry width="100" height="100" relative="1" as="geometry">
            <mxPoint x="-1970" y="-4120" as="sourcePoint" />
            <mxPoint x="-1760" y="-3708.24" as="targetPoint" />
            <Array as="points">
              <mxPoint x="-1960" y="-4120" />
              <mxPoint x="-1960" y="-3870" />
              <mxPoint x="-2030" y="-3870" />
            </Array>
          </mxGeometry>
        </mxCell>
        <mxCell id="AmXbHeYY8j9bT75IsuGP-145" value="l_Goods_In_Stocks" style="shape=table;startSize=30;container=1;collapsible=1;childLayout=tableLayout;fixedRows=1;rowLines=0;fontStyle=1;align=center;resizeLast=1;fillColor=#d5e8d4;strokeColor=#82b366;" parent="1" vertex="1">
          <mxGeometry x="-1830" y="-3420" width="180" height="160" as="geometry" />
        </mxCell>
        <mxCell id="AmXbHeYY8j9bT75IsuGP-146" value="" style="shape=partialRectangle;collapsible=0;dropTarget=0;pointerEvents=0;fillColor=none;top=0;left=0;bottom=0;right=0;points=[[0,0.5],[1,0.5]];portConstraint=eastwest;" parent="AmXbHeYY8j9bT75IsuGP-145" vertex="1">
          <mxGeometry y="30" width="180" height="30" as="geometry" />
        </mxCell>
        <mxCell id="AmXbHeYY8j9bT75IsuGP-147" value="PK" style="shape=partialRectangle;connectable=0;fillColor=none;top=0;left=0;bottom=0;right=0;fontStyle=1;overflow=hidden;" parent="AmXbHeYY8j9bT75IsuGP-146" vertex="1">
          <mxGeometry width="30" height="30" as="geometry" />
        </mxCell>
        <mxCell id="AmXbHeYY8j9bT75IsuGP-148" value="goods_sk" style="shape=partialRectangle;connectable=0;fillColor=none;top=0;left=0;bottom=0;right=0;align=left;spacingLeft=6;fontStyle=5;overflow=hidden;" parent="AmXbHeYY8j9bT75IsuGP-146" vertex="1">
          <mxGeometry x="30" width="150" height="30" as="geometry" />
        </mxCell>
        <mxCell id="AmXbHeYY8j9bT75IsuGP-149" value="" style="shape=partialRectangle;collapsible=0;dropTarget=0;pointerEvents=0;fillColor=none;top=0;left=0;bottom=1;right=0;points=[[0,0.5],[1,0.5]];portConstraint=eastwest;" parent="AmXbHeYY8j9bT75IsuGP-145" vertex="1">
          <mxGeometry y="60" width="180" height="30" as="geometry" />
        </mxCell>
        <mxCell id="AmXbHeYY8j9bT75IsuGP-150" value="PK" style="shape=partialRectangle;connectable=0;fillColor=none;top=0;left=0;bottom=0;right=0;fontStyle=1;overflow=hidden;" parent="AmXbHeYY8j9bT75IsuGP-149" vertex="1">
          <mxGeometry width="30" height="30" as="geometry" />
        </mxCell>
        <mxCell id="AmXbHeYY8j9bT75IsuGP-151" value="stores_sk" style="shape=partialRectangle;connectable=0;fillColor=none;top=0;left=0;bottom=0;right=0;align=left;spacingLeft=6;fontStyle=5;overflow=hidden;" parent="AmXbHeYY8j9bT75IsuGP-149" vertex="1">
          <mxGeometry x="30" width="150" height="30" as="geometry" />
        </mxCell>
        <mxCell id="AmXbHeYY8j9bT75IsuGP-152" value="" style="shape=partialRectangle;collapsible=0;dropTarget=0;pointerEvents=0;fillColor=none;top=0;left=0;bottom=0;right=0;points=[[0,0.5],[1,0.5]];portConstraint=eastwest;" parent="AmXbHeYY8j9bT75IsuGP-145" vertex="1">
          <mxGeometry y="90" width="180" height="30" as="geometry" />
        </mxCell>
        <mxCell id="AmXbHeYY8j9bT75IsuGP-153" value="" style="shape=partialRectangle;connectable=0;fillColor=none;top=0;left=0;bottom=0;right=0;editable=1;overflow=hidden;" parent="AmXbHeYY8j9bT75IsuGP-152" vertex="1">
          <mxGeometry width="30" height="30" as="geometry" />
        </mxCell>
        <mxCell id="AmXbHeYY8j9bT75IsuGP-154" value="load_dtm" style="shape=partialRectangle;connectable=0;fillColor=none;top=0;left=0;bottom=0;right=0;align=left;spacingLeft=6;overflow=hidden;" parent="AmXbHeYY8j9bT75IsuGP-152" vertex="1">
          <mxGeometry x="30" width="150" height="30" as="geometry" />
        </mxCell>
        <mxCell id="AmXbHeYY8j9bT75IsuGP-155" value="" style="shape=partialRectangle;collapsible=0;dropTarget=0;pointerEvents=0;fillColor=none;top=0;left=0;bottom=0;right=0;points=[[0,0.5],[1,0.5]];portConstraint=eastwest;" parent="AmXbHeYY8j9bT75IsuGP-145" vertex="1">
          <mxGeometry y="120" width="180" height="30" as="geometry" />
        </mxCell>
        <mxCell id="AmXbHeYY8j9bT75IsuGP-156" value="" style="shape=partialRectangle;connectable=0;fillColor=none;top=0;left=0;bottom=0;right=0;editable=1;overflow=hidden;" parent="AmXbHeYY8j9bT75IsuGP-155" vertex="1">
          <mxGeometry width="30" height="30" as="geometry" />
        </mxCell>
        <mxCell id="AmXbHeYY8j9bT75IsuGP-157" value="source_id" style="shape=partialRectangle;connectable=0;fillColor=none;top=0;left=0;bottom=0;right=0;align=left;spacingLeft=6;overflow=hidden;" parent="AmXbHeYY8j9bT75IsuGP-155" vertex="1">
          <mxGeometry x="30" width="150" height="30" as="geometry" />
        </mxCell>
        <mxCell id="AmXbHeYY8j9bT75IsuGP-158" value="" style="edgeStyle=orthogonalEdgeStyle;fontSize=12;html=1;endArrow=ERzeroToMany;endFill=1;entryX=0.009;entryY=-0.244;entryDx=0;entryDy=0;entryPerimeter=0;exitX=1;exitY=0.5;exitDx=0;exitDy=0;" parent="1" source="YoVkF1FacM1gue7G8QHR-56" target="AmXbHeYY8j9bT75IsuGP-146" edge="1">
          <mxGeometry width="100" height="100" relative="1" as="geometry">
            <mxPoint x="-1970" y="-3280" as="sourcePoint" />
            <mxPoint x="-2110" y="-3420" as="targetPoint" />
          </mxGeometry>
        </mxCell>
        <mxCell id="AmXbHeYY8j9bT75IsuGP-159" value="" style="edgeStyle=orthogonalEdgeStyle;fontSize=12;html=1;endArrow=ERzeroToMany;endFill=1;entryX=1;entryY=0.125;entryDx=0;entryDy=0;entryPerimeter=0;exitX=0.5;exitY=1;exitDx=0;exitDy=0;" parent="1" source="YoVkF1FacM1gue7G8QHR-36" target="AmXbHeYY8j9bT75IsuGP-145" edge="1">
          <mxGeometry width="100" height="100" relative="1" as="geometry">
            <mxPoint x="-1480" y="-4120" as="sourcePoint" />
            <mxPoint x="-1490" y="-3691.12" as="targetPoint" />
          </mxGeometry>
        </mxCell>
        <mxCell id="AmXbHeYY8j9bT75IsuGP-160" value="s_Loyalty_Basic_Info" style="shape=table;startSize=30;container=1;collapsible=1;childLayout=tableLayout;fixedRows=1;rowLines=0;fontStyle=1;align=center;resizeLast=1;fillColor=#dae8fc;strokeColor=#6c8ebf;" parent="1" vertex="1">
          <mxGeometry x="-203" y="-4260" width="170" height="220" as="geometry" />
        </mxCell>
        <mxCell id="AmXbHeYY8j9bT75IsuGP-161" value="" style="shape=partialRectangle;collapsible=0;dropTarget=0;pointerEvents=0;fillColor=none;top=0;left=0;bottom=1;right=0;points=[[0,0.5],[1,0.5]];portConstraint=eastwest;" parent="AmXbHeYY8j9bT75IsuGP-160" vertex="1">
          <mxGeometry y="30" width="170" height="30" as="geometry" />
        </mxCell>
        <mxCell id="AmXbHeYY8j9bT75IsuGP-162" value="PK" style="shape=partialRectangle;connectable=0;fillColor=none;top=0;left=0;bottom=0;right=0;fontStyle=1;overflow=hidden;" parent="AmXbHeYY8j9bT75IsuGP-161" vertex="1">
          <mxGeometry width="30" height="30" as="geometry" />
        </mxCell>
        <mxCell id="AmXbHeYY8j9bT75IsuGP-163" value="loyalty_program_sk" style="shape=partialRectangle;connectable=0;fillColor=none;top=0;left=0;bottom=0;right=0;align=left;spacingLeft=6;fontStyle=5;overflow=hidden;" parent="AmXbHeYY8j9bT75IsuGP-161" vertex="1">
          <mxGeometry x="30" width="140" height="30" as="geometry" />
        </mxCell>
        <mxCell id="AmXbHeYY8j9bT75IsuGP-164" value="" style="shape=partialRectangle;collapsible=0;dropTarget=0;pointerEvents=0;fillColor=none;top=0;left=0;bottom=0;right=0;points=[[0,0.5],[1,0.5]];portConstraint=eastwest;" parent="AmXbHeYY8j9bT75IsuGP-160" vertex="1">
          <mxGeometry y="60" width="170" height="30" as="geometry" />
        </mxCell>
        <mxCell id="AmXbHeYY8j9bT75IsuGP-165" value="" style="shape=partialRectangle;connectable=0;fillColor=none;top=0;left=0;bottom=0;right=0;editable=1;overflow=hidden;" parent="AmXbHeYY8j9bT75IsuGP-164" vertex="1">
          <mxGeometry width="30" height="30" as="geometry" />
        </mxCell>
        <mxCell id="AmXbHeYY8j9bT75IsuGP-166" value="description" style="shape=partialRectangle;connectable=0;fillColor=none;top=0;left=0;bottom=0;right=0;align=left;spacingLeft=6;overflow=hidden;" parent="AmXbHeYY8j9bT75IsuGP-164" vertex="1">
          <mxGeometry x="30" width="140" height="30" as="geometry" />
        </mxCell>
        <mxCell id="AmXbHeYY8j9bT75IsuGP-167" value="" style="shape=partialRectangle;collapsible=0;dropTarget=0;pointerEvents=0;fillColor=none;top=0;left=0;bottom=0;right=0;points=[[0,0.5],[1,0.5]];portConstraint=eastwest;" parent="AmXbHeYY8j9bT75IsuGP-160" vertex="1">
          <mxGeometry y="90" width="170" height="30" as="geometry" />
        </mxCell>
        <mxCell id="AmXbHeYY8j9bT75IsuGP-168" value="" style="shape=partialRectangle;connectable=0;fillColor=none;top=0;left=0;bottom=0;right=0;editable=1;overflow=hidden;" parent="AmXbHeYY8j9bT75IsuGP-167" vertex="1">
          <mxGeometry width="30" height="30" as="geometry" />
        </mxCell>
        <mxCell id="AmXbHeYY8j9bT75IsuGP-169" value="name" style="shape=partialRectangle;connectable=0;fillColor=none;top=0;left=0;bottom=0;right=0;align=left;spacingLeft=6;overflow=hidden;" parent="AmXbHeYY8j9bT75IsuGP-167" vertex="1">
          <mxGeometry x="30" width="140" height="30" as="geometry" />
        </mxCell>
        <mxCell id="AmXbHeYY8j9bT75IsuGP-194" value="" style="shape=partialRectangle;collapsible=0;dropTarget=0;pointerEvents=0;fillColor=none;top=0;left=0;bottom=0;right=0;points=[[0,0.5],[1,0.5]];portConstraint=eastwest;" parent="AmXbHeYY8j9bT75IsuGP-160" vertex="1">
          <mxGeometry y="120" width="170" height="30" as="geometry" />
        </mxCell>
        <mxCell id="AmXbHeYY8j9bT75IsuGP-195" value="" style="shape=partialRectangle;connectable=0;fillColor=none;top=0;left=0;bottom=0;right=0;editable=1;overflow=hidden;" parent="AmXbHeYY8j9bT75IsuGP-194" vertex="1">
          <mxGeometry width="30" height="30" as="geometry" />
        </mxCell>
        <mxCell id="AmXbHeYY8j9bT75IsuGP-196" value="rules" style="shape=partialRectangle;connectable=0;fillColor=none;top=0;left=0;bottom=0;right=0;align=left;spacingLeft=6;overflow=hidden;" parent="AmXbHeYY8j9bT75IsuGP-194" vertex="1">
          <mxGeometry x="30" width="140" height="30" as="geometry" />
        </mxCell>
        <mxCell id="AmXbHeYY8j9bT75IsuGP-170" value="" style="shape=partialRectangle;collapsible=0;dropTarget=0;pointerEvents=0;fillColor=none;top=0;left=0;bottom=0;right=0;points=[[0,0.5],[1,0.5]];portConstraint=eastwest;" parent="AmXbHeYY8j9bT75IsuGP-160" vertex="1">
          <mxGeometry y="150" width="170" height="30" as="geometry" />
        </mxCell>
        <mxCell id="AmXbHeYY8j9bT75IsuGP-171" value="PK" style="shape=partialRectangle;connectable=0;fillColor=none;top=0;left=0;bottom=0;right=0;editable=1;overflow=hidden;" parent="AmXbHeYY8j9bT75IsuGP-170" vertex="1">
          <mxGeometry width="30" height="30" as="geometry" />
        </mxCell>
        <mxCell id="AmXbHeYY8j9bT75IsuGP-172" value="valid_from_dttm" style="shape=partialRectangle;connectable=0;fillColor=none;top=0;left=0;bottom=0;right=0;align=left;spacingLeft=6;overflow=hidden;" parent="AmXbHeYY8j9bT75IsuGP-170" vertex="1">
          <mxGeometry x="30" width="140" height="30" as="geometry" />
        </mxCell>
        <mxCell id="AmXbHeYY8j9bT75IsuGP-173" value="" style="shape=partialRectangle;collapsible=0;dropTarget=0;pointerEvents=0;fillColor=none;top=0;left=0;bottom=0;right=0;points=[[0,0.5],[1,0.5]];portConstraint=eastwest;" parent="AmXbHeYY8j9bT75IsuGP-160" vertex="1">
          <mxGeometry y="180" width="170" height="30" as="geometry" />
        </mxCell>
        <mxCell id="AmXbHeYY8j9bT75IsuGP-174" value="" style="shape=partialRectangle;connectable=0;fillColor=none;top=0;left=0;bottom=0;right=0;editable=1;overflow=hidden;" parent="AmXbHeYY8j9bT75IsuGP-173" vertex="1">
          <mxGeometry width="30" height="30" as="geometry" />
        </mxCell>
        <mxCell id="AmXbHeYY8j9bT75IsuGP-175" value="valid_to_dttm" style="shape=partialRectangle;connectable=0;fillColor=none;top=0;left=0;bottom=0;right=0;align=left;spacingLeft=6;overflow=hidden;" parent="AmXbHeYY8j9bT75IsuGP-173" vertex="1">
          <mxGeometry x="30" width="140" height="30" as="geometry" />
        </mxCell>
        <mxCell id="AmXbHeYY8j9bT75IsuGP-176" value="s_Loyalty_Discount_Info" style="shape=table;startSize=30;container=1;collapsible=1;childLayout=tableLayout;fixedRows=1;rowLines=0;fontStyle=1;align=center;resizeLast=1;fillColor=#dae8fc;strokeColor=#6c8ebf;" parent="1" vertex="1">
          <mxGeometry x="-463" y="-4275" width="190" height="280" as="geometry" />
        </mxCell>
        <mxCell id="AmXbHeYY8j9bT75IsuGP-177" value="" style="shape=partialRectangle;collapsible=0;dropTarget=0;pointerEvents=0;fillColor=none;top=0;left=0;bottom=1;right=0;points=[[0,0.5],[1,0.5]];portConstraint=eastwest;" parent="AmXbHeYY8j9bT75IsuGP-176" vertex="1">
          <mxGeometry y="30" width="190" height="30" as="geometry" />
        </mxCell>
        <mxCell id="AmXbHeYY8j9bT75IsuGP-178" value="PK" style="shape=partialRectangle;connectable=0;fillColor=none;top=0;left=0;bottom=0;right=0;fontStyle=1;overflow=hidden;" parent="AmXbHeYY8j9bT75IsuGP-177" vertex="1">
          <mxGeometry width="30" height="30" as="geometry" />
        </mxCell>
        <mxCell id="AmXbHeYY8j9bT75IsuGP-179" value="loyalty_program_sk" style="shape=partialRectangle;connectable=0;fillColor=none;top=0;left=0;bottom=0;right=0;align=left;spacingLeft=6;fontStyle=5;overflow=hidden;" parent="AmXbHeYY8j9bT75IsuGP-177" vertex="1">
          <mxGeometry x="30" width="160" height="30" as="geometry" />
        </mxCell>
        <mxCell id="AmXbHeYY8j9bT75IsuGP-180" value="" style="shape=partialRectangle;collapsible=0;dropTarget=0;pointerEvents=0;fillColor=none;top=0;left=0;bottom=0;right=0;points=[[0,0.5],[1,0.5]];portConstraint=eastwest;" parent="AmXbHeYY8j9bT75IsuGP-176" vertex="1">
          <mxGeometry y="60" width="190" height="30" as="geometry" />
        </mxCell>
        <mxCell id="AmXbHeYY8j9bT75IsuGP-181" value="" style="shape=partialRectangle;connectable=0;fillColor=none;top=0;left=0;bottom=0;right=0;editable=1;overflow=hidden;" parent="AmXbHeYY8j9bT75IsuGP-180" vertex="1">
          <mxGeometry width="30" height="30" as="geometry" />
        </mxCell>
        <mxCell id="AmXbHeYY8j9bT75IsuGP-182" value="name" style="shape=partialRectangle;connectable=0;fillColor=none;top=0;left=0;bottom=0;right=0;align=left;spacingLeft=6;overflow=hidden;" parent="AmXbHeYY8j9bT75IsuGP-180" vertex="1">
          <mxGeometry x="30" width="160" height="30" as="geometry" />
        </mxCell>
        <mxCell id="AmXbHeYY8j9bT75IsuGP-183" value="" style="shape=partialRectangle;collapsible=0;dropTarget=0;pointerEvents=0;fillColor=none;top=0;left=0;bottom=0;right=0;points=[[0,0.5],[1,0.5]];portConstraint=eastwest;" parent="AmXbHeYY8j9bT75IsuGP-176" vertex="1">
          <mxGeometry y="90" width="190" height="30" as="geometry" />
        </mxCell>
        <mxCell id="AmXbHeYY8j9bT75IsuGP-184" value="" style="shape=partialRectangle;connectable=0;fillColor=none;top=0;left=0;bottom=0;right=0;editable=1;overflow=hidden;" parent="AmXbHeYY8j9bT75IsuGP-183" vertex="1">
          <mxGeometry width="30" height="30" as="geometry" />
        </mxCell>
        <mxCell id="AmXbHeYY8j9bT75IsuGP-185" value="discount_for_goods" style="shape=partialRectangle;connectable=0;fillColor=none;top=0;left=0;bottom=0;right=0;align=left;spacingLeft=6;overflow=hidden;" parent="AmXbHeYY8j9bT75IsuGP-183" vertex="1">
          <mxGeometry x="30" width="160" height="30" as="geometry" />
        </mxCell>
        <mxCell id="AmXbHeYY8j9bT75IsuGP-238" value="" style="shape=partialRectangle;collapsible=0;dropTarget=0;pointerEvents=0;fillColor=none;top=0;left=0;bottom=0;right=0;points=[[0,0.5],[1,0.5]];portConstraint=eastwest;" parent="AmXbHeYY8j9bT75IsuGP-176" vertex="1">
          <mxGeometry y="120" width="190" height="30" as="geometry" />
        </mxCell>
        <mxCell id="AmXbHeYY8j9bT75IsuGP-239" value="" style="shape=partialRectangle;connectable=0;fillColor=none;top=0;left=0;bottom=0;right=0;editable=1;overflow=hidden;" parent="AmXbHeYY8j9bT75IsuGP-238" vertex="1">
          <mxGeometry width="30" height="30" as="geometry" />
        </mxCell>
        <mxCell id="AmXbHeYY8j9bT75IsuGP-240" value="discount_for_goods_perc" style="shape=partialRectangle;connectable=0;fillColor=none;top=0;left=0;bottom=0;right=0;align=left;spacingLeft=6;overflow=hidden;" parent="AmXbHeYY8j9bT75IsuGP-238" vertex="1">
          <mxGeometry x="30" width="160" height="30" as="geometry" />
        </mxCell>
        <mxCell id="AmXbHeYY8j9bT75IsuGP-244" value="" style="shape=partialRectangle;collapsible=0;dropTarget=0;pointerEvents=0;fillColor=none;top=0;left=0;bottom=0;right=0;points=[[0,0.5],[1,0.5]];portConstraint=eastwest;" parent="AmXbHeYY8j9bT75IsuGP-176" vertex="1">
          <mxGeometry y="150" width="190" height="30" as="geometry" />
        </mxCell>
        <mxCell id="AmXbHeYY8j9bT75IsuGP-245" value="" style="shape=partialRectangle;connectable=0;fillColor=none;top=0;left=0;bottom=0;right=0;editable=1;overflow=hidden;" parent="AmXbHeYY8j9bT75IsuGP-244" vertex="1">
          <mxGeometry width="30" height="30" as="geometry" />
        </mxCell>
        <mxCell id="AmXbHeYY8j9bT75IsuGP-246" value="discount_for_delivery" style="shape=partialRectangle;connectable=0;fillColor=none;top=0;left=0;bottom=0;right=0;align=left;spacingLeft=6;overflow=hidden;" parent="AmXbHeYY8j9bT75IsuGP-244" vertex="1">
          <mxGeometry x="30" width="160" height="30" as="geometry" />
        </mxCell>
        <mxCell id="AmXbHeYY8j9bT75IsuGP-241" value="" style="shape=partialRectangle;collapsible=0;dropTarget=0;pointerEvents=0;fillColor=none;top=0;left=0;bottom=0;right=0;points=[[0,0.5],[1,0.5]];portConstraint=eastwest;" parent="AmXbHeYY8j9bT75IsuGP-176" vertex="1">
          <mxGeometry y="180" width="190" height="30" as="geometry" />
        </mxCell>
        <mxCell id="AmXbHeYY8j9bT75IsuGP-242" value="" style="shape=partialRectangle;connectable=0;fillColor=none;top=0;left=0;bottom=0;right=0;editable=1;overflow=hidden;" parent="AmXbHeYY8j9bT75IsuGP-241" vertex="1">
          <mxGeometry width="30" height="30" as="geometry" />
        </mxCell>
        <mxCell id="AmXbHeYY8j9bT75IsuGP-243" value="discount_for_delivery_perc" style="shape=partialRectangle;connectable=0;fillColor=none;top=0;left=0;bottom=0;right=0;align=left;spacingLeft=6;overflow=hidden;" parent="AmXbHeYY8j9bT75IsuGP-241" vertex="1">
          <mxGeometry x="30" width="160" height="30" as="geometry" />
        </mxCell>
        <mxCell id="AmXbHeYY8j9bT75IsuGP-186" value="" style="shape=partialRectangle;collapsible=0;dropTarget=0;pointerEvents=0;fillColor=none;top=0;left=0;bottom=0;right=0;points=[[0,0.5],[1,0.5]];portConstraint=eastwest;" parent="AmXbHeYY8j9bT75IsuGP-176" vertex="1">
          <mxGeometry y="210" width="190" height="30" as="geometry" />
        </mxCell>
        <mxCell id="AmXbHeYY8j9bT75IsuGP-187" value="PK" style="shape=partialRectangle;connectable=0;fillColor=none;top=0;left=0;bottom=0;right=0;editable=1;overflow=hidden;" parent="AmXbHeYY8j9bT75IsuGP-186" vertex="1">
          <mxGeometry width="30" height="30" as="geometry" />
        </mxCell>
        <mxCell id="AmXbHeYY8j9bT75IsuGP-188" value="valid_from_dttm" style="shape=partialRectangle;connectable=0;fillColor=none;top=0;left=0;bottom=0;right=0;align=left;spacingLeft=6;overflow=hidden;" parent="AmXbHeYY8j9bT75IsuGP-186" vertex="1">
          <mxGeometry x="30" width="160" height="30" as="geometry" />
        </mxCell>
        <mxCell id="AmXbHeYY8j9bT75IsuGP-189" value="" style="shape=partialRectangle;collapsible=0;dropTarget=0;pointerEvents=0;fillColor=none;top=0;left=0;bottom=0;right=0;points=[[0,0.5],[1,0.5]];portConstraint=eastwest;" parent="AmXbHeYY8j9bT75IsuGP-176" vertex="1">
          <mxGeometry y="240" width="190" height="30" as="geometry" />
        </mxCell>
        <mxCell id="AmXbHeYY8j9bT75IsuGP-190" value="" style="shape=partialRectangle;connectable=0;fillColor=none;top=0;left=0;bottom=0;right=0;editable=1;overflow=hidden;" parent="AmXbHeYY8j9bT75IsuGP-189" vertex="1">
          <mxGeometry width="30" height="30" as="geometry" />
        </mxCell>
        <mxCell id="AmXbHeYY8j9bT75IsuGP-191" value="valid_to_dttm" style="shape=partialRectangle;connectable=0;fillColor=none;top=0;left=0;bottom=0;right=0;align=left;spacingLeft=6;overflow=hidden;" parent="AmXbHeYY8j9bT75IsuGP-189" vertex="1">
          <mxGeometry x="30" width="160" height="30" as="geometry" />
        </mxCell>
        <mxCell id="AmXbHeYY8j9bT75IsuGP-247" style="edgeStyle=orthogonalEdgeStyle;rounded=0;jumpStyle=none;orthogonalLoop=1;jettySize=auto;html=1;exitX=1;exitY=0.5;exitDx=0;exitDy=0;endArrow=ERzeroToMany;endFill=1;" parent="AmXbHeYY8j9bT75IsuGP-176" source="AmXbHeYY8j9bT75IsuGP-244" target="AmXbHeYY8j9bT75IsuGP-244" edge="1">
          <mxGeometry relative="1" as="geometry" />
        </mxCell>
        <mxCell id="AmXbHeYY8j9bT75IsuGP-249" value="" style="edgeStyle=orthogonalEdgeStyle;fontSize=12;html=1;endArrow=ERone;endFill=1;exitX=0.75;exitY=0;exitDx=0;exitDy=0;entryX=0.5;entryY=1;entryDx=0;entryDy=0;" parent="1" source="YoVkF1FacM1gue7G8QHR-75" target="AmXbHeYY8j9bT75IsuGP-160" edge="1">
          <mxGeometry width="100" height="100" relative="1" as="geometry">
            <mxPoint x="-643" y="-3515" as="sourcePoint" />
            <mxPoint x="-353" y="-3500" as="targetPoint" />
            <Array as="points">
              <mxPoint x="-508" y="-3930" />
              <mxPoint x="-118" y="-3930" />
            </Array>
          </mxGeometry>
        </mxCell>
        <mxCell id="AmXbHeYY8j9bT75IsuGP-250" value="" style="edgeStyle=orthogonalEdgeStyle;fontSize=12;html=1;endArrow=ERone;endFill=1;entryX=0.5;entryY=1;entryDx=0;entryDy=0;exitX=0.25;exitY=0;exitDx=0;exitDy=0;" parent="1" source="YoVkF1FacM1gue7G8QHR-75" target="AmXbHeYY8j9bT75IsuGP-176" edge="1">
          <mxGeometry width="100" height="100" relative="1" as="geometry">
            <mxPoint x="-608" y="-3450" as="sourcePoint" />
            <mxPoint x="-463" y="-3290" as="targetPoint" />
            <Array as="points">
              <mxPoint x="-598" y="-3960" />
              <mxPoint x="-368" y="-3960" />
            </Array>
          </mxGeometry>
        </mxCell>
        <mxCell id="AmXbHeYY8j9bT75IsuGP-265" value="a_Customers" style="shape=table;startSize=30;container=1;collapsible=1;childLayout=tableLayout;fixedRows=1;rowLines=0;fontStyle=1;align=center;resizeLast=1;fillColor=#ffcc99;strokeColor=#36393d;" parent="1" vertex="1">
          <mxGeometry x="-943" y="-3980" width="180" height="190" as="geometry" />
        </mxCell>
        <mxCell id="AmXbHeYY8j9bT75IsuGP-266" value="" style="shape=partialRectangle;collapsible=0;dropTarget=0;pointerEvents=0;fillColor=none;top=0;left=0;bottom=1;right=0;points=[[0,0.5],[1,0.5]];portConstraint=eastwest;" parent="AmXbHeYY8j9bT75IsuGP-265" vertex="1">
          <mxGeometry y="30" width="180" height="30" as="geometry" />
        </mxCell>
        <mxCell id="AmXbHeYY8j9bT75IsuGP-267" value="PK" style="shape=partialRectangle;connectable=0;fillColor=none;top=0;left=0;bottom=0;right=0;fontStyle=1;overflow=hidden;" parent="AmXbHeYY8j9bT75IsuGP-266" vertex="1">
          <mxGeometry width="30" height="30" as="geometry" />
        </mxCell>
        <mxCell id="AmXbHeYY8j9bT75IsuGP-268" value="customer_sk" style="shape=partialRectangle;connectable=0;fillColor=none;top=0;left=0;bottom=0;right=0;align=left;spacingLeft=6;fontStyle=5;overflow=hidden;" parent="AmXbHeYY8j9bT75IsuGP-266" vertex="1">
          <mxGeometry x="30" width="150" height="30" as="geometry" />
        </mxCell>
        <mxCell id="AmXbHeYY8j9bT75IsuGP-269" value="" style="shape=partialRectangle;collapsible=0;dropTarget=0;pointerEvents=0;fillColor=none;top=0;left=0;bottom=0;right=0;points=[[0,0.5],[1,0.5]];portConstraint=eastwest;" parent="AmXbHeYY8j9bT75IsuGP-265" vertex="1">
          <mxGeometry y="60" width="180" height="30" as="geometry" />
        </mxCell>
        <mxCell id="AmXbHeYY8j9bT75IsuGP-270" value="" style="shape=partialRectangle;connectable=0;fillColor=none;top=0;left=0;bottom=0;right=0;editable=1;overflow=hidden;" parent="AmXbHeYY8j9bT75IsuGP-269" vertex="1">
          <mxGeometry width="30" height="30" as="geometry" />
        </mxCell>
        <mxCell id="AmXbHeYY8j9bT75IsuGP-271" value="customer_id" style="shape=partialRectangle;connectable=0;fillColor=none;top=0;left=0;bottom=0;right=0;align=left;spacingLeft=6;overflow=hidden;" parent="AmXbHeYY8j9bT75IsuGP-269" vertex="1">
          <mxGeometry x="30" width="150" height="30" as="geometry" />
        </mxCell>
        <mxCell id="AmXbHeYY8j9bT75IsuGP-278" value="" style="shape=partialRectangle;collapsible=0;dropTarget=0;pointerEvents=0;fillColor=none;top=0;left=0;bottom=0;right=0;points=[[0,0.5],[1,0.5]];portConstraint=eastwest;" parent="AmXbHeYY8j9bT75IsuGP-265" vertex="1">
          <mxGeometry y="90" width="180" height="30" as="geometry" />
        </mxCell>
        <mxCell id="AmXbHeYY8j9bT75IsuGP-279" value="" style="shape=partialRectangle;connectable=0;fillColor=none;top=0;left=0;bottom=0;right=0;editable=1;overflow=hidden;" parent="AmXbHeYY8j9bT75IsuGP-278" vertex="1">
          <mxGeometry width="30" height="30" as="geometry" />
        </mxCell>
        <mxCell id="AmXbHeYY8j9bT75IsuGP-280" value="Row" style="shape=partialRectangle;connectable=0;fillColor=none;top=0;left=0;bottom=0;right=0;align=left;spacingLeft=6;overflow=hidden;" parent="AmXbHeYY8j9bT75IsuGP-278" vertex="1">
          <mxGeometry x="30" width="150" height="30" as="geometry" />
        </mxCell>
        <mxCell id="AmXbHeYY8j9bT75IsuGP-272" value="" style="shape=partialRectangle;collapsible=0;dropTarget=0;pointerEvents=0;fillColor=none;top=0;left=0;bottom=0;right=0;points=[[0,0.5],[1,0.5]];portConstraint=eastwest;" parent="AmXbHeYY8j9bT75IsuGP-265" vertex="1">
          <mxGeometry y="120" width="180" height="30" as="geometry" />
        </mxCell>
        <mxCell id="AmXbHeYY8j9bT75IsuGP-273" value="" style="shape=partialRectangle;connectable=0;fillColor=none;top=0;left=0;bottom=0;right=0;editable=1;overflow=hidden;" parent="AmXbHeYY8j9bT75IsuGP-272" vertex="1">
          <mxGeometry width="30" height="30" as="geometry" />
        </mxCell>
        <mxCell id="AmXbHeYY8j9bT75IsuGP-274" value="load_dttm" style="shape=partialRectangle;connectable=0;fillColor=none;top=0;left=0;bottom=0;right=0;align=left;spacingLeft=6;overflow=hidden;" parent="AmXbHeYY8j9bT75IsuGP-272" vertex="1">
          <mxGeometry x="30" width="150" height="30" as="geometry" />
        </mxCell>
        <mxCell id="AmXbHeYY8j9bT75IsuGP-275" value="" style="shape=partialRectangle;collapsible=0;dropTarget=0;pointerEvents=0;fillColor=none;top=0;left=0;bottom=0;right=0;points=[[0,0.5],[1,0.5]];portConstraint=eastwest;" parent="AmXbHeYY8j9bT75IsuGP-265" vertex="1">
          <mxGeometry y="150" width="180" height="30" as="geometry" />
        </mxCell>
        <mxCell id="AmXbHeYY8j9bT75IsuGP-276" value="" style="shape=partialRectangle;connectable=0;fillColor=none;top=0;left=0;bottom=0;right=0;editable=1;overflow=hidden;" parent="AmXbHeYY8j9bT75IsuGP-275" vertex="1">
          <mxGeometry width="30" height="30" as="geometry" />
        </mxCell>
        <mxCell id="AmXbHeYY8j9bT75IsuGP-277" value="source_id" style="shape=partialRectangle;connectable=0;fillColor=none;top=0;left=0;bottom=0;right=0;align=left;spacingLeft=6;overflow=hidden;" parent="AmXbHeYY8j9bT75IsuGP-275" vertex="1">
          <mxGeometry x="30" width="150" height="30" as="geometry" />
        </mxCell>
        <mxCell id="AmXbHeYY8j9bT75IsuGP-281" value="s_Customers_Personal_Info" style="shape=table;startSize=30;container=1;collapsible=1;childLayout=tableLayout;fixedRows=1;rowLines=0;fontStyle=1;align=center;resizeLast=1;fillColor=#dae8fc;strokeColor=#6c8ebf;" parent="1" vertex="1">
          <mxGeometry x="-1133" y="-4370" width="170" height="200" as="geometry" />
        </mxCell>
        <mxCell id="AmXbHeYY8j9bT75IsuGP-282" value="" style="shape=partialRectangle;collapsible=0;dropTarget=0;pointerEvents=0;fillColor=none;top=0;left=0;bottom=1;right=0;points=[[0,0.5],[1,0.5]];portConstraint=eastwest;" parent="AmXbHeYY8j9bT75IsuGP-281" vertex="1">
          <mxGeometry y="30" width="170" height="30" as="geometry" />
        </mxCell>
        <mxCell id="AmXbHeYY8j9bT75IsuGP-283" value="PK" style="shape=partialRectangle;connectable=0;fillColor=none;top=0;left=0;bottom=0;right=0;fontStyle=1;overflow=hidden;" parent="AmXbHeYY8j9bT75IsuGP-282" vertex="1">
          <mxGeometry width="30" height="30" as="geometry" />
        </mxCell>
        <mxCell id="AmXbHeYY8j9bT75IsuGP-284" value="customer_sk" style="shape=partialRectangle;connectable=0;fillColor=none;top=0;left=0;bottom=0;right=0;align=left;spacingLeft=6;fontStyle=5;overflow=hidden;" parent="AmXbHeYY8j9bT75IsuGP-282" vertex="1">
          <mxGeometry x="30" width="140" height="30" as="geometry" />
        </mxCell>
        <mxCell id="AmXbHeYY8j9bT75IsuGP-285" value="" style="shape=partialRectangle;collapsible=0;dropTarget=0;pointerEvents=0;fillColor=none;top=0;left=0;bottom=0;right=0;points=[[0,0.5],[1,0.5]];portConstraint=eastwest;" parent="AmXbHeYY8j9bT75IsuGP-281" vertex="1">
          <mxGeometry y="60" width="170" height="30" as="geometry" />
        </mxCell>
        <mxCell id="AmXbHeYY8j9bT75IsuGP-286" value="" style="shape=partialRectangle;connectable=0;fillColor=none;top=0;left=0;bottom=0;right=0;editable=1;overflow=hidden;" parent="AmXbHeYY8j9bT75IsuGP-285" vertex="1">
          <mxGeometry width="30" height="30" as="geometry" />
        </mxCell>
        <mxCell id="AmXbHeYY8j9bT75IsuGP-287" value="name" style="shape=partialRectangle;connectable=0;fillColor=none;top=0;left=0;bottom=0;right=0;align=left;spacingLeft=6;overflow=hidden;" parent="AmXbHeYY8j9bT75IsuGP-285" vertex="1">
          <mxGeometry x="30" width="140" height="30" as="geometry" />
        </mxCell>
        <mxCell id="AmXbHeYY8j9bT75IsuGP-359" value="" style="shape=partialRectangle;collapsible=0;dropTarget=0;pointerEvents=0;fillColor=none;top=0;left=0;bottom=0;right=0;points=[[0,0.5],[1,0.5]];portConstraint=eastwest;" parent="AmXbHeYY8j9bT75IsuGP-281" vertex="1">
          <mxGeometry y="90" width="170" height="30" as="geometry" />
        </mxCell>
        <mxCell id="AmXbHeYY8j9bT75IsuGP-360" value="" style="shape=partialRectangle;connectable=0;fillColor=none;top=0;left=0;bottom=0;right=0;editable=1;overflow=hidden;" parent="AmXbHeYY8j9bT75IsuGP-359" vertex="1">
          <mxGeometry width="30" height="30" as="geometry" />
        </mxCell>
        <mxCell id="AmXbHeYY8j9bT75IsuGP-361" value="surname" style="shape=partialRectangle;connectable=0;fillColor=none;top=0;left=0;bottom=0;right=0;align=left;spacingLeft=6;overflow=hidden;" parent="AmXbHeYY8j9bT75IsuGP-359" vertex="1">
          <mxGeometry x="30" width="140" height="30" as="geometry" />
        </mxCell>
        <mxCell id="AmXbHeYY8j9bT75IsuGP-288" value="" style="shape=partialRectangle;collapsible=0;dropTarget=0;pointerEvents=0;fillColor=none;top=0;left=0;bottom=0;right=0;points=[[0,0.5],[1,0.5]];portConstraint=eastwest;" parent="AmXbHeYY8j9bT75IsuGP-281" vertex="1">
          <mxGeometry y="120" width="170" height="30" as="geometry" />
        </mxCell>
        <mxCell id="AmXbHeYY8j9bT75IsuGP-289" value="" style="shape=partialRectangle;connectable=0;fillColor=none;top=0;left=0;bottom=0;right=0;editable=1;overflow=hidden;" parent="AmXbHeYY8j9bT75IsuGP-288" vertex="1">
          <mxGeometry width="30" height="30" as="geometry" />
        </mxCell>
        <mxCell id="AmXbHeYY8j9bT75IsuGP-290" value="age" style="shape=partialRectangle;connectable=0;fillColor=none;top=0;left=0;bottom=0;right=0;align=left;spacingLeft=6;overflow=hidden;" parent="AmXbHeYY8j9bT75IsuGP-288" vertex="1">
          <mxGeometry x="30" width="140" height="30" as="geometry" />
        </mxCell>
        <mxCell id="AmXbHeYY8j9bT75IsuGP-291" value="" style="shape=partialRectangle;collapsible=0;dropTarget=0;pointerEvents=0;fillColor=none;top=0;left=0;bottom=0;right=0;points=[[0,0.5],[1,0.5]];portConstraint=eastwest;" parent="AmXbHeYY8j9bT75IsuGP-281" vertex="1">
          <mxGeometry y="150" width="170" height="40" as="geometry" />
        </mxCell>
        <mxCell id="AmXbHeYY8j9bT75IsuGP-292" value="" style="shape=partialRectangle;connectable=0;fillColor=none;top=0;left=0;bottom=0;right=0;editable=1;overflow=hidden;" parent="AmXbHeYY8j9bT75IsuGP-291" vertex="1">
          <mxGeometry width="30" height="40" as="geometry" />
        </mxCell>
        <mxCell id="AmXbHeYY8j9bT75IsuGP-293" value="gender" style="shape=partialRectangle;connectable=0;fillColor=none;top=0;left=0;bottom=0;right=0;align=left;spacingLeft=6;overflow=hidden;" parent="AmXbHeYY8j9bT75IsuGP-291" vertex="1">
          <mxGeometry x="30" width="140" height="40" as="geometry" />
        </mxCell>
        <mxCell id="AmXbHeYY8j9bT75IsuGP-301" value="s_Customers_Contact_Info" style="shape=table;startSize=30;container=1;collapsible=1;childLayout=tableLayout;fixedRows=1;rowLines=0;fontStyle=1;align=center;resizeLast=1;fillColor=#dae8fc;strokeColor=#6c8ebf;" parent="1" vertex="1">
          <mxGeometry x="-933" y="-4260" width="160" height="190" as="geometry" />
        </mxCell>
        <mxCell id="AmXbHeYY8j9bT75IsuGP-302" value="" style="shape=partialRectangle;collapsible=0;dropTarget=0;pointerEvents=0;fillColor=none;top=0;left=0;bottom=1;right=0;points=[[0,0.5],[1,0.5]];portConstraint=eastwest;" parent="AmXbHeYY8j9bT75IsuGP-301" vertex="1">
          <mxGeometry y="30" width="160" height="30" as="geometry" />
        </mxCell>
        <mxCell id="AmXbHeYY8j9bT75IsuGP-303" value="PK" style="shape=partialRectangle;connectable=0;fillColor=none;top=0;left=0;bottom=0;right=0;fontStyle=1;overflow=hidden;" parent="AmXbHeYY8j9bT75IsuGP-302" vertex="1">
          <mxGeometry width="30" height="30" as="geometry" />
        </mxCell>
        <mxCell id="AmXbHeYY8j9bT75IsuGP-304" value="customer_sk" style="shape=partialRectangle;connectable=0;fillColor=none;top=0;left=0;bottom=0;right=0;align=left;spacingLeft=6;fontStyle=5;overflow=hidden;" parent="AmXbHeYY8j9bT75IsuGP-302" vertex="1">
          <mxGeometry x="30" width="130" height="30" as="geometry" />
        </mxCell>
        <mxCell id="AmXbHeYY8j9bT75IsuGP-305" value="" style="shape=partialRectangle;collapsible=0;dropTarget=0;pointerEvents=0;fillColor=none;top=0;left=0;bottom=0;right=0;points=[[0,0.5],[1,0.5]];portConstraint=eastwest;" parent="AmXbHeYY8j9bT75IsuGP-301" vertex="1">
          <mxGeometry y="60" width="160" height="30" as="geometry" />
        </mxCell>
        <mxCell id="AmXbHeYY8j9bT75IsuGP-306" value="" style="shape=partialRectangle;connectable=0;fillColor=none;top=0;left=0;bottom=0;right=0;editable=1;overflow=hidden;" parent="AmXbHeYY8j9bT75IsuGP-305" vertex="1">
          <mxGeometry width="30" height="30" as="geometry" />
        </mxCell>
        <mxCell id="AmXbHeYY8j9bT75IsuGP-307" value="phone" style="shape=partialRectangle;connectable=0;fillColor=none;top=0;left=0;bottom=0;right=0;align=left;spacingLeft=6;overflow=hidden;" parent="AmXbHeYY8j9bT75IsuGP-305" vertex="1">
          <mxGeometry x="30" width="130" height="30" as="geometry" />
        </mxCell>
        <mxCell id="AmXbHeYY8j9bT75IsuGP-308" value="" style="shape=partialRectangle;collapsible=0;dropTarget=0;pointerEvents=0;fillColor=none;top=0;left=0;bottom=0;right=0;points=[[0,0.5],[1,0.5]];portConstraint=eastwest;" parent="AmXbHeYY8j9bT75IsuGP-301" vertex="1">
          <mxGeometry y="90" width="160" height="30" as="geometry" />
        </mxCell>
        <mxCell id="AmXbHeYY8j9bT75IsuGP-309" value="" style="shape=partialRectangle;connectable=0;fillColor=none;top=0;left=0;bottom=0;right=0;editable=1;overflow=hidden;" parent="AmXbHeYY8j9bT75IsuGP-308" vertex="1">
          <mxGeometry width="30" height="30" as="geometry" />
        </mxCell>
        <mxCell id="AmXbHeYY8j9bT75IsuGP-310" value="email" style="shape=partialRectangle;connectable=0;fillColor=none;top=0;left=0;bottom=0;right=0;align=left;spacingLeft=6;overflow=hidden;" parent="AmXbHeYY8j9bT75IsuGP-308" vertex="1">
          <mxGeometry x="30" width="130" height="30" as="geometry" />
        </mxCell>
        <mxCell id="AmXbHeYY8j9bT75IsuGP-314" value="" style="shape=partialRectangle;collapsible=0;dropTarget=0;pointerEvents=0;fillColor=none;top=0;left=0;bottom=0;right=0;points=[[0,0.5],[1,0.5]];portConstraint=eastwest;" parent="AmXbHeYY8j9bT75IsuGP-301" vertex="1">
          <mxGeometry y="120" width="160" height="30" as="geometry" />
        </mxCell>
        <mxCell id="AmXbHeYY8j9bT75IsuGP-315" value="PK" style="shape=partialRectangle;connectable=0;fillColor=none;top=0;left=0;bottom=0;right=0;editable=1;overflow=hidden;" parent="AmXbHeYY8j9bT75IsuGP-314" vertex="1">
          <mxGeometry width="30" height="30" as="geometry" />
        </mxCell>
        <mxCell id="AmXbHeYY8j9bT75IsuGP-316" value="valid_from_dttm" style="shape=partialRectangle;connectable=0;fillColor=none;top=0;left=0;bottom=0;right=0;align=left;spacingLeft=6;overflow=hidden;" parent="AmXbHeYY8j9bT75IsuGP-314" vertex="1">
          <mxGeometry x="30" width="130" height="30" as="geometry" />
        </mxCell>
        <mxCell id="AmXbHeYY8j9bT75IsuGP-317" value="" style="shape=partialRectangle;collapsible=0;dropTarget=0;pointerEvents=0;fillColor=none;top=0;left=0;bottom=0;right=0;points=[[0,0.5],[1,0.5]];portConstraint=eastwest;" parent="AmXbHeYY8j9bT75IsuGP-301" vertex="1">
          <mxGeometry y="150" width="160" height="30" as="geometry" />
        </mxCell>
        <mxCell id="AmXbHeYY8j9bT75IsuGP-318" value="" style="shape=partialRectangle;connectable=0;fillColor=none;top=0;left=0;bottom=0;right=0;editable=1;overflow=hidden;" parent="AmXbHeYY8j9bT75IsuGP-317" vertex="1">
          <mxGeometry width="30" height="30" as="geometry" />
        </mxCell>
        <mxCell id="AmXbHeYY8j9bT75IsuGP-319" value="valid_to_dttm" style="shape=partialRectangle;connectable=0;fillColor=none;top=0;left=0;bottom=0;right=0;align=left;spacingLeft=6;overflow=hidden;" parent="AmXbHeYY8j9bT75IsuGP-317" vertex="1">
          <mxGeometry x="30" width="130" height="30" as="geometry" />
        </mxCell>
        <mxCell id="AmXbHeYY8j9bT75IsuGP-320" value="s_Customers_Permissions_Info" style="shape=table;startSize=30;container=1;collapsible=1;childLayout=tableLayout;fixedRows=1;rowLines=0;fontStyle=1;align=center;resizeLast=1;fillColor=#dae8fc;strokeColor=#6c8ebf;" parent="1" vertex="1">
          <mxGeometry x="-713" y="-4260" width="200" height="220" as="geometry" />
        </mxCell>
        <mxCell id="AmXbHeYY8j9bT75IsuGP-321" value="" style="shape=partialRectangle;collapsible=0;dropTarget=0;pointerEvents=0;fillColor=none;top=0;left=0;bottom=1;right=0;points=[[0,0.5],[1,0.5]];portConstraint=eastwest;" parent="AmXbHeYY8j9bT75IsuGP-320" vertex="1">
          <mxGeometry y="30" width="200" height="30" as="geometry" />
        </mxCell>
        <mxCell id="AmXbHeYY8j9bT75IsuGP-322" value="PK" style="shape=partialRectangle;connectable=0;fillColor=none;top=0;left=0;bottom=0;right=0;fontStyle=1;overflow=hidden;" parent="AmXbHeYY8j9bT75IsuGP-321" vertex="1">
          <mxGeometry width="30" height="30" as="geometry" />
        </mxCell>
        <mxCell id="AmXbHeYY8j9bT75IsuGP-323" value="customer_sk" style="shape=partialRectangle;connectable=0;fillColor=none;top=0;left=0;bottom=0;right=0;align=left;spacingLeft=6;fontStyle=5;overflow=hidden;" parent="AmXbHeYY8j9bT75IsuGP-321" vertex="1">
          <mxGeometry x="30" width="170" height="30" as="geometry" />
        </mxCell>
        <mxCell id="AmXbHeYY8j9bT75IsuGP-324" value="" style="shape=partialRectangle;collapsible=0;dropTarget=0;pointerEvents=0;fillColor=none;top=0;left=0;bottom=0;right=0;points=[[0,0.5],[1,0.5]];portConstraint=eastwest;" parent="AmXbHeYY8j9bT75IsuGP-320" vertex="1">
          <mxGeometry y="60" width="200" height="30" as="geometry" />
        </mxCell>
        <mxCell id="AmXbHeYY8j9bT75IsuGP-325" value="" style="shape=partialRectangle;connectable=0;fillColor=none;top=0;left=0;bottom=0;right=0;editable=1;overflow=hidden;" parent="AmXbHeYY8j9bT75IsuGP-324" vertex="1">
          <mxGeometry width="30" height="30" as="geometry" />
        </mxCell>
        <mxCell id="AmXbHeYY8j9bT75IsuGP-326" value="email_flg" style="shape=partialRectangle;connectable=0;fillColor=none;top=0;left=0;bottom=0;right=0;align=left;spacingLeft=6;overflow=hidden;" parent="AmXbHeYY8j9bT75IsuGP-324" vertex="1">
          <mxGeometry x="30" width="170" height="30" as="geometry" />
        </mxCell>
        <mxCell id="AmXbHeYY8j9bT75IsuGP-327" value="" style="shape=partialRectangle;collapsible=0;dropTarget=0;pointerEvents=0;fillColor=none;top=0;left=0;bottom=0;right=0;points=[[0,0.5],[1,0.5]];portConstraint=eastwest;" parent="AmXbHeYY8j9bT75IsuGP-320" vertex="1">
          <mxGeometry y="90" width="200" height="30" as="geometry" />
        </mxCell>
        <mxCell id="AmXbHeYY8j9bT75IsuGP-328" value="" style="shape=partialRectangle;connectable=0;fillColor=none;top=0;left=0;bottom=0;right=0;editable=1;overflow=hidden;" parent="AmXbHeYY8j9bT75IsuGP-327" vertex="1">
          <mxGeometry width="30" height="30" as="geometry" />
        </mxCell>
        <mxCell id="AmXbHeYY8j9bT75IsuGP-329" value="sms_flg" style="shape=partialRectangle;connectable=0;fillColor=none;top=0;left=0;bottom=0;right=0;align=left;spacingLeft=6;overflow=hidden;" parent="AmXbHeYY8j9bT75IsuGP-327" vertex="1">
          <mxGeometry x="30" width="170" height="30" as="geometry" />
        </mxCell>
        <mxCell id="AmXbHeYY8j9bT75IsuGP-330" value="" style="shape=partialRectangle;collapsible=0;dropTarget=0;pointerEvents=0;fillColor=none;top=0;left=0;bottom=0;right=0;points=[[0,0.5],[1,0.5]];portConstraint=eastwest;" parent="AmXbHeYY8j9bT75IsuGP-320" vertex="1">
          <mxGeometry y="120" width="200" height="30" as="geometry" />
        </mxCell>
        <mxCell id="AmXbHeYY8j9bT75IsuGP-331" value="" style="shape=partialRectangle;connectable=0;fillColor=none;top=0;left=0;bottom=0;right=0;editable=1;overflow=hidden;" parent="AmXbHeYY8j9bT75IsuGP-330" vertex="1">
          <mxGeometry width="30" height="30" as="geometry" />
        </mxCell>
        <mxCell id="AmXbHeYY8j9bT75IsuGP-332" value="app_push_flg" style="shape=partialRectangle;connectable=0;fillColor=none;top=0;left=0;bottom=0;right=0;align=left;spacingLeft=6;overflow=hidden;" parent="AmXbHeYY8j9bT75IsuGP-330" vertex="1">
          <mxGeometry x="30" width="170" height="30" as="geometry" />
        </mxCell>
        <mxCell id="AmXbHeYY8j9bT75IsuGP-333" value="" style="shape=partialRectangle;collapsible=0;dropTarget=0;pointerEvents=0;fillColor=none;top=0;left=0;bottom=0;right=0;points=[[0,0.5],[1,0.5]];portConstraint=eastwest;" parent="AmXbHeYY8j9bT75IsuGP-320" vertex="1">
          <mxGeometry y="150" width="200" height="30" as="geometry" />
        </mxCell>
        <mxCell id="AmXbHeYY8j9bT75IsuGP-334" value="PK" style="shape=partialRectangle;connectable=0;fillColor=none;top=0;left=0;bottom=0;right=0;editable=1;overflow=hidden;" parent="AmXbHeYY8j9bT75IsuGP-333" vertex="1">
          <mxGeometry width="30" height="30" as="geometry" />
        </mxCell>
        <mxCell id="AmXbHeYY8j9bT75IsuGP-335" value="valid_from_dttm" style="shape=partialRectangle;connectable=0;fillColor=none;top=0;left=0;bottom=0;right=0;align=left;spacingLeft=6;overflow=hidden;" parent="AmXbHeYY8j9bT75IsuGP-333" vertex="1">
          <mxGeometry x="30" width="170" height="30" as="geometry" />
        </mxCell>
        <mxCell id="AmXbHeYY8j9bT75IsuGP-336" value="" style="shape=partialRectangle;collapsible=0;dropTarget=0;pointerEvents=0;fillColor=none;top=0;left=0;bottom=0;right=0;points=[[0,0.5],[1,0.5]];portConstraint=eastwest;" parent="AmXbHeYY8j9bT75IsuGP-320" vertex="1">
          <mxGeometry y="180" width="200" height="30" as="geometry" />
        </mxCell>
        <mxCell id="AmXbHeYY8j9bT75IsuGP-337" value="" style="shape=partialRectangle;connectable=0;fillColor=none;top=0;left=0;bottom=0;right=0;editable=1;overflow=hidden;" parent="AmXbHeYY8j9bT75IsuGP-336" vertex="1">
          <mxGeometry width="30" height="30" as="geometry" />
        </mxCell>
        <mxCell id="AmXbHeYY8j9bT75IsuGP-338" value="valid_to_dttm" style="shape=partialRectangle;connectable=0;fillColor=none;top=0;left=0;bottom=0;right=0;align=left;spacingLeft=6;overflow=hidden;" parent="AmXbHeYY8j9bT75IsuGP-336" vertex="1">
          <mxGeometry x="30" width="170" height="30" as="geometry" />
        </mxCell>
        <mxCell id="AmXbHeYY8j9bT75IsuGP-362" value="" style="edgeStyle=orthogonalEdgeStyle;fontSize=12;html=1;endArrow=ERone;endFill=1;entryX=0.5;entryY=1;entryDx=0;entryDy=0;exitX=0.332;exitY=-0.008;exitDx=0;exitDy=0;exitPerimeter=0;" parent="1" source="AmXbHeYY8j9bT75IsuGP-265" target="AmXbHeYY8j9bT75IsuGP-281" edge="1">
          <mxGeometry width="100" height="100" relative="1" as="geometry">
            <mxPoint x="-876" y="-3983" as="sourcePoint" />
            <mxPoint x="-1053" y="-3840" as="targetPoint" />
            <Array as="points">
              <mxPoint x="-883" y="-4060" />
              <mxPoint x="-1003" y="-4060" />
              <mxPoint x="-1003" y="-4130" />
              <mxPoint x="-1048" y="-4130" />
            </Array>
          </mxGeometry>
        </mxCell>
        <mxCell id="AmXbHeYY8j9bT75IsuGP-363" value="" style="edgeStyle=orthogonalEdgeStyle;fontSize=12;html=1;endArrow=ERone;endFill=1;entryX=0.5;entryY=1;entryDx=0;entryDy=0;exitX=0.5;exitY=0;exitDx=0;exitDy=0;" parent="1" source="AmXbHeYY8j9bT75IsuGP-265" target="AmXbHeYY8j9bT75IsuGP-301" edge="1">
          <mxGeometry width="100" height="100" relative="1" as="geometry">
            <mxPoint x="-893" y="-3820" as="sourcePoint" />
            <mxPoint x="-1058.0000000000005" y="-3830" as="targetPoint" />
          </mxGeometry>
        </mxCell>
        <mxCell id="AmXbHeYY8j9bT75IsuGP-364" value="" style="edgeStyle=orthogonalEdgeStyle;fontSize=12;html=1;endArrow=ERone;endFill=1;entryX=0.5;entryY=1;entryDx=0;entryDy=0;exitX=1.003;exitY=0.093;exitDx=0;exitDy=0;exitPerimeter=0;" parent="1" source="AmXbHeYY8j9bT75IsuGP-265" target="AmXbHeYY8j9bT75IsuGP-320" edge="1">
          <mxGeometry width="100" height="100" relative="1" as="geometry">
            <mxPoint x="-703" y="-3705" as="sourcePoint" />
            <mxPoint x="-1058" y="-3830" as="targetPoint" />
          </mxGeometry>
        </mxCell>
        <mxCell id="AmXbHeYY8j9bT75IsuGP-379" value="l_stores_customers" style="shape=table;startSize=30;container=1;collapsible=1;childLayout=tableLayout;fixedRows=1;rowLines=0;fontStyle=1;align=center;resizeLast=1;fillColor=#d5e8d4;strokeColor=#82b366;" parent="1" vertex="1">
          <mxGeometry x="-1273" y="-3810" width="180" height="160" as="geometry" />
        </mxCell>
        <mxCell id="AmXbHeYY8j9bT75IsuGP-380" value="" style="shape=partialRectangle;collapsible=0;dropTarget=0;pointerEvents=0;fillColor=none;top=0;left=0;bottom=0;right=0;points=[[0,0.5],[1,0.5]];portConstraint=eastwest;" parent="AmXbHeYY8j9bT75IsuGP-379" vertex="1">
          <mxGeometry y="30" width="180" height="30" as="geometry" />
        </mxCell>
        <mxCell id="AmXbHeYY8j9bT75IsuGP-381" value="PK" style="shape=partialRectangle;connectable=0;fillColor=none;top=0;left=0;bottom=0;right=0;fontStyle=1;overflow=hidden;" parent="AmXbHeYY8j9bT75IsuGP-380" vertex="1">
          <mxGeometry width="30" height="30" as="geometry" />
        </mxCell>
        <mxCell id="AmXbHeYY8j9bT75IsuGP-382" value="store_sk" style="shape=partialRectangle;connectable=0;fillColor=none;top=0;left=0;bottom=0;right=0;align=left;spacingLeft=6;fontStyle=5;overflow=hidden;" parent="AmXbHeYY8j9bT75IsuGP-380" vertex="1">
          <mxGeometry x="30" width="150" height="30" as="geometry" />
        </mxCell>
        <mxCell id="AmXbHeYY8j9bT75IsuGP-383" value="" style="shape=partialRectangle;collapsible=0;dropTarget=0;pointerEvents=0;fillColor=none;top=0;left=0;bottom=1;right=0;points=[[0,0.5],[1,0.5]];portConstraint=eastwest;" parent="AmXbHeYY8j9bT75IsuGP-379" vertex="1">
          <mxGeometry y="60" width="180" height="30" as="geometry" />
        </mxCell>
        <mxCell id="AmXbHeYY8j9bT75IsuGP-384" value="PK" style="shape=partialRectangle;connectable=0;fillColor=none;top=0;left=0;bottom=0;right=0;fontStyle=1;overflow=hidden;" parent="AmXbHeYY8j9bT75IsuGP-383" vertex="1">
          <mxGeometry width="30" height="30" as="geometry" />
        </mxCell>
        <mxCell id="AmXbHeYY8j9bT75IsuGP-385" value="provider_sk" style="shape=partialRectangle;connectable=0;fillColor=none;top=0;left=0;bottom=0;right=0;align=left;spacingLeft=6;fontStyle=5;overflow=hidden;" parent="AmXbHeYY8j9bT75IsuGP-383" vertex="1">
          <mxGeometry x="30" width="150" height="30" as="geometry" />
        </mxCell>
        <mxCell id="AmXbHeYY8j9bT75IsuGP-386" value="" style="shape=partialRectangle;collapsible=0;dropTarget=0;pointerEvents=0;fillColor=none;top=0;left=0;bottom=0;right=0;points=[[0,0.5],[1,0.5]];portConstraint=eastwest;" parent="AmXbHeYY8j9bT75IsuGP-379" vertex="1">
          <mxGeometry y="90" width="180" height="30" as="geometry" />
        </mxCell>
        <mxCell id="AmXbHeYY8j9bT75IsuGP-387" value="" style="shape=partialRectangle;connectable=0;fillColor=none;top=0;left=0;bottom=0;right=0;editable=1;overflow=hidden;" parent="AmXbHeYY8j9bT75IsuGP-386" vertex="1">
          <mxGeometry width="30" height="30" as="geometry" />
        </mxCell>
        <mxCell id="AmXbHeYY8j9bT75IsuGP-388" value="load_dtm" style="shape=partialRectangle;connectable=0;fillColor=none;top=0;left=0;bottom=0;right=0;align=left;spacingLeft=6;overflow=hidden;" parent="AmXbHeYY8j9bT75IsuGP-386" vertex="1">
          <mxGeometry x="30" width="150" height="30" as="geometry" />
        </mxCell>
        <mxCell id="AmXbHeYY8j9bT75IsuGP-389" value="" style="shape=partialRectangle;collapsible=0;dropTarget=0;pointerEvents=0;fillColor=none;top=0;left=0;bottom=0;right=0;points=[[0,0.5],[1,0.5]];portConstraint=eastwest;" parent="AmXbHeYY8j9bT75IsuGP-379" vertex="1">
          <mxGeometry y="120" width="180" height="30" as="geometry" />
        </mxCell>
        <mxCell id="AmXbHeYY8j9bT75IsuGP-390" value="" style="shape=partialRectangle;connectable=0;fillColor=none;top=0;left=0;bottom=0;right=0;editable=1;overflow=hidden;" parent="AmXbHeYY8j9bT75IsuGP-389" vertex="1">
          <mxGeometry width="30" height="30" as="geometry" />
        </mxCell>
        <mxCell id="AmXbHeYY8j9bT75IsuGP-391" value="source_id" style="shape=partialRectangle;connectable=0;fillColor=none;top=0;left=0;bottom=0;right=0;align=left;spacingLeft=6;overflow=hidden;" parent="AmXbHeYY8j9bT75IsuGP-389" vertex="1">
          <mxGeometry x="30" width="150" height="30" as="geometry" />
        </mxCell>
        <mxCell id="AmXbHeYY8j9bT75IsuGP-392" value="" style="edgeStyle=orthogonalEdgeStyle;fontSize=12;html=1;endArrow=ERzeroToMany;endFill=1;exitX=0.25;exitY=1;exitDx=0;exitDy=0;entryX=1;entryY=0.107;entryDx=0;entryDy=0;entryPerimeter=0;" parent="1" source="AmXbHeYY8j9bT75IsuGP-265" target="AmXbHeYY8j9bT75IsuGP-379" edge="1">
          <mxGeometry width="100" height="100" relative="1" as="geometry">
            <mxPoint x="-1223.0000000000005" y="-3840" as="sourcePoint" />
            <mxPoint x="-1053" y="-3600" as="targetPoint" />
          </mxGeometry>
        </mxCell>
        <mxCell id="AmXbHeYY8j9bT75IsuGP-393" value="" style="edgeStyle=orthogonalEdgeStyle;fontSize=12;html=1;endArrow=ERzeroToMany;endFill=1;exitX=1;exitY=1;exitDx=0;exitDy=0;entryX=0.001;entryY=0.157;entryDx=0;entryDy=0;entryPerimeter=0;" parent="1" source="YoVkF1FacM1gue7G8QHR-36" target="AmXbHeYY8j9bT75IsuGP-379" edge="1">
          <mxGeometry width="100" height="100" relative="1" as="geometry">
            <mxPoint x="-1130.0000000000005" y="-4030" as="sourcePoint" />
            <mxPoint x="-1500" y="-3942" as="targetPoint" />
          </mxGeometry>
        </mxCell>
        <mxCell id="AmXbHeYY8j9bT75IsuGP-396" value="l_loyalty_cards" style="shape=table;startSize=30;container=1;collapsible=1;childLayout=tableLayout;fixedRows=1;rowLines=0;fontStyle=1;align=center;resizeLast=1;fillColor=#d5e8d4;strokeColor=#82b366;" parent="1" vertex="1">
          <mxGeometry x="-763" y="-3610" width="180" height="160" as="geometry" />
        </mxCell>
        <mxCell id="AmXbHeYY8j9bT75IsuGP-397" value="" style="shape=partialRectangle;collapsible=0;dropTarget=0;pointerEvents=0;fillColor=none;top=0;left=0;bottom=0;right=0;points=[[0,0.5],[1,0.5]];portConstraint=eastwest;" parent="AmXbHeYY8j9bT75IsuGP-396" vertex="1">
          <mxGeometry y="30" width="180" height="30" as="geometry" />
        </mxCell>
        <mxCell id="AmXbHeYY8j9bT75IsuGP-398" value="PK" style="shape=partialRectangle;connectable=0;fillColor=none;top=0;left=0;bottom=0;right=0;fontStyle=1;overflow=hidden;" parent="AmXbHeYY8j9bT75IsuGP-397" vertex="1">
          <mxGeometry width="30" height="30" as="geometry" />
        </mxCell>
        <mxCell id="AmXbHeYY8j9bT75IsuGP-399" value="customer_sk" style="shape=partialRectangle;connectable=0;fillColor=none;top=0;left=0;bottom=0;right=0;align=left;spacingLeft=6;fontStyle=5;overflow=hidden;" parent="AmXbHeYY8j9bT75IsuGP-397" vertex="1">
          <mxGeometry x="30" width="150" height="30" as="geometry" />
        </mxCell>
        <mxCell id="AmXbHeYY8j9bT75IsuGP-400" value="" style="shape=partialRectangle;collapsible=0;dropTarget=0;pointerEvents=0;fillColor=none;top=0;left=0;bottom=1;right=0;points=[[0,0.5],[1,0.5]];portConstraint=eastwest;" parent="AmXbHeYY8j9bT75IsuGP-396" vertex="1">
          <mxGeometry y="60" width="180" height="30" as="geometry" />
        </mxCell>
        <mxCell id="AmXbHeYY8j9bT75IsuGP-401" value="PK" style="shape=partialRectangle;connectable=0;fillColor=none;top=0;left=0;bottom=0;right=0;fontStyle=1;overflow=hidden;" parent="AmXbHeYY8j9bT75IsuGP-400" vertex="1">
          <mxGeometry width="30" height="30" as="geometry" />
        </mxCell>
        <mxCell id="AmXbHeYY8j9bT75IsuGP-402" value="loyalty_program_sk" style="shape=partialRectangle;connectable=0;fillColor=none;top=0;left=0;bottom=0;right=0;align=left;spacingLeft=6;fontStyle=5;overflow=hidden;" parent="AmXbHeYY8j9bT75IsuGP-400" vertex="1">
          <mxGeometry x="30" width="150" height="30" as="geometry" />
        </mxCell>
        <mxCell id="AmXbHeYY8j9bT75IsuGP-403" value="" style="shape=partialRectangle;collapsible=0;dropTarget=0;pointerEvents=0;fillColor=none;top=0;left=0;bottom=0;right=0;points=[[0,0.5],[1,0.5]];portConstraint=eastwest;" parent="AmXbHeYY8j9bT75IsuGP-396" vertex="1">
          <mxGeometry y="90" width="180" height="30" as="geometry" />
        </mxCell>
        <mxCell id="AmXbHeYY8j9bT75IsuGP-404" value="" style="shape=partialRectangle;connectable=0;fillColor=none;top=0;left=0;bottom=0;right=0;editable=1;overflow=hidden;" parent="AmXbHeYY8j9bT75IsuGP-403" vertex="1">
          <mxGeometry width="30" height="30" as="geometry" />
        </mxCell>
        <mxCell id="AmXbHeYY8j9bT75IsuGP-405" value="load_dtm" style="shape=partialRectangle;connectable=0;fillColor=none;top=0;left=0;bottom=0;right=0;align=left;spacingLeft=6;overflow=hidden;" parent="AmXbHeYY8j9bT75IsuGP-403" vertex="1">
          <mxGeometry x="30" width="150" height="30" as="geometry" />
        </mxCell>
        <mxCell id="AmXbHeYY8j9bT75IsuGP-406" value="" style="shape=partialRectangle;collapsible=0;dropTarget=0;pointerEvents=0;fillColor=none;top=0;left=0;bottom=0;right=0;points=[[0,0.5],[1,0.5]];portConstraint=eastwest;" parent="AmXbHeYY8j9bT75IsuGP-396" vertex="1">
          <mxGeometry y="120" width="180" height="30" as="geometry" />
        </mxCell>
        <mxCell id="AmXbHeYY8j9bT75IsuGP-407" value="" style="shape=partialRectangle;connectable=0;fillColor=none;top=0;left=0;bottom=0;right=0;editable=1;overflow=hidden;" parent="AmXbHeYY8j9bT75IsuGP-406" vertex="1">
          <mxGeometry width="30" height="30" as="geometry" />
        </mxCell>
        <mxCell id="AmXbHeYY8j9bT75IsuGP-408" value="source_id" style="shape=partialRectangle;connectable=0;fillColor=none;top=0;left=0;bottom=0;right=0;align=left;spacingLeft=6;overflow=hidden;" parent="AmXbHeYY8j9bT75IsuGP-406" vertex="1">
          <mxGeometry x="30" width="150" height="30" as="geometry" />
        </mxCell>
        <mxCell id="AmXbHeYY8j9bT75IsuGP-409" value="" style="edgeStyle=orthogonalEdgeStyle;fontSize=12;html=1;endArrow=ERzeroToMany;endFill=1;exitX=0.75;exitY=1;exitDx=0;exitDy=0;entryX=0.25;entryY=0;entryDx=0;entryDy=0;" parent="1" source="AmXbHeYY8j9bT75IsuGP-265" target="AmXbHeYY8j9bT75IsuGP-396" edge="1">
          <mxGeometry width="100" height="100" relative="1" as="geometry">
            <mxPoint x="-843.0000000000005" y="-3780" as="sourcePoint" />
            <mxPoint x="-1271.92" y="-3390.96" as="targetPoint" />
            <Array as="points">
              <mxPoint x="-808" y="-3690" />
              <mxPoint x="-718" y="-3690" />
            </Array>
          </mxGeometry>
        </mxCell>
        <mxCell id="AmXbHeYY8j9bT75IsuGP-410" value="" style="edgeStyle=orthogonalEdgeStyle;fontSize=12;html=1;endArrow=ERzeroToMany;endFill=1;exitX=0.5;exitY=1;exitDx=0;exitDy=0;" parent="1" source="YoVkF1FacM1gue7G8QHR-75" target="AmXbHeYY8j9bT75IsuGP-396" edge="1">
          <mxGeometry width="100" height="100" relative="1" as="geometry">
            <mxPoint x="-613" y="-3690" as="sourcePoint" />
            <mxPoint x="-683" y="-3630" as="targetPoint" />
            <Array as="points">
              <mxPoint x="-553" y="-3680" />
              <mxPoint x="-683" y="-3680" />
            </Array>
          </mxGeometry>
        </mxCell>
        <mxCell id="AmXbHeYY8j9bT75IsuGP-412" value="s_Delivery_Zone_Location" style="shape=table;startSize=30;container=1;collapsible=1;childLayout=tableLayout;fixedRows=1;rowLines=0;fontStyle=1;align=center;resizeLast=1;fillColor=#dae8fc;strokeColor=#6c8ebf;" parent="1" vertex="1">
          <mxGeometry x="-270" y="-3520" width="180" height="190" as="geometry" />
        </mxCell>
        <mxCell id="AmXbHeYY8j9bT75IsuGP-413" value="" style="shape=partialRectangle;collapsible=0;dropTarget=0;pointerEvents=0;fillColor=none;top=0;left=0;bottom=1;right=0;points=[[0,0.5],[1,0.5]];portConstraint=eastwest;" parent="AmXbHeYY8j9bT75IsuGP-412" vertex="1">
          <mxGeometry y="30" width="180" height="30" as="geometry" />
        </mxCell>
        <mxCell id="AmXbHeYY8j9bT75IsuGP-414" value="PK" style="shape=partialRectangle;connectable=0;fillColor=none;top=0;left=0;bottom=0;right=0;fontStyle=1;overflow=hidden;" parent="AmXbHeYY8j9bT75IsuGP-413" vertex="1">
          <mxGeometry width="30" height="30" as="geometry" />
        </mxCell>
        <mxCell id="AmXbHeYY8j9bT75IsuGP-415" value="delivery_zone_sk" style="shape=partialRectangle;connectable=0;fillColor=none;top=0;left=0;bottom=0;right=0;align=left;spacingLeft=6;fontStyle=5;overflow=hidden;" parent="AmXbHeYY8j9bT75IsuGP-413" vertex="1">
          <mxGeometry x="30" width="150" height="30" as="geometry" />
        </mxCell>
        <mxCell id="AmXbHeYY8j9bT75IsuGP-438" value="" style="shape=partialRectangle;collapsible=0;dropTarget=0;pointerEvents=0;fillColor=none;top=0;left=0;bottom=0;right=0;points=[[0,0.5],[1,0.5]];portConstraint=eastwest;" parent="AmXbHeYY8j9bT75IsuGP-412" vertex="1">
          <mxGeometry y="60" width="180" height="30" as="geometry" />
        </mxCell>
        <mxCell id="AmXbHeYY8j9bT75IsuGP-439" value="" style="shape=partialRectangle;connectable=0;fillColor=none;top=0;left=0;bottom=0;right=0;editable=1;overflow=hidden;" parent="AmXbHeYY8j9bT75IsuGP-438" vertex="1">
          <mxGeometry width="30" height="30" as="geometry" />
        </mxCell>
        <mxCell id="AmXbHeYY8j9bT75IsuGP-440" value="country" style="shape=partialRectangle;connectable=0;fillColor=none;top=0;left=0;bottom=0;right=0;align=left;spacingLeft=6;overflow=hidden;" parent="AmXbHeYY8j9bT75IsuGP-438" vertex="1">
          <mxGeometry x="30" width="150" height="30" as="geometry" />
        </mxCell>
        <mxCell id="AmXbHeYY8j9bT75IsuGP-441" value="" style="shape=partialRectangle;collapsible=0;dropTarget=0;pointerEvents=0;fillColor=none;top=0;left=0;bottom=0;right=0;points=[[0,0.5],[1,0.5]];portConstraint=eastwest;" parent="AmXbHeYY8j9bT75IsuGP-412" vertex="1">
          <mxGeometry y="90" width="180" height="30" as="geometry" />
        </mxCell>
        <mxCell id="AmXbHeYY8j9bT75IsuGP-442" value="" style="shape=partialRectangle;connectable=0;fillColor=none;top=0;left=0;bottom=0;right=0;editable=1;overflow=hidden;" parent="AmXbHeYY8j9bT75IsuGP-441" vertex="1">
          <mxGeometry width="30" height="30" as="geometry" />
        </mxCell>
        <mxCell id="AmXbHeYY8j9bT75IsuGP-443" value="city" style="shape=partialRectangle;connectable=0;fillColor=none;top=0;left=0;bottom=0;right=0;align=left;spacingLeft=6;overflow=hidden;" parent="AmXbHeYY8j9bT75IsuGP-441" vertex="1">
          <mxGeometry x="30" width="150" height="30" as="geometry" />
        </mxCell>
        <mxCell id="AmXbHeYY8j9bT75IsuGP-419" value="" style="shape=partialRectangle;collapsible=0;dropTarget=0;pointerEvents=0;fillColor=none;top=0;left=0;bottom=0;right=0;points=[[0,0.5],[1,0.5]];portConstraint=eastwest;" parent="AmXbHeYY8j9bT75IsuGP-412" vertex="1">
          <mxGeometry y="120" width="180" height="30" as="geometry" />
        </mxCell>
        <mxCell id="AmXbHeYY8j9bT75IsuGP-420" value="PK" style="shape=partialRectangle;connectable=0;fillColor=none;top=0;left=0;bottom=0;right=0;editable=1;overflow=hidden;" parent="AmXbHeYY8j9bT75IsuGP-419" vertex="1">
          <mxGeometry width="30" height="30" as="geometry" />
        </mxCell>
        <mxCell id="AmXbHeYY8j9bT75IsuGP-421" value="valid_from_dttm" style="shape=partialRectangle;connectable=0;fillColor=none;top=0;left=0;bottom=0;right=0;align=left;spacingLeft=6;overflow=hidden;" parent="AmXbHeYY8j9bT75IsuGP-419" vertex="1">
          <mxGeometry x="30" width="150" height="30" as="geometry" />
        </mxCell>
        <mxCell id="AmXbHeYY8j9bT75IsuGP-422" value="" style="shape=partialRectangle;collapsible=0;dropTarget=0;pointerEvents=0;fillColor=none;top=0;left=0;bottom=0;right=0;points=[[0,0.5],[1,0.5]];portConstraint=eastwest;" parent="AmXbHeYY8j9bT75IsuGP-412" vertex="1">
          <mxGeometry y="150" width="180" height="30" as="geometry" />
        </mxCell>
        <mxCell id="AmXbHeYY8j9bT75IsuGP-423" value="" style="shape=partialRectangle;connectable=0;fillColor=none;top=0;left=0;bottom=0;right=0;editable=1;overflow=hidden;" parent="AmXbHeYY8j9bT75IsuGP-422" vertex="1">
          <mxGeometry width="30" height="30" as="geometry" />
        </mxCell>
        <mxCell id="AmXbHeYY8j9bT75IsuGP-424" value="valid_to_dttm" style="shape=partialRectangle;connectable=0;fillColor=none;top=0;left=0;bottom=0;right=0;align=left;spacingLeft=6;overflow=hidden;" parent="AmXbHeYY8j9bT75IsuGP-422" vertex="1">
          <mxGeometry x="30" width="150" height="30" as="geometry" />
        </mxCell>
        <mxCell id="AmXbHeYY8j9bT75IsuGP-425" value="s_Delivery_Zone_Price" style="shape=table;startSize=30;container=1;collapsible=1;childLayout=tableLayout;fixedRows=1;rowLines=0;fontStyle=1;align=center;resizeLast=1;fillColor=#dae8fc;strokeColor=#6c8ebf;" parent="1" vertex="1">
          <mxGeometry x="-280" y="-3293" width="180" height="160" as="geometry" />
        </mxCell>
        <mxCell id="AmXbHeYY8j9bT75IsuGP-426" value="" style="shape=partialRectangle;collapsible=0;dropTarget=0;pointerEvents=0;fillColor=none;top=0;left=0;bottom=1;right=0;points=[[0,0.5],[1,0.5]];portConstraint=eastwest;" parent="AmXbHeYY8j9bT75IsuGP-425" vertex="1">
          <mxGeometry y="30" width="180" height="30" as="geometry" />
        </mxCell>
        <mxCell id="AmXbHeYY8j9bT75IsuGP-427" value="PK" style="shape=partialRectangle;connectable=0;fillColor=none;top=0;left=0;bottom=0;right=0;fontStyle=1;overflow=hidden;" parent="AmXbHeYY8j9bT75IsuGP-426" vertex="1">
          <mxGeometry width="30" height="30" as="geometry" />
        </mxCell>
        <mxCell id="AmXbHeYY8j9bT75IsuGP-428" value="delivery_zone_sk" style="shape=partialRectangle;connectable=0;fillColor=none;top=0;left=0;bottom=0;right=0;align=left;spacingLeft=6;fontStyle=5;overflow=hidden;" parent="AmXbHeYY8j9bT75IsuGP-426" vertex="1">
          <mxGeometry x="30" width="150" height="30" as="geometry" />
        </mxCell>
        <mxCell id="AmXbHeYY8j9bT75IsuGP-429" value="" style="shape=partialRectangle;collapsible=0;dropTarget=0;pointerEvents=0;fillColor=none;top=0;left=0;bottom=0;right=0;points=[[0,0.5],[1,0.5]];portConstraint=eastwest;" parent="AmXbHeYY8j9bT75IsuGP-425" vertex="1">
          <mxGeometry y="60" width="180" height="30" as="geometry" />
        </mxCell>
        <mxCell id="AmXbHeYY8j9bT75IsuGP-430" value="" style="shape=partialRectangle;connectable=0;fillColor=none;top=0;left=0;bottom=0;right=0;editable=1;overflow=hidden;" parent="AmXbHeYY8j9bT75IsuGP-429" vertex="1">
          <mxGeometry width="30" height="30" as="geometry" />
        </mxCell>
        <mxCell id="AmXbHeYY8j9bT75IsuGP-431" value="price" style="shape=partialRectangle;connectable=0;fillColor=none;top=0;left=0;bottom=0;right=0;align=left;spacingLeft=6;overflow=hidden;" parent="AmXbHeYY8j9bT75IsuGP-429" vertex="1">
          <mxGeometry x="30" width="150" height="30" as="geometry" />
        </mxCell>
        <mxCell id="AmXbHeYY8j9bT75IsuGP-432" value="" style="shape=partialRectangle;collapsible=0;dropTarget=0;pointerEvents=0;fillColor=none;top=0;left=0;bottom=0;right=0;points=[[0,0.5],[1,0.5]];portConstraint=eastwest;" parent="AmXbHeYY8j9bT75IsuGP-425" vertex="1">
          <mxGeometry y="90" width="180" height="30" as="geometry" />
        </mxCell>
        <mxCell id="AmXbHeYY8j9bT75IsuGP-433" value="PK" style="shape=partialRectangle;connectable=0;fillColor=none;top=0;left=0;bottom=0;right=0;editable=1;overflow=hidden;" parent="AmXbHeYY8j9bT75IsuGP-432" vertex="1">
          <mxGeometry width="30" height="30" as="geometry" />
        </mxCell>
        <mxCell id="AmXbHeYY8j9bT75IsuGP-434" value="valid_from_dttm" style="shape=partialRectangle;connectable=0;fillColor=none;top=0;left=0;bottom=0;right=0;align=left;spacingLeft=6;overflow=hidden;" parent="AmXbHeYY8j9bT75IsuGP-432" vertex="1">
          <mxGeometry x="30" width="150" height="30" as="geometry" />
        </mxCell>
        <mxCell id="AmXbHeYY8j9bT75IsuGP-435" value="" style="shape=partialRectangle;collapsible=0;dropTarget=0;pointerEvents=0;fillColor=none;top=0;left=0;bottom=0;right=0;points=[[0,0.5],[1,0.5]];portConstraint=eastwest;" parent="AmXbHeYY8j9bT75IsuGP-425" vertex="1">
          <mxGeometry y="120" width="180" height="30" as="geometry" />
        </mxCell>
        <mxCell id="AmXbHeYY8j9bT75IsuGP-436" value="" style="shape=partialRectangle;connectable=0;fillColor=none;top=0;left=0;bottom=0;right=0;editable=1;overflow=hidden;" parent="AmXbHeYY8j9bT75IsuGP-435" vertex="1">
          <mxGeometry width="30" height="30" as="geometry" />
        </mxCell>
        <mxCell id="AmXbHeYY8j9bT75IsuGP-437" value="valid_to_dttm" style="shape=partialRectangle;connectable=0;fillColor=none;top=0;left=0;bottom=0;right=0;align=left;spacingLeft=6;overflow=hidden;" parent="AmXbHeYY8j9bT75IsuGP-435" vertex="1">
          <mxGeometry x="30" width="150" height="30" as="geometry" />
        </mxCell>
        <mxCell id="AmXbHeYY8j9bT75IsuGP-445" value="" style="edgeStyle=orthogonalEdgeStyle;fontSize=12;html=1;endArrow=ERone;endFill=1;exitX=-0.01;exitY=0.105;exitDx=0;exitDy=0;exitPerimeter=0;entryX=1.008;entryY=0.088;entryDx=0;entryDy=0;entryPerimeter=0;" parent="1" source="AmXbHeYY8j9bT75IsuGP-412" target="YoVkF1FacM1gue7G8QHR-88" edge="1">
          <mxGeometry width="100" height="100" relative="1" as="geometry">
            <mxPoint x="-470" y="-3413" as="sourcePoint" />
            <mxPoint x="-370" y="-3513" as="targetPoint" />
          </mxGeometry>
        </mxCell>
        <mxCell id="AmXbHeYY8j9bT75IsuGP-446" value="" style="edgeStyle=orthogonalEdgeStyle;fontSize=12;html=1;endArrow=ERone;endFill=1;exitX=-0.004;exitY=0.088;exitDx=0;exitDy=0;exitPerimeter=0;entryX=1;entryY=0.5;entryDx=0;entryDy=0;" parent="1" source="AmXbHeYY8j9bT75IsuGP-425" target="YoVkF1FacM1gue7G8QHR-92" edge="1">
          <mxGeometry width="100" height="100" relative="1" as="geometry">
            <mxPoint x="-253.13000000000022" y="-3274.13" as="sourcePoint" />
            <mxPoint x="-349.8900000000004" y="-3233" as="targetPoint" />
          </mxGeometry>
        </mxCell>
        <mxCell id="AmXbHeYY8j9bT75IsuGP-447" value="l_Deliveries" style="shape=table;startSize=30;container=1;collapsible=1;childLayout=tableLayout;fixedRows=1;rowLines=0;fontStyle=1;align=center;resizeLast=1;fillColor=#e1d5e7;strokeColor=#9673a6;" parent="1" vertex="1">
          <mxGeometry x="-763" y="-3340" width="183" height="160" as="geometry" />
        </mxCell>
        <mxCell id="AmXbHeYY8j9bT75IsuGP-448" value="" style="shape=partialRectangle;collapsible=0;dropTarget=0;pointerEvents=0;fillColor=none;top=0;left=0;bottom=0;right=0;points=[[0,0.5],[1,0.5]];portConstraint=eastwest;" parent="AmXbHeYY8j9bT75IsuGP-447" vertex="1">
          <mxGeometry y="30" width="183" height="30" as="geometry" />
        </mxCell>
        <mxCell id="AmXbHeYY8j9bT75IsuGP-449" value="PK" style="shape=partialRectangle;connectable=0;fillColor=none;top=0;left=0;bottom=0;right=0;fontStyle=1;overflow=hidden;" parent="AmXbHeYY8j9bT75IsuGP-448" vertex="1">
          <mxGeometry width="30" height="30" as="geometry" />
        </mxCell>
        <mxCell id="AmXbHeYY8j9bT75IsuGP-450" value="delivery_zone_sk" style="shape=partialRectangle;connectable=0;fillColor=none;top=0;left=0;bottom=0;right=0;align=left;spacingLeft=6;fontStyle=5;overflow=hidden;" parent="AmXbHeYY8j9bT75IsuGP-448" vertex="1">
          <mxGeometry x="30" width="153" height="30" as="geometry" />
        </mxCell>
        <mxCell id="Mb4jKKonC298JeaTil5o-73" value="" style="shape=partialRectangle;collapsible=0;dropTarget=0;pointerEvents=0;fillColor=none;top=0;left=0;bottom=0;right=0;points=[[0,0.5],[1,0.5]];portConstraint=eastwest;" parent="AmXbHeYY8j9bT75IsuGP-447" vertex="1">
          <mxGeometry y="60" width="183" height="30" as="geometry" />
        </mxCell>
        <mxCell id="Mb4jKKonC298JeaTil5o-74" value="PK" style="shape=partialRectangle;connectable=0;fillColor=none;top=0;left=0;bottom=0;right=0;fontStyle=1;overflow=hidden;" parent="Mb4jKKonC298JeaTil5o-73" vertex="1">
          <mxGeometry width="30" height="30" as="geometry" />
        </mxCell>
        <mxCell id="Mb4jKKonC298JeaTil5o-75" value="customer_sk" style="shape=partialRectangle;connectable=0;fillColor=none;top=0;left=0;bottom=0;right=0;align=left;spacingLeft=6;fontStyle=5;overflow=hidden;" parent="Mb4jKKonC298JeaTil5o-73" vertex="1">
          <mxGeometry x="30" width="153" height="30" as="geometry" />
        </mxCell>
        <mxCell id="AmXbHeYY8j9bT75IsuGP-454" value="" style="shape=partialRectangle;collapsible=0;dropTarget=0;pointerEvents=0;fillColor=none;top=0;left=0;bottom=0;right=0;points=[[0,0.5],[1,0.5]];portConstraint=eastwest;" parent="AmXbHeYY8j9bT75IsuGP-447" vertex="1">
          <mxGeometry y="90" width="183" height="30" as="geometry" />
        </mxCell>
        <mxCell id="AmXbHeYY8j9bT75IsuGP-455" value="" style="shape=partialRectangle;connectable=0;fillColor=none;top=0;left=0;bottom=0;right=0;editable=1;overflow=hidden;" parent="AmXbHeYY8j9bT75IsuGP-454" vertex="1">
          <mxGeometry width="30" height="30" as="geometry" />
        </mxCell>
        <mxCell id="AmXbHeYY8j9bT75IsuGP-456" value="load_dtm" style="shape=partialRectangle;connectable=0;fillColor=none;top=0;left=0;bottom=0;right=0;align=left;spacingLeft=6;overflow=hidden;" parent="AmXbHeYY8j9bT75IsuGP-454" vertex="1">
          <mxGeometry x="30" width="153" height="30" as="geometry" />
        </mxCell>
        <mxCell id="AmXbHeYY8j9bT75IsuGP-457" value="" style="shape=partialRectangle;collapsible=0;dropTarget=0;pointerEvents=0;fillColor=none;top=0;left=0;bottom=0;right=0;points=[[0,0.5],[1,0.5]];portConstraint=eastwest;" parent="AmXbHeYY8j9bT75IsuGP-447" vertex="1">
          <mxGeometry y="120" width="183" height="30" as="geometry" />
        </mxCell>
        <mxCell id="AmXbHeYY8j9bT75IsuGP-458" value="" style="shape=partialRectangle;connectable=0;fillColor=none;top=0;left=0;bottom=0;right=0;editable=1;overflow=hidden;" parent="AmXbHeYY8j9bT75IsuGP-457" vertex="1">
          <mxGeometry width="30" height="30" as="geometry" />
        </mxCell>
        <mxCell id="AmXbHeYY8j9bT75IsuGP-459" value="source_id" style="shape=partialRectangle;connectable=0;fillColor=none;top=0;left=0;bottom=0;right=0;align=left;spacingLeft=6;overflow=hidden;" parent="AmXbHeYY8j9bT75IsuGP-457" vertex="1">
          <mxGeometry x="30" width="153" height="30" as="geometry" />
        </mxCell>
        <mxCell id="AmXbHeYY8j9bT75IsuGP-463" value="" style="edgeStyle=orthogonalEdgeStyle;fontSize=12;html=1;endArrow=ERzeroToMany;endFill=1;entryX=0.75;entryY=0;entryDx=0;entryDy=0;exitX=0.005;exitY=0.091;exitDx=0;exitDy=0;exitPerimeter=0;" parent="1" source="YoVkF1FacM1gue7G8QHR-88" target="AmXbHeYY8j9bT75IsuGP-447" edge="1">
          <mxGeometry width="100" height="100" relative="1" as="geometry">
            <mxPoint x="-1043" y="-3170" as="sourcePoint" />
            <mxPoint x="-1133" y="-3240" as="targetPoint" />
            <Array as="points">
              <mxPoint x="-570" y="-3458" />
              <mxPoint x="-570" y="-3380" />
              <mxPoint x="-568" y="-3380" />
            </Array>
          </mxGeometry>
        </mxCell>
        <mxCell id="5SLXt3DzRqAPuxhB5ycv-4" value="at_good_fresh" style="shape=table;startSize=30;container=1;collapsible=1;childLayout=tableLayout;fixedRows=1;rowLines=0;fontStyle=1;align=center;resizeLast=1;fillColor=#dae8fc;strokeColor=#6c8ebf;" vertex="1" parent="1">
          <mxGeometry x="-2850" y="-3180" width="180" height="130" as="geometry" />
        </mxCell>
        <mxCell id="5SLXt3DzRqAPuxhB5ycv-5" value="" style="shape=partialRectangle;collapsible=0;dropTarget=0;pointerEvents=0;fillColor=none;top=0;left=0;bottom=1;right=0;points=[[0,0.5],[1,0.5]];portConstraint=eastwest;" vertex="1" parent="5SLXt3DzRqAPuxhB5ycv-4">
          <mxGeometry y="30" width="180" height="30" as="geometry" />
        </mxCell>
        <mxCell id="5SLXt3DzRqAPuxhB5ycv-6" value="PK" style="shape=partialRectangle;connectable=0;fillColor=none;top=0;left=0;bottom=0;right=0;fontStyle=1;overflow=hidden;" vertex="1" parent="5SLXt3DzRqAPuxhB5ycv-5">
          <mxGeometry width="30" height="30" as="geometry" />
        </mxCell>
        <mxCell id="5SLXt3DzRqAPuxhB5ycv-7" value="good_sk" style="shape=partialRectangle;connectable=0;fillColor=none;top=0;left=0;bottom=0;right=0;align=left;spacingLeft=6;fontStyle=5;overflow=hidden;" vertex="1" parent="5SLXt3DzRqAPuxhB5ycv-5">
          <mxGeometry x="30" width="150" height="30" as="geometry" />
        </mxCell>
        <mxCell id="5SLXt3DzRqAPuxhB5ycv-17" value="" style="shape=partialRectangle;collapsible=0;dropTarget=0;pointerEvents=0;fillColor=none;top=0;left=0;bottom=0;right=0;points=[[0,0.5],[1,0.5]];portConstraint=eastwest;" vertex="1" parent="5SLXt3DzRqAPuxhB5ycv-4">
          <mxGeometry y="60" width="180" height="30" as="geometry" />
        </mxCell>
        <mxCell id="5SLXt3DzRqAPuxhB5ycv-18" value="" style="shape=partialRectangle;connectable=0;fillColor=none;top=0;left=0;bottom=0;right=0;editable=1;overflow=hidden;" vertex="1" parent="5SLXt3DzRqAPuxhB5ycv-17">
          <mxGeometry width="30" height="30" as="geometry" />
        </mxCell>
        <mxCell id="5SLXt3DzRqAPuxhB5ycv-19" value="is_perishable_flg" style="shape=partialRectangle;connectable=0;fillColor=none;top=0;left=0;bottom=0;right=0;align=left;spacingLeft=6;overflow=hidden;" vertex="1" parent="5SLXt3DzRqAPuxhB5ycv-17">
          <mxGeometry x="30" width="150" height="30" as="geometry" />
        </mxCell>
        <mxCell id="5SLXt3DzRqAPuxhB5ycv-103" value="" style="shape=partialRectangle;collapsible=0;dropTarget=0;pointerEvents=0;fillColor=none;top=0;left=0;bottom=0;right=0;points=[[0,0.5],[1,0.5]];portConstraint=eastwest;" vertex="1" parent="5SLXt3DzRqAPuxhB5ycv-4">
          <mxGeometry y="90" width="180" height="30" as="geometry" />
        </mxCell>
        <mxCell id="5SLXt3DzRqAPuxhB5ycv-104" value="" style="shape=partialRectangle;connectable=0;fillColor=none;top=0;left=0;bottom=0;right=0;editable=1;overflow=hidden;" vertex="1" parent="5SLXt3DzRqAPuxhB5ycv-103">
          <mxGeometry width="30" height="30" as="geometry" />
        </mxCell>
        <mxCell id="5SLXt3DzRqAPuxhB5ycv-105" value="load_dttm" style="shape=partialRectangle;connectable=0;fillColor=none;top=0;left=0;bottom=0;right=0;align=left;spacingLeft=6;overflow=hidden;" vertex="1" parent="5SLXt3DzRqAPuxhB5ycv-103">
          <mxGeometry x="30" width="150" height="30" as="geometry" />
        </mxCell>
        <mxCell id="5SLXt3DzRqAPuxhB5ycv-29" value="at_good_name" style="shape=table;startSize=30;container=1;collapsible=1;childLayout=tableLayout;fixedRows=1;rowLines=0;fontStyle=1;align=center;resizeLast=1;fillColor=#dae8fc;strokeColor=#6c8ebf;" vertex="1" parent="1">
          <mxGeometry x="-2870" y="-3390" width="180" height="193" as="geometry" />
        </mxCell>
        <mxCell id="5SLXt3DzRqAPuxhB5ycv-30" value="" style="shape=partialRectangle;collapsible=0;dropTarget=0;pointerEvents=0;fillColor=none;top=0;left=0;bottom=1;right=0;points=[[0,0.5],[1,0.5]];portConstraint=eastwest;" vertex="1" parent="5SLXt3DzRqAPuxhB5ycv-29">
          <mxGeometry y="30" width="180" height="30" as="geometry" />
        </mxCell>
        <mxCell id="5SLXt3DzRqAPuxhB5ycv-31" value="PK" style="shape=partialRectangle;connectable=0;fillColor=none;top=0;left=0;bottom=0;right=0;fontStyle=1;overflow=hidden;" vertex="1" parent="5SLXt3DzRqAPuxhB5ycv-30">
          <mxGeometry width="30" height="30" as="geometry" />
        </mxCell>
        <mxCell id="5SLXt3DzRqAPuxhB5ycv-32" value="good_sk" style="shape=partialRectangle;connectable=0;fillColor=none;top=0;left=0;bottom=0;right=0;align=left;spacingLeft=6;fontStyle=5;overflow=hidden;" vertex="1" parent="5SLXt3DzRqAPuxhB5ycv-30">
          <mxGeometry x="30" width="150" height="30" as="geometry" />
        </mxCell>
        <mxCell id="5SLXt3DzRqAPuxhB5ycv-33" value="" style="shape=partialRectangle;collapsible=0;dropTarget=0;pointerEvents=0;fillColor=none;top=0;left=0;bottom=0;right=0;points=[[0,0.5],[1,0.5]];portConstraint=eastwest;" vertex="1" parent="5SLXt3DzRqAPuxhB5ycv-29">
          <mxGeometry y="60" width="180" height="30" as="geometry" />
        </mxCell>
        <mxCell id="5SLXt3DzRqAPuxhB5ycv-34" value="" style="shape=partialRectangle;connectable=0;fillColor=none;top=0;left=0;bottom=0;right=0;editable=1;overflow=hidden;" vertex="1" parent="5SLXt3DzRqAPuxhB5ycv-33">
          <mxGeometry width="30" height="30" as="geometry" />
        </mxCell>
        <mxCell id="5SLXt3DzRqAPuxhB5ycv-35" value="name" style="shape=partialRectangle;connectable=0;fillColor=none;top=0;left=0;bottom=0;right=0;align=left;spacingLeft=6;overflow=hidden;" vertex="1" parent="5SLXt3DzRqAPuxhB5ycv-33">
          <mxGeometry x="30" width="150" height="30" as="geometry" />
        </mxCell>
        <mxCell id="5SLXt3DzRqAPuxhB5ycv-171" value="" style="shape=partialRectangle;collapsible=0;dropTarget=0;pointerEvents=0;fillColor=none;top=0;left=0;bottom=0;right=0;points=[[0,0.5],[1,0.5]];portConstraint=eastwest;" vertex="1" parent="5SLXt3DzRqAPuxhB5ycv-29">
          <mxGeometry y="90" width="180" height="30" as="geometry" />
        </mxCell>
        <mxCell id="5SLXt3DzRqAPuxhB5ycv-172" value="" style="shape=partialRectangle;connectable=0;fillColor=none;top=0;left=0;bottom=0;right=0;editable=1;overflow=hidden;" vertex="1" parent="5SLXt3DzRqAPuxhB5ycv-171">
          <mxGeometry width="30" height="30" as="geometry" />
        </mxCell>
        <mxCell id="5SLXt3DzRqAPuxhB5ycv-173" value="source_id" style="shape=partialRectangle;connectable=0;fillColor=none;top=0;left=0;bottom=0;right=0;align=left;spacingLeft=6;overflow=hidden;" vertex="1" parent="5SLXt3DzRqAPuxhB5ycv-171">
          <mxGeometry x="30" width="150" height="30" as="geometry" />
        </mxCell>
        <mxCell id="5SLXt3DzRqAPuxhB5ycv-48" value="" style="shape=partialRectangle;collapsible=0;dropTarget=0;pointerEvents=0;fillColor=none;top=0;left=0;bottom=0;right=0;points=[[0,0.5],[1,0.5]];portConstraint=eastwest;" vertex="1" parent="5SLXt3DzRqAPuxhB5ycv-29">
          <mxGeometry y="120" width="180" height="30" as="geometry" />
        </mxCell>
        <mxCell id="5SLXt3DzRqAPuxhB5ycv-49" value="" style="shape=partialRectangle;connectable=0;fillColor=none;top=0;left=0;bottom=0;right=0;editable=1;overflow=hidden;" vertex="1" parent="5SLXt3DzRqAPuxhB5ycv-48">
          <mxGeometry width="30" height="30" as="geometry" />
        </mxCell>
        <mxCell id="5SLXt3DzRqAPuxhB5ycv-50" value="load_dttm" style="shape=partialRectangle;connectable=0;fillColor=none;top=0;left=0;bottom=0;right=0;align=left;spacingLeft=6;overflow=hidden;" vertex="1" parent="5SLXt3DzRqAPuxhB5ycv-48">
          <mxGeometry x="30" width="150" height="30" as="geometry" />
        </mxCell>
        <mxCell id="5SLXt3DzRqAPuxhB5ycv-51" value="" style="shape=partialRectangle;collapsible=0;dropTarget=0;pointerEvents=0;fillColor=none;top=0;left=0;bottom=0;right=0;points=[[0,0.5],[1,0.5]];portConstraint=eastwest;" vertex="1" parent="5SLXt3DzRqAPuxhB5ycv-29">
          <mxGeometry y="150" width="180" height="30" as="geometry" />
        </mxCell>
        <mxCell id="5SLXt3DzRqAPuxhB5ycv-52" value="" style="shape=partialRectangle;connectable=0;fillColor=none;top=0;left=0;bottom=0;right=0;editable=1;overflow=hidden;" vertex="1" parent="5SLXt3DzRqAPuxhB5ycv-51">
          <mxGeometry width="30" height="30" as="geometry" />
        </mxCell>
        <mxCell id="5SLXt3DzRqAPuxhB5ycv-53" value="valid_to_dttm" style="shape=partialRectangle;connectable=0;fillColor=none;top=0;left=0;bottom=0;right=0;align=left;spacingLeft=6;overflow=hidden;" vertex="1" parent="5SLXt3DzRqAPuxhB5ycv-51">
          <mxGeometry x="30" width="150" height="30" as="geometry" />
        </mxCell>
        <mxCell id="5SLXt3DzRqAPuxhB5ycv-54" value="at_good_category" style="shape=table;startSize=30;container=1;collapsible=1;childLayout=tableLayout;fixedRows=1;rowLines=0;fontStyle=1;align=center;resizeLast=1;fillColor=#dae8fc;strokeColor=#6c8ebf;" vertex="1" parent="1">
          <mxGeometry x="-2890" y="-3553" width="180" height="133" as="geometry" />
        </mxCell>
        <mxCell id="5SLXt3DzRqAPuxhB5ycv-55" value="" style="shape=partialRectangle;collapsible=0;dropTarget=0;pointerEvents=0;fillColor=none;top=0;left=0;bottom=1;right=0;points=[[0,0.5],[1,0.5]];portConstraint=eastwest;" vertex="1" parent="5SLXt3DzRqAPuxhB5ycv-54">
          <mxGeometry y="30" width="180" height="30" as="geometry" />
        </mxCell>
        <mxCell id="5SLXt3DzRqAPuxhB5ycv-56" value="PK" style="shape=partialRectangle;connectable=0;fillColor=none;top=0;left=0;bottom=0;right=0;fontStyle=1;overflow=hidden;" vertex="1" parent="5SLXt3DzRqAPuxhB5ycv-55">
          <mxGeometry width="30" height="30" as="geometry" />
        </mxCell>
        <mxCell id="5SLXt3DzRqAPuxhB5ycv-57" value="good_sk" style="shape=partialRectangle;connectable=0;fillColor=none;top=0;left=0;bottom=0;right=0;align=left;spacingLeft=6;fontStyle=5;overflow=hidden;" vertex="1" parent="5SLXt3DzRqAPuxhB5ycv-55">
          <mxGeometry x="30" width="150" height="30" as="geometry" />
        </mxCell>
        <mxCell id="5SLXt3DzRqAPuxhB5ycv-61" value="" style="shape=partialRectangle;collapsible=0;dropTarget=0;pointerEvents=0;fillColor=none;top=0;left=0;bottom=0;right=0;points=[[0,0.5],[1,0.5]];portConstraint=eastwest;" vertex="1" parent="5SLXt3DzRqAPuxhB5ycv-54">
          <mxGeometry y="60" width="180" height="30" as="geometry" />
        </mxCell>
        <mxCell id="5SLXt3DzRqAPuxhB5ycv-62" value="" style="shape=partialRectangle;connectable=0;fillColor=none;top=0;left=0;bottom=0;right=0;editable=1;overflow=hidden;" vertex="1" parent="5SLXt3DzRqAPuxhB5ycv-61">
          <mxGeometry width="30" height="30" as="geometry" />
        </mxCell>
        <mxCell id="5SLXt3DzRqAPuxhB5ycv-63" value="category" style="shape=partialRectangle;connectable=0;fillColor=none;top=0;left=0;bottom=0;right=0;align=left;spacingLeft=6;overflow=hidden;" vertex="1" parent="5SLXt3DzRqAPuxhB5ycv-61">
          <mxGeometry x="30" width="150" height="30" as="geometry" />
        </mxCell>
        <mxCell id="5SLXt3DzRqAPuxhB5ycv-73" value="" style="shape=partialRectangle;collapsible=0;dropTarget=0;pointerEvents=0;fillColor=none;top=0;left=0;bottom=0;right=0;points=[[0,0.5],[1,0.5]];portConstraint=eastwest;" vertex="1" parent="5SLXt3DzRqAPuxhB5ycv-54">
          <mxGeometry y="90" width="180" height="30" as="geometry" />
        </mxCell>
        <mxCell id="5SLXt3DzRqAPuxhB5ycv-74" value="" style="shape=partialRectangle;connectable=0;fillColor=none;top=0;left=0;bottom=0;right=0;editable=1;overflow=hidden;" vertex="1" parent="5SLXt3DzRqAPuxhB5ycv-73">
          <mxGeometry width="30" height="30" as="geometry" />
        </mxCell>
        <mxCell id="5SLXt3DzRqAPuxhB5ycv-75" value="load_dttm" style="shape=partialRectangle;connectable=0;fillColor=none;top=0;left=0;bottom=0;right=0;align=left;spacingLeft=6;overflow=hidden;" vertex="1" parent="5SLXt3DzRqAPuxhB5ycv-73">
          <mxGeometry x="30" width="150" height="30" as="geometry" />
        </mxCell>
        <mxCell id="5SLXt3DzRqAPuxhB5ycv-80" value="at_good_unit_type" style="shape=table;startSize=30;container=1;collapsible=1;childLayout=tableLayout;fixedRows=1;rowLines=0;fontStyle=1;align=center;resizeLast=1;fillColor=#dae8fc;strokeColor=#6c8ebf;" vertex="1" parent="1">
          <mxGeometry x="-2920" y="-3753" width="180" height="163" as="geometry" />
        </mxCell>
        <mxCell id="5SLXt3DzRqAPuxhB5ycv-81" value="" style="shape=partialRectangle;collapsible=0;dropTarget=0;pointerEvents=0;fillColor=none;top=0;left=0;bottom=1;right=0;points=[[0,0.5],[1,0.5]];portConstraint=eastwest;" vertex="1" parent="5SLXt3DzRqAPuxhB5ycv-80">
          <mxGeometry y="30" width="180" height="30" as="geometry" />
        </mxCell>
        <mxCell id="5SLXt3DzRqAPuxhB5ycv-82" value="PK" style="shape=partialRectangle;connectable=0;fillColor=none;top=0;left=0;bottom=0;right=0;fontStyle=1;overflow=hidden;" vertex="1" parent="5SLXt3DzRqAPuxhB5ycv-81">
          <mxGeometry width="30" height="30" as="geometry" />
        </mxCell>
        <mxCell id="5SLXt3DzRqAPuxhB5ycv-83" value="good_sk" style="shape=partialRectangle;connectable=0;fillColor=none;top=0;left=0;bottom=0;right=0;align=left;spacingLeft=6;fontStyle=5;overflow=hidden;" vertex="1" parent="5SLXt3DzRqAPuxhB5ycv-81">
          <mxGeometry x="30" width="150" height="30" as="geometry" />
        </mxCell>
        <mxCell id="5SLXt3DzRqAPuxhB5ycv-84" value="" style="shape=partialRectangle;collapsible=0;dropTarget=0;pointerEvents=0;fillColor=none;top=0;left=0;bottom=0;right=0;points=[[0,0.5],[1,0.5]];portConstraint=eastwest;" vertex="1" parent="5SLXt3DzRqAPuxhB5ycv-80">
          <mxGeometry y="60" width="180" height="30" as="geometry" />
        </mxCell>
        <mxCell id="5SLXt3DzRqAPuxhB5ycv-85" value="" style="shape=partialRectangle;connectable=0;fillColor=none;top=0;left=0;bottom=0;right=0;editable=1;overflow=hidden;" vertex="1" parent="5SLXt3DzRqAPuxhB5ycv-84">
          <mxGeometry width="30" height="30" as="geometry" />
        </mxCell>
        <mxCell id="5SLXt3DzRqAPuxhB5ycv-86" value="unit_type" style="shape=partialRectangle;connectable=0;fillColor=none;top=0;left=0;bottom=0;right=0;align=left;spacingLeft=6;overflow=hidden;" vertex="1" parent="5SLXt3DzRqAPuxhB5ycv-84">
          <mxGeometry x="30" width="150" height="30" as="geometry" />
        </mxCell>
        <mxCell id="5SLXt3DzRqAPuxhB5ycv-87" value="" style="shape=partialRectangle;collapsible=0;dropTarget=0;pointerEvents=0;fillColor=none;top=0;left=0;bottom=0;right=0;points=[[0,0.5],[1,0.5]];portConstraint=eastwest;" vertex="1" parent="5SLXt3DzRqAPuxhB5ycv-80">
          <mxGeometry y="90" width="180" height="30" as="geometry" />
        </mxCell>
        <mxCell id="5SLXt3DzRqAPuxhB5ycv-88" value="" style="shape=partialRectangle;connectable=0;fillColor=none;top=0;left=0;bottom=0;right=0;editable=1;overflow=hidden;" vertex="1" parent="5SLXt3DzRqAPuxhB5ycv-87">
          <mxGeometry width="30" height="30" as="geometry" />
        </mxCell>
        <mxCell id="5SLXt3DzRqAPuxhB5ycv-89" value="load_dttm" style="shape=partialRectangle;connectable=0;fillColor=none;top=0;left=0;bottom=0;right=0;align=left;spacingLeft=6;overflow=hidden;" vertex="1" parent="5SLXt3DzRqAPuxhB5ycv-87">
          <mxGeometry x="30" width="150" height="30" as="geometry" />
        </mxCell>
        <mxCell id="5SLXt3DzRqAPuxhB5ycv-90" value="" style="shape=partialRectangle;collapsible=0;dropTarget=0;pointerEvents=0;fillColor=none;top=0;left=0;bottom=0;right=0;points=[[0,0.5],[1,0.5]];portConstraint=eastwest;" vertex="1" parent="5SLXt3DzRqAPuxhB5ycv-80">
          <mxGeometry y="120" width="180" height="30" as="geometry" />
        </mxCell>
        <mxCell id="5SLXt3DzRqAPuxhB5ycv-91" value="" style="shape=partialRectangle;connectable=0;fillColor=none;top=0;left=0;bottom=0;right=0;editable=1;overflow=hidden;" vertex="1" parent="5SLXt3DzRqAPuxhB5ycv-90">
          <mxGeometry width="30" height="30" as="geometry" />
        </mxCell>
        <mxCell id="5SLXt3DzRqAPuxhB5ycv-92" value="valid_to_dttm" style="shape=partialRectangle;connectable=0;fillColor=none;top=0;left=0;bottom=0;right=0;align=left;spacingLeft=6;overflow=hidden;" vertex="1" parent="5SLXt3DzRqAPuxhB5ycv-90">
          <mxGeometry x="30" width="150" height="30" as="geometry" />
        </mxCell>
        <mxCell id="5SLXt3DzRqAPuxhB5ycv-93" value="at_pack_type" style="shape=table;startSize=30;container=1;collapsible=1;childLayout=tableLayout;fixedRows=1;rowLines=0;fontStyle=1;align=center;resizeLast=1;fillColor=#dae8fc;strokeColor=#6c8ebf;" vertex="1" parent="1">
          <mxGeometry x="-2800" y="-3010" width="180" height="130" as="geometry" />
        </mxCell>
        <mxCell id="5SLXt3DzRqAPuxhB5ycv-94" value="" style="shape=partialRectangle;collapsible=0;dropTarget=0;pointerEvents=0;fillColor=none;top=0;left=0;bottom=1;right=0;points=[[0,0.5],[1,0.5]];portConstraint=eastwest;" vertex="1" parent="5SLXt3DzRqAPuxhB5ycv-93">
          <mxGeometry y="30" width="180" height="30" as="geometry" />
        </mxCell>
        <mxCell id="5SLXt3DzRqAPuxhB5ycv-95" value="PK" style="shape=partialRectangle;connectable=0;fillColor=none;top=0;left=0;bottom=0;right=0;fontStyle=1;overflow=hidden;" vertex="1" parent="5SLXt3DzRqAPuxhB5ycv-94">
          <mxGeometry width="30" height="30" as="geometry" />
        </mxCell>
        <mxCell id="5SLXt3DzRqAPuxhB5ycv-96" value="good_sk" style="shape=partialRectangle;connectable=0;fillColor=none;top=0;left=0;bottom=0;right=0;align=left;spacingLeft=6;fontStyle=5;overflow=hidden;" vertex="1" parent="5SLXt3DzRqAPuxhB5ycv-94">
          <mxGeometry x="30" width="150" height="30" as="geometry" />
        </mxCell>
        <mxCell id="5SLXt3DzRqAPuxhB5ycv-97" value="" style="shape=partialRectangle;collapsible=0;dropTarget=0;pointerEvents=0;fillColor=none;top=0;left=0;bottom=0;right=0;points=[[0,0.5],[1,0.5]];portConstraint=eastwest;" vertex="1" parent="5SLXt3DzRqAPuxhB5ycv-93">
          <mxGeometry y="60" width="180" height="30" as="geometry" />
        </mxCell>
        <mxCell id="5SLXt3DzRqAPuxhB5ycv-98" value="" style="shape=partialRectangle;connectable=0;fillColor=none;top=0;left=0;bottom=0;right=0;editable=1;overflow=hidden;" vertex="1" parent="5SLXt3DzRqAPuxhB5ycv-97">
          <mxGeometry width="30" height="30" as="geometry" />
        </mxCell>
        <mxCell id="5SLXt3DzRqAPuxhB5ycv-99" value="is_perishable_flg" style="shape=partialRectangle;connectable=0;fillColor=none;top=0;left=0;bottom=0;right=0;align=left;spacingLeft=6;overflow=hidden;" vertex="1" parent="5SLXt3DzRqAPuxhB5ycv-97">
          <mxGeometry x="30" width="150" height="30" as="geometry" />
        </mxCell>
        <mxCell id="5SLXt3DzRqAPuxhB5ycv-108" value="" style="shape=partialRectangle;collapsible=0;dropTarget=0;pointerEvents=0;fillColor=none;top=0;left=0;bottom=0;right=0;points=[[0,0.5],[1,0.5]];portConstraint=eastwest;" vertex="1" parent="5SLXt3DzRqAPuxhB5ycv-93">
          <mxGeometry y="90" width="180" height="30" as="geometry" />
        </mxCell>
        <mxCell id="5SLXt3DzRqAPuxhB5ycv-109" value="" style="shape=partialRectangle;connectable=0;fillColor=none;top=0;left=0;bottom=0;right=0;editable=1;overflow=hidden;" vertex="1" parent="5SLXt3DzRqAPuxhB5ycv-108">
          <mxGeometry width="30" height="30" as="geometry" />
        </mxCell>
        <mxCell id="5SLXt3DzRqAPuxhB5ycv-110" value="load_dttm" style="shape=partialRectangle;connectable=0;fillColor=none;top=0;left=0;bottom=0;right=0;align=left;spacingLeft=6;overflow=hidden;" vertex="1" parent="5SLXt3DzRqAPuxhB5ycv-108">
          <mxGeometry x="30" width="150" height="30" as="geometry" />
        </mxCell>
        <mxCell id="5SLXt3DzRqAPuxhB5ycv-111" value="" style="edgeStyle=orthogonalEdgeStyle;fontSize=12;html=1;endArrow=ERzeroToMany;endFill=1;exitX=0;exitY=0.5;exitDx=0;exitDy=0;entryX=0.999;entryY=0.102;entryDx=0;entryDy=0;curved=1;entryPerimeter=0;" edge="1" parent="1" source="YoVkF1FacM1gue7G8QHR-59" target="5SLXt3DzRqAPuxhB5ycv-93">
          <mxGeometry width="100" height="100" relative="1" as="geometry">
            <mxPoint x="-2450" y="-3343" as="sourcePoint" />
            <mxPoint x="-2570" y="-2775" as="targetPoint" />
          </mxGeometry>
        </mxCell>
        <mxCell id="5SLXt3DzRqAPuxhB5ycv-112" value="" style="edgeStyle=orthogonalEdgeStyle;fontSize=12;html=1;endArrow=ERone;endFill=0;exitX=0;exitY=0.5;exitDx=0;exitDy=0;entryX=1.004;entryY=0.096;entryDx=0;entryDy=0;curved=1;entryPerimeter=0;" edge="1" parent="1" source="YoVkF1FacM1gue7G8QHR-59" target="5SLXt3DzRqAPuxhB5ycv-4">
          <mxGeometry width="100" height="100" relative="1" as="geometry">
            <mxPoint x="-2450" y="-3343" as="sourcePoint" />
            <mxPoint x="-2620.1800000000003" y="-3003.68" as="targetPoint" />
          </mxGeometry>
        </mxCell>
        <mxCell id="5SLXt3DzRqAPuxhB5ycv-113" value="" style="edgeStyle=orthogonalEdgeStyle;fontSize=12;html=1;endArrow=ERone;endFill=0;exitX=0;exitY=0.5;exitDx=0;exitDy=0;entryX=1;entryY=0.5;entryDx=0;entryDy=0;curved=1;" edge="1" parent="1" source="YoVkF1FacM1gue7G8QHR-56" target="5SLXt3DzRqAPuxhB5ycv-30">
          <mxGeometry width="100" height="100" relative="1" as="geometry">
            <mxPoint x="-2450" y="-3343" as="sourcePoint" />
            <mxPoint x="-2659.2799999999997" y="-3184.64" as="targetPoint" />
          </mxGeometry>
        </mxCell>
        <mxCell id="5SLXt3DzRqAPuxhB5ycv-114" value="" style="edgeStyle=orthogonalEdgeStyle;fontSize=12;html=1;endArrow=ERone;endFill=0;exitX=0;exitY=0.5;exitDx=0;exitDy=0;curved=1;entryX=1.004;entryY=0.111;entryDx=0;entryDy=0;entryPerimeter=0;" edge="1" parent="1" source="YoVkF1FacM1gue7G8QHR-56" target="5SLXt3DzRqAPuxhB5ycv-54">
          <mxGeometry width="100" height="100" relative="1" as="geometry">
            <mxPoint x="-2450" y="-3373" as="sourcePoint" />
            <mxPoint x="-2670" y="-3550" as="targetPoint" />
          </mxGeometry>
        </mxCell>
        <mxCell id="5SLXt3DzRqAPuxhB5ycv-115" value="" style="edgeStyle=orthogonalEdgeStyle;fontSize=12;html=1;endArrow=ERone;endFill=0;exitX=0;exitY=0.5;exitDx=0;exitDy=0;curved=1;entryX=1.004;entryY=0.09;entryDx=0;entryDy=0;entryPerimeter=0;" edge="1" parent="1" source="YoVkF1FacM1gue7G8QHR-50" target="5SLXt3DzRqAPuxhB5ycv-80">
          <mxGeometry width="100" height="100" relative="1" as="geometry">
            <mxPoint x="-2410.7" y="-3581.09" as="sourcePoint" />
            <mxPoint x="-2659.9799999999996" y="-3749.9970000000003" as="targetPoint" />
          </mxGeometry>
        </mxCell>
        <mxCell id="5SLXt3DzRqAPuxhB5ycv-116" value="" style="edgeStyle=orthogonalEdgeStyle;fontSize=12;html=1;endArrow=ERone;endFill=0;exitX=0;exitY=0.5;exitDx=0;exitDy=0;curved=1;entryX=1.004;entryY=0.085;entryDx=0;entryDy=0;entryPerimeter=0;" edge="1" parent="1" source="YoVkF1FacM1gue7G8QHR-50" target="AmXbHeYY8j9bT75IsuGP-57">
          <mxGeometry width="100" height="100" relative="1" as="geometry">
            <mxPoint x="-2420" y="-3452" as="sourcePoint" />
            <mxPoint x="-2729.2799999999997" y="-3728.33" as="targetPoint" />
          </mxGeometry>
        </mxCell>
        <mxCell id="5SLXt3DzRqAPuxhB5ycv-142" value="at_provider_name" style="shape=table;startSize=30;container=1;collapsible=1;childLayout=tableLayout;fixedRows=1;rowLines=0;fontStyle=1;align=center;resizeLast=1;fillColor=#dae8fc;strokeColor=#6c8ebf;" vertex="1" parent="1">
          <mxGeometry x="-2830" y="-4410" width="180" height="160" as="geometry" />
        </mxCell>
        <mxCell id="5SLXt3DzRqAPuxhB5ycv-143" value="" style="shape=partialRectangle;collapsible=0;dropTarget=0;pointerEvents=0;fillColor=none;top=0;left=0;bottom=1;right=0;points=[[0,0.5],[1,0.5]];portConstraint=eastwest;" vertex="1" parent="5SLXt3DzRqAPuxhB5ycv-142">
          <mxGeometry y="30" width="180" height="30" as="geometry" />
        </mxCell>
        <mxCell id="5SLXt3DzRqAPuxhB5ycv-144" value="PK" style="shape=partialRectangle;connectable=0;fillColor=none;top=0;left=0;bottom=0;right=0;fontStyle=1;overflow=hidden;" vertex="1" parent="5SLXt3DzRqAPuxhB5ycv-143">
          <mxGeometry width="30" height="30" as="geometry" />
        </mxCell>
        <mxCell id="5SLXt3DzRqAPuxhB5ycv-145" value="provider" style="shape=partialRectangle;connectable=0;fillColor=none;top=0;left=0;bottom=0;right=0;align=left;spacingLeft=6;fontStyle=5;overflow=hidden;" vertex="1" parent="5SLXt3DzRqAPuxhB5ycv-143">
          <mxGeometry x="30" width="150" height="30" as="geometry" />
        </mxCell>
        <mxCell id="5SLXt3DzRqAPuxhB5ycv-146" value="" style="shape=partialRectangle;collapsible=0;dropTarget=0;pointerEvents=0;fillColor=none;top=0;left=0;bottom=0;right=0;points=[[0,0.5],[1,0.5]];portConstraint=eastwest;" vertex="1" parent="5SLXt3DzRqAPuxhB5ycv-142">
          <mxGeometry y="60" width="180" height="30" as="geometry" />
        </mxCell>
        <mxCell id="5SLXt3DzRqAPuxhB5ycv-147" value="" style="shape=partialRectangle;connectable=0;fillColor=none;top=0;left=0;bottom=0;right=0;editable=1;overflow=hidden;" vertex="1" parent="5SLXt3DzRqAPuxhB5ycv-146">
          <mxGeometry width="30" height="30" as="geometry" />
        </mxCell>
        <mxCell id="5SLXt3DzRqAPuxhB5ycv-148" value="name" style="shape=partialRectangle;connectable=0;fillColor=none;top=0;left=0;bottom=0;right=0;align=left;spacingLeft=6;overflow=hidden;" vertex="1" parent="5SLXt3DzRqAPuxhB5ycv-146">
          <mxGeometry x="30" width="150" height="30" as="geometry" />
        </mxCell>
        <mxCell id="5SLXt3DzRqAPuxhB5ycv-149" value="" style="shape=partialRectangle;collapsible=0;dropTarget=0;pointerEvents=0;fillColor=none;top=0;left=0;bottom=0;right=0;points=[[0,0.5],[1,0.5]];portConstraint=eastwest;" vertex="1" parent="5SLXt3DzRqAPuxhB5ycv-142">
          <mxGeometry y="90" width="180" height="30" as="geometry" />
        </mxCell>
        <mxCell id="5SLXt3DzRqAPuxhB5ycv-150" value="" style="shape=partialRectangle;connectable=0;fillColor=none;top=0;left=0;bottom=0;right=0;editable=1;overflow=hidden;" vertex="1" parent="5SLXt3DzRqAPuxhB5ycv-149">
          <mxGeometry width="30" height="30" as="geometry" />
        </mxCell>
        <mxCell id="5SLXt3DzRqAPuxhB5ycv-151" value="load_dttm" style="shape=partialRectangle;connectable=0;fillColor=none;top=0;left=0;bottom=0;right=0;align=left;spacingLeft=6;overflow=hidden;" vertex="1" parent="5SLXt3DzRqAPuxhB5ycv-149">
          <mxGeometry x="30" width="150" height="30" as="geometry" />
        </mxCell>
        <mxCell id="5SLXt3DzRqAPuxhB5ycv-152" value="" style="shape=partialRectangle;collapsible=0;dropTarget=0;pointerEvents=0;fillColor=none;top=0;left=0;bottom=0;right=0;points=[[0,0.5],[1,0.5]];portConstraint=eastwest;" vertex="1" parent="5SLXt3DzRqAPuxhB5ycv-142">
          <mxGeometry y="120" width="180" height="30" as="geometry" />
        </mxCell>
        <mxCell id="5SLXt3DzRqAPuxhB5ycv-153" value="" style="shape=partialRectangle;connectable=0;fillColor=none;top=0;left=0;bottom=0;right=0;editable=1;overflow=hidden;" vertex="1" parent="5SLXt3DzRqAPuxhB5ycv-152">
          <mxGeometry width="30" height="30" as="geometry" />
        </mxCell>
        <mxCell id="5SLXt3DzRqAPuxhB5ycv-154" value="valid_to_dttm" style="shape=partialRectangle;connectable=0;fillColor=none;top=0;left=0;bottom=0;right=0;align=left;spacingLeft=6;overflow=hidden;" vertex="1" parent="5SLXt3DzRqAPuxhB5ycv-152">
          <mxGeometry x="30" width="150" height="30" as="geometry" />
        </mxCell>
        <mxCell id="5SLXt3DzRqAPuxhB5ycv-155" value="at_provider_type_legal_entity" style="shape=table;startSize=30;container=1;collapsible=1;childLayout=tableLayout;fixedRows=1;rowLines=0;fontStyle=1;align=center;resizeLast=1;fillColor=#dae8fc;strokeColor=#6c8ebf;" vertex="1" parent="1">
          <mxGeometry x="-2860" y="-4215" width="180" height="160" as="geometry" />
        </mxCell>
        <mxCell id="5SLXt3DzRqAPuxhB5ycv-156" value="" style="shape=partialRectangle;collapsible=0;dropTarget=0;pointerEvents=0;fillColor=none;top=0;left=0;bottom=1;right=0;points=[[0,0.5],[1,0.5]];portConstraint=eastwest;" vertex="1" parent="5SLXt3DzRqAPuxhB5ycv-155">
          <mxGeometry y="30" width="180" height="30" as="geometry" />
        </mxCell>
        <mxCell id="5SLXt3DzRqAPuxhB5ycv-157" value="PK" style="shape=partialRectangle;connectable=0;fillColor=none;top=0;left=0;bottom=0;right=0;fontStyle=1;overflow=hidden;" vertex="1" parent="5SLXt3DzRqAPuxhB5ycv-156">
          <mxGeometry width="30" height="30" as="geometry" />
        </mxCell>
        <mxCell id="5SLXt3DzRqAPuxhB5ycv-158" value="provider" style="shape=partialRectangle;connectable=0;fillColor=none;top=0;left=0;bottom=0;right=0;align=left;spacingLeft=6;fontStyle=5;overflow=hidden;" vertex="1" parent="5SLXt3DzRqAPuxhB5ycv-156">
          <mxGeometry x="30" width="150" height="30" as="geometry" />
        </mxCell>
        <mxCell id="5SLXt3DzRqAPuxhB5ycv-159" value="" style="shape=partialRectangle;collapsible=0;dropTarget=0;pointerEvents=0;fillColor=none;top=0;left=0;bottom=0;right=0;points=[[0,0.5],[1,0.5]];portConstraint=eastwest;" vertex="1" parent="5SLXt3DzRqAPuxhB5ycv-155">
          <mxGeometry y="60" width="180" height="30" as="geometry" />
        </mxCell>
        <mxCell id="5SLXt3DzRqAPuxhB5ycv-160" value="" style="shape=partialRectangle;connectable=0;fillColor=none;top=0;left=0;bottom=0;right=0;editable=1;overflow=hidden;" vertex="1" parent="5SLXt3DzRqAPuxhB5ycv-159">
          <mxGeometry width="30" height="30" as="geometry" />
        </mxCell>
        <mxCell id="5SLXt3DzRqAPuxhB5ycv-161" value="type_legal_entity" style="shape=partialRectangle;connectable=0;fillColor=none;top=0;left=0;bottom=0;right=0;align=left;spacingLeft=6;overflow=hidden;" vertex="1" parent="5SLXt3DzRqAPuxhB5ycv-159">
          <mxGeometry x="30" width="150" height="30" as="geometry" />
        </mxCell>
        <mxCell id="5SLXt3DzRqAPuxhB5ycv-162" value="" style="shape=partialRectangle;collapsible=0;dropTarget=0;pointerEvents=0;fillColor=none;top=0;left=0;bottom=0;right=0;points=[[0,0.5],[1,0.5]];portConstraint=eastwest;" vertex="1" parent="5SLXt3DzRqAPuxhB5ycv-155">
          <mxGeometry y="90" width="180" height="30" as="geometry" />
        </mxCell>
        <mxCell id="5SLXt3DzRqAPuxhB5ycv-163" value="" style="shape=partialRectangle;connectable=0;fillColor=none;top=0;left=0;bottom=0;right=0;editable=1;overflow=hidden;" vertex="1" parent="5SLXt3DzRqAPuxhB5ycv-162">
          <mxGeometry width="30" height="30" as="geometry" />
        </mxCell>
        <mxCell id="5SLXt3DzRqAPuxhB5ycv-164" value="load_dttm" style="shape=partialRectangle;connectable=0;fillColor=none;top=0;left=0;bottom=0;right=0;align=left;spacingLeft=6;overflow=hidden;" vertex="1" parent="5SLXt3DzRqAPuxhB5ycv-162">
          <mxGeometry x="30" width="150" height="30" as="geometry" />
        </mxCell>
        <mxCell id="5SLXt3DzRqAPuxhB5ycv-165" value="" style="shape=partialRectangle;collapsible=0;dropTarget=0;pointerEvents=0;fillColor=none;top=0;left=0;bottom=0;right=0;points=[[0,0.5],[1,0.5]];portConstraint=eastwest;" vertex="1" parent="5SLXt3DzRqAPuxhB5ycv-155">
          <mxGeometry y="120" width="180" height="30" as="geometry" />
        </mxCell>
        <mxCell id="5SLXt3DzRqAPuxhB5ycv-166" value="" style="shape=partialRectangle;connectable=0;fillColor=none;top=0;left=0;bottom=0;right=0;editable=1;overflow=hidden;" vertex="1" parent="5SLXt3DzRqAPuxhB5ycv-165">
          <mxGeometry width="30" height="30" as="geometry" />
        </mxCell>
        <mxCell id="5SLXt3DzRqAPuxhB5ycv-167" value="valid_to_dttm" style="shape=partialRectangle;connectable=0;fillColor=none;top=0;left=0;bottom=0;right=0;align=left;spacingLeft=6;overflow=hidden;" vertex="1" parent="5SLXt3DzRqAPuxhB5ycv-165">
          <mxGeometry x="30" width="150" height="30" as="geometry" />
        </mxCell>
        <mxCell id="5SLXt3DzRqAPuxhB5ycv-180" value="at_provider_name" style="shape=table;startSize=30;container=1;collapsible=1;childLayout=tableLayout;fixedRows=1;rowLines=0;fontStyle=1;align=center;resizeLast=1;fillColor=#dae8fc;strokeColor=#6c8ebf;" vertex="1" parent="1">
          <mxGeometry x="-2780" y="-4760" width="180" height="160" as="geometry" />
        </mxCell>
        <mxCell id="5SLXt3DzRqAPuxhB5ycv-181" value="" style="shape=partialRectangle;collapsible=0;dropTarget=0;pointerEvents=0;fillColor=none;top=0;left=0;bottom=1;right=0;points=[[0,0.5],[1,0.5]];portConstraint=eastwest;" vertex="1" parent="5SLXt3DzRqAPuxhB5ycv-180">
          <mxGeometry y="30" width="180" height="30" as="geometry" />
        </mxCell>
        <mxCell id="5SLXt3DzRqAPuxhB5ycv-182" value="PK" style="shape=partialRectangle;connectable=0;fillColor=none;top=0;left=0;bottom=0;right=0;fontStyle=1;overflow=hidden;" vertex="1" parent="5SLXt3DzRqAPuxhB5ycv-181">
          <mxGeometry width="30" height="30" as="geometry" />
        </mxCell>
        <mxCell id="5SLXt3DzRqAPuxhB5ycv-183" value="provider" style="shape=partialRectangle;connectable=0;fillColor=none;top=0;left=0;bottom=0;right=0;align=left;spacingLeft=6;fontStyle=5;overflow=hidden;" vertex="1" parent="5SLXt3DzRqAPuxhB5ycv-181">
          <mxGeometry x="30" width="150" height="30" as="geometry" />
        </mxCell>
        <mxCell id="5SLXt3DzRqAPuxhB5ycv-184" value="" style="shape=partialRectangle;collapsible=0;dropTarget=0;pointerEvents=0;fillColor=none;top=0;left=0;bottom=0;right=0;points=[[0,0.5],[1,0.5]];portConstraint=eastwest;" vertex="1" parent="5SLXt3DzRqAPuxhB5ycv-180">
          <mxGeometry y="60" width="180" height="30" as="geometry" />
        </mxCell>
        <mxCell id="5SLXt3DzRqAPuxhB5ycv-185" value="" style="shape=partialRectangle;connectable=0;fillColor=none;top=0;left=0;bottom=0;right=0;editable=1;overflow=hidden;" vertex="1" parent="5SLXt3DzRqAPuxhB5ycv-184">
          <mxGeometry width="30" height="30" as="geometry" />
        </mxCell>
        <mxCell id="5SLXt3DzRqAPuxhB5ycv-186" value="INN" style="shape=partialRectangle;connectable=0;fillColor=none;top=0;left=0;bottom=0;right=0;align=left;spacingLeft=6;overflow=hidden;" vertex="1" parent="5SLXt3DzRqAPuxhB5ycv-184">
          <mxGeometry x="30" width="150" height="30" as="geometry" />
        </mxCell>
        <mxCell id="5SLXt3DzRqAPuxhB5ycv-187" value="" style="shape=partialRectangle;collapsible=0;dropTarget=0;pointerEvents=0;fillColor=none;top=0;left=0;bottom=0;right=0;points=[[0,0.5],[1,0.5]];portConstraint=eastwest;" vertex="1" parent="5SLXt3DzRqAPuxhB5ycv-180">
          <mxGeometry y="90" width="180" height="30" as="geometry" />
        </mxCell>
        <mxCell id="5SLXt3DzRqAPuxhB5ycv-188" value="" style="shape=partialRectangle;connectable=0;fillColor=none;top=0;left=0;bottom=0;right=0;editable=1;overflow=hidden;" vertex="1" parent="5SLXt3DzRqAPuxhB5ycv-187">
          <mxGeometry width="30" height="30" as="geometry" />
        </mxCell>
        <mxCell id="5SLXt3DzRqAPuxhB5ycv-189" value="load_dttm" style="shape=partialRectangle;connectable=0;fillColor=none;top=0;left=0;bottom=0;right=0;align=left;spacingLeft=6;overflow=hidden;" vertex="1" parent="5SLXt3DzRqAPuxhB5ycv-187">
          <mxGeometry x="30" width="150" height="30" as="geometry" />
        </mxCell>
        <mxCell id="5SLXt3DzRqAPuxhB5ycv-190" value="" style="shape=partialRectangle;collapsible=0;dropTarget=0;pointerEvents=0;fillColor=none;top=0;left=0;bottom=0;right=0;points=[[0,0.5],[1,0.5]];portConstraint=eastwest;" vertex="1" parent="5SLXt3DzRqAPuxhB5ycv-180">
          <mxGeometry y="120" width="180" height="30" as="geometry" />
        </mxCell>
        <mxCell id="5SLXt3DzRqAPuxhB5ycv-191" value="" style="shape=partialRectangle;connectable=0;fillColor=none;top=0;left=0;bottom=0;right=0;editable=1;overflow=hidden;" vertex="1" parent="5SLXt3DzRqAPuxhB5ycv-190">
          <mxGeometry width="30" height="30" as="geometry" />
        </mxCell>
        <mxCell id="5SLXt3DzRqAPuxhB5ycv-192" value="valid_to_dttm" style="shape=partialRectangle;connectable=0;fillColor=none;top=0;left=0;bottom=0;right=0;align=left;spacingLeft=6;overflow=hidden;" vertex="1" parent="5SLXt3DzRqAPuxhB5ycv-190">
          <mxGeometry x="30" width="150" height="30" as="geometry" />
        </mxCell>
        <mxCell id="5SLXt3DzRqAPuxhB5ycv-193" value="at_provider_INN" style="shape=table;startSize=30;container=1;collapsible=1;childLayout=tableLayout;fixedRows=1;rowLines=0;fontStyle=1;align=center;resizeLast=1;fillColor=#dae8fc;strokeColor=#6c8ebf;" vertex="1" parent="1">
          <mxGeometry x="-2810" y="-4570" width="180" height="130" as="geometry" />
        </mxCell>
        <mxCell id="5SLXt3DzRqAPuxhB5ycv-194" value="" style="shape=partialRectangle;collapsible=0;dropTarget=0;pointerEvents=0;fillColor=none;top=0;left=0;bottom=1;right=0;points=[[0,0.5],[1,0.5]];portConstraint=eastwest;" vertex="1" parent="5SLXt3DzRqAPuxhB5ycv-193">
          <mxGeometry y="30" width="180" height="30" as="geometry" />
        </mxCell>
        <mxCell id="5SLXt3DzRqAPuxhB5ycv-195" value="PK" style="shape=partialRectangle;connectable=0;fillColor=none;top=0;left=0;bottom=0;right=0;fontStyle=1;overflow=hidden;" vertex="1" parent="5SLXt3DzRqAPuxhB5ycv-194">
          <mxGeometry width="30" height="30" as="geometry" />
        </mxCell>
        <mxCell id="5SLXt3DzRqAPuxhB5ycv-196" value="provider" style="shape=partialRectangle;connectable=0;fillColor=none;top=0;left=0;bottom=0;right=0;align=left;spacingLeft=6;fontStyle=5;overflow=hidden;" vertex="1" parent="5SLXt3DzRqAPuxhB5ycv-194">
          <mxGeometry x="30" width="150" height="30" as="geometry" />
        </mxCell>
        <mxCell id="5SLXt3DzRqAPuxhB5ycv-197" value="" style="shape=partialRectangle;collapsible=0;dropTarget=0;pointerEvents=0;fillColor=none;top=0;left=0;bottom=0;right=0;points=[[0,0.5],[1,0.5]];portConstraint=eastwest;" vertex="1" parent="5SLXt3DzRqAPuxhB5ycv-193">
          <mxGeometry y="60" width="180" height="30" as="geometry" />
        </mxCell>
        <mxCell id="5SLXt3DzRqAPuxhB5ycv-198" value="" style="shape=partialRectangle;connectable=0;fillColor=none;top=0;left=0;bottom=0;right=0;editable=1;overflow=hidden;" vertex="1" parent="5SLXt3DzRqAPuxhB5ycv-197">
          <mxGeometry width="30" height="30" as="geometry" />
        </mxCell>
        <mxCell id="5SLXt3DzRqAPuxhB5ycv-199" value="INN" style="shape=partialRectangle;connectable=0;fillColor=none;top=0;left=0;bottom=0;right=0;align=left;spacingLeft=6;overflow=hidden;" vertex="1" parent="5SLXt3DzRqAPuxhB5ycv-197">
          <mxGeometry x="30" width="150" height="30" as="geometry" />
        </mxCell>
        <mxCell id="5SLXt3DzRqAPuxhB5ycv-203" value="" style="shape=partialRectangle;collapsible=0;dropTarget=0;pointerEvents=0;fillColor=none;top=0;left=0;bottom=0;right=0;points=[[0,0.5],[1,0.5]];portConstraint=eastwest;" vertex="1" parent="5SLXt3DzRqAPuxhB5ycv-193">
          <mxGeometry y="90" width="180" height="30" as="geometry" />
        </mxCell>
        <mxCell id="5SLXt3DzRqAPuxhB5ycv-204" value="" style="shape=partialRectangle;connectable=0;fillColor=none;top=0;left=0;bottom=0;right=0;editable=1;overflow=hidden;" vertex="1" parent="5SLXt3DzRqAPuxhB5ycv-203">
          <mxGeometry width="30" height="30" as="geometry" />
        </mxCell>
        <mxCell id="5SLXt3DzRqAPuxhB5ycv-205" value="load_dttm" style="shape=partialRectangle;connectable=0;fillColor=none;top=0;left=0;bottom=0;right=0;align=left;spacingLeft=6;overflow=hidden;" vertex="1" parent="5SLXt3DzRqAPuxhB5ycv-203">
          <mxGeometry x="30" width="150" height="30" as="geometry" />
        </mxCell>
      </root>
    </mxGraphModel>
  </diagram>
</mxfile>
